<mxfile host="Electron" modified="2024-03-05T04:05:02.477Z" agent="Mozilla/5.0 (Windows NT 10.0; Win64; x64) AppleWebKit/537.36 (KHTML, like Gecko) draw.io/23.1.5 Chrome/120.0.6099.109 Electron/28.1.0 Safari/537.36" etag="nyk8BGknRCQVMQ4OGVDF" version="23.1.5" type="device">
  <diagram name="JADGE" id="DB0nXMN6OhLnCasOkFPr">
    <mxGraphModel dx="2874" dy="1596" grid="0" gridSize="10" guides="1" tooltips="1" connect="1" arrows="1" fold="1" page="0" pageScale="1" pageWidth="850" pageHeight="1100" math="0" shadow="0">
      <root>
        <mxCell id="0" />
        <mxCell id="1" parent="0" />
        <mxCell id="zgZFg0AABWsbDgAZYkge-11" value="&lt;font style=&quot;font-size: 69px;&quot; face=&quot;Impact&quot;&gt;JA_BIGE&lt;/font&gt;" style="text;html=1;align=center;verticalAlign=middle;whiteSpace=wrap;rounded=0;" parent="1" vertex="1">
          <mxGeometry x="13" y="43" width="261" height="101" as="geometry" />
        </mxCell>
        <mxCell id="RTb6_Fy9e-SWty_4LApY-2" value="&lt;h1&gt;Goals&lt;/h1&gt;&lt;p&gt;&lt;/p&gt;&lt;ul&gt;&lt;li&gt;Hot swappable&lt;/li&gt;&lt;li&gt;2D&lt;/li&gt;&lt;li&gt;Procedural Generation&lt;/li&gt;&lt;li&gt;Particle System&lt;/li&gt;&lt;/ul&gt;&lt;p&gt;&lt;/p&gt;" style="text;html=1;spacing=5;spacingTop=-20;whiteSpace=wrap;overflow=hidden;rounded=0;" parent="1" vertex="1">
          <mxGeometry x="-139" y="210" width="190" height="120" as="geometry" />
        </mxCell>
        <mxCell id="RTb6_Fy9e-SWty_4LApY-3" value="Engine" style="rounded=0;whiteSpace=wrap;html=1;" parent="1" vertex="1">
          <mxGeometry x="319" y="504" width="120" height="60" as="geometry" />
        </mxCell>
        <mxCell id="RTb6_Fy9e-SWty_4LApY-4" value="Tool" style="rounded=0;whiteSpace=wrap;html=1;" parent="1" vertex="1">
          <mxGeometry x="498" y="528" width="120" height="60" as="geometry" />
        </mxCell>
        <mxCell id="HAlJYMWttNRf-Ymp2at4-1" value="Game" style="rounded=0;whiteSpace=wrap;html=1;" parent="1" vertex="1">
          <mxGeometry x="291" y="634" width="120" height="60" as="geometry" />
        </mxCell>
        <mxCell id="HAlJYMWttNRf-Ymp2at4-2" value="&lt;h1&gt;MVG&lt;/h1&gt;&lt;p&gt;&lt;/p&gt;&lt;ul&gt;&lt;li&gt;Gauntlet&lt;/li&gt;&lt;ul&gt;&lt;li&gt;(Vampire Saviors?)&lt;/li&gt;&lt;/ul&gt;&lt;li&gt;2D&lt;/li&gt;&lt;li&gt;Top Down&lt;/li&gt;&lt;li&gt;Dungeon crawler&lt;/li&gt;&lt;/ul&gt;&lt;p&gt;&lt;/p&gt;" style="text;html=1;spacing=5;spacingTop=-20;whiteSpace=wrap;overflow=hidden;rounded=0;" parent="1" vertex="1">
          <mxGeometry x="120" y="724" width="231" height="143" as="geometry" />
        </mxCell>
        <mxCell id="HAlJYMWttNRf-Ymp2at4-3" value="&lt;h1&gt;MVT&lt;/h1&gt;&lt;p&gt;&lt;/p&gt;&lt;ul&gt;&lt;li&gt;Level Builder&lt;/li&gt;&lt;li&gt;Enemy Builder&lt;/li&gt;&lt;li&gt;Animation Assignment&lt;/li&gt;&lt;li&gt;Weapons&lt;/li&gt;&lt;/ul&gt;&lt;p&gt;&lt;/p&gt;" style="text;html=1;spacing=5;spacingTop=-20;whiteSpace=wrap;overflow=hidden;rounded=0;" parent="1" vertex="1">
          <mxGeometry x="562" y="622" width="190" height="138" as="geometry" />
        </mxCell>
        <mxCell id="HAlJYMWttNRf-Ymp2at4-4" value="&lt;h1&gt;MVE&lt;/h1&gt;&lt;p&gt;&lt;/p&gt;&lt;ul&gt;&lt;li&gt;Tileing system&lt;/li&gt;&lt;li&gt;Sprite animation system&lt;/li&gt;&lt;li&gt;Collision detection&lt;/li&gt;&lt;li&gt;AI&lt;/li&gt;&lt;li&gt;&lt;br&gt;&lt;/li&gt;&lt;/ul&gt;&lt;p&gt;&lt;/p&gt;" style="text;html=1;spacing=5;spacingTop=-20;whiteSpace=wrap;overflow=hidden;rounded=0;" parent="1" vertex="1">
          <mxGeometry x="110" y="354" width="190" height="147" as="geometry" />
        </mxCell>
        <mxCell id="HAlJYMWttNRf-Ymp2at4-5" value="" style="shape=image;verticalLabelPosition=bottom;labelBackgroundColor=default;verticalAlign=top;aspect=fixed;imageAspect=0;image=data:image/jpeg,/9j/4AAQSkZJRgABAQEASABIAAD/2wBDAAMCAgICAgMCAgIDAwMDBAYEBAQEBAgGBgUGCQgKCgkICQkKDA8MCgsOCwkJDRENDg8QEBEQCgwSExIQEw8QEBD/2wBDAQMDAwQDBAgEBAgQCwkLEBAQEBAQEBAQEBAQEBAQEBAQEBAQEBAQEBAQEBAQEBAQEBAQEBAQEBAQEBAQEBAQEBD/wAARCAHgAeADASIAAhEBAxEB/8QAHwAAAQUBAQEBAQEAAAAAAAAAAAECAwQFBgcICQoL/8QAtRAAAgEDAwIEAwUFBAQAAAF9AQIDAAQRBRIhMUEGE1FhByJxFDKBkaEII0KxwRVS0fAkM2JyggkKFhcYGRolJicoKSo0NTY3ODk6Q0RFRkdISUpTVFVWV1hZWmNkZWZnaGlqc3R1dnd4eXqDhIWGh4iJipKTlJWWl5iZmqKjpKWmp6ipqrKztLW2t7i5usLDxMXGx8jJytLT1NXW19jZ2uHi4+Tl5ufo6erx8vP09fb3+Pn6/8QAHwEAAwEBAQEBAQEBAQAAAAAAAAECAwQFBgcICQoL/8QAtREAAgECBAQDBAcFBAQAAQJ3AAECAxEEBSExBhJBUQdhcRMiMoEIFEKRobHBCSMzUvAVYnLRChYkNOEl8RcYGRomJygpKjU2Nzg5OkNERUZHSElKU1RVVldYWVpjZGVmZ2hpanN0dXZ3eHl6goOEhYaHiImKkpOUlZaXmJmaoqOkpaanqKmqsrO0tba3uLm6wsPExcbHyMnK0tPU1dbX2Nna4uPk5ebn6Onq8vP09fb3+Pn6/9oADAMBAAIRAxEAPwDzqiiigAooooAKKKKACiiigAooooAKKKTpyaAFoqA6hp44OoWo+sy/40n9oacemo2v/f5f8aALFFV/7R03/oI2v/f5f8aP7R03/oI2v/f5f8aALFFV/wC0NOHXUbX/AL/L/jSjUNPPA1C1P0mX/GgCeik68iloAKKKKACiiigAooooAKKKKACiiigAooooAKKKKACiiigAooooAKKKKACiik6cmgBaKgOoaeODqFqPrMv+NJ/aGnHpqNr/AN/l/wAaALFFV/7R03/oI2v/AH+X/Gj+0dN/6CNr/wB/l/xoAsUVX/tDTh11G1/7/L/jSjUNPPA1C1P0mX/GgCeik68iloAKKKKACiiigAooooAKKKKACiiigAoqv/aGnDrqNr/3+X/Gj+0NOPTUbX/v8v8AjQBYoqv/AGjpv/QRtf8Av8v+NH9o6b/0EbX/AL/L/jQBYoqv/aGnDrqNr/3+X/GlGoaeeBqFqfpMv+NAE9FJ15FLQAUUUUAFQagcafdkdoJD/wCOmp6r6j/yDbz/AK95P/QTQBxXwQ+CHwntvhRefGf4z6pc3emXc7qiCR1+yYkI7H5s1h6n4Y+AHxV+I+ifDH4PQ3lidQcmXU2nkJUL82Njeo4rs53EX7AUspUMI7xnwe+J+leYfCrwL8dNZ8YaZ8ePh54BWWzK7LdVnVQ21dpNflFOtiK1TGY6tipRcJ1IQvNRgnFLkVno3u+2mp9lXpwpxw+FpUFKLjGUrRvJpvXU9n8V+Ev2Jfh9rsvg/wAWtfRaxYqiXEazTMS2OvHr1o8KeEv2JfiDrsXg/wAJNfS6xfK6W8bTTKQ2OvPp1rg3+EH7Q+q/Gg/F3xV8IV1USNmawa6QB/lwOaE+EH7Q+lfGgfF3wr8IV0oRtmGwW6QhPlwea8/2cPZcv9oz9p7Pmv7ePL7T+W29r9drHX7Wrz831KPJzWt7N83L37X/AFKGmeGPgB8KviPrfwx+MMN5fHT3Bi1NZ5AWDfNjYvoOK3Pjh8D/AIVXXwns/jN8E9SubbT7WZU8oyuftjFwoHJ+XBrh/ir4F+OmjeMNT+PHxD8ArFZhdlwrTqwXcu0GvT4ZHf8AYBjnhIjd7wOhH8JM+R+Vd9WviKNTB46hipSlOdOE7TUqblJPnXKrpdH210OXD04TWIwtWgoxUZSjeNpJJ6ak9jon7RLWNs0XwY3oYUKN9uX5l2jBqb+w/wBo3/oiv/k8tQWGuftEjT7UQ/GfZGII9i/YV+VdowKn/tz9o3/otX/kitfTv/W6+nsP/Jzy1/YNtfa/+Sh/Yf7Rv/RFf/J5aR9F/aLRGkb4LYVQWP8Apy9BS/25+0b/ANFq/wDJFaR9a/aLdGjb405VgVP+gr0NL/jLv+nH/k4/+EHp7X/yU42H4h/E248S2HhCL4X51XUy4tYftY+cr97muyfRf2i0Rnb4LfKgJJ+3L0Fc98NtD8U6P+0d4DfxN4p/tlpzctGfKCeX8vPTrmux+I3xB+NGp/Gbxf4Q8LfEP+xdL0cRCKH7MJMh155Nc2JzXP8A+0YZZh1S5/Z88m+a3xNaW17dO48Jgsv+ovGYpz+LlXLbtfqeew/EP4m3HiWw8IRfC/Oq6mXFrD9rHzlfvc12f9h/tGf9EV/8nlrnfhtofinR/wBo7wG/ibxT/bLTm5aM+UE8v5eenXNdl8Q/iJ8adQ+NPi3wn4U+If8AYumaKYfJi+zCTO5cnk0YnNeIP7RhlmHVLn9nzyb5rfE1pbXt07jwmCy/6i8ZinO3Nyrlt2v1M/8AsP8AaN/6Ir/5PLR/Yf7Rv/RFf/J5aP7c/aN/6LV/5IrR/bn7Rv8A0Wr/AMkVrp/4y7/qH/8AJyf+EH/p7/5KH9h/tG/9EV/8nlo/sP8AaN/6Ir/5PLXOa58Sf2j9H8VaH4ZT4ttO2s+Z+8WyXMe0enejQ/iT+0frHirXPDL/ABbaBtG8v941kuZNw9O1c31vij6x9Uvh+e3Nb95te1/vK5citzfvbf8Abp0f9h/tG/8ARFf/ACeWj+w/2jf+iK/+Ty1zmufEn9o/R/FWh+GU+LbTtrPmfvFslzHtHp3o0P4k/tH6x4q1zwy/xbaBtG8v941kuZNw9O1H1vij6x9Uvh+e3Nb95te1/vDlyK3N+9t/26dH/Yf7Rv8A0RX/AMnlo/sP9o3/AKIr/wCTy0f25+0b/wBFq/8AJFaP7c/aN/6LV/5IrXT/AMZd/wBQ/wD5OT/wg/8AT3/yUP7D/aM/6Ir/AOTy1xk3xD+Jtv4lv/CEvwvxqumFBdQ/ax8hb7vNeh/Dz4ifGnT/AI0+EvCfiv4h/wBtaZrRm86L7MI8bVyORXG/EnQ/FOsftHePH8M+Kf7GaA2zSHyg/mfLx16Yrmw2a5//AGjLLMSqXP7PnTXNb4ktb69+nYrF4LL/AKisZhXO3Nyvmt2v0OhTRf2i3RXX4LfK4BB+3L0NcbN8Q/ibb+Jb/wAIS/C/Gq6YUF1D9rHyFvu816F8OfiD8aNM+M3hDwh4p+If9taXrAlEsP2YR4CLxyK474k6H4p1j9o7x4/hnxT/AGM0BtmkPlB/M+Xjr0xRhs1z/wDtGWWYhUuf2fPFrmt8SWt/n0Fi8Fl/1FYzCudublfNbtfodCmi/tFuiyL8FsqwDD/Tl6Gl/sP9o3/oiv8A5PLSJrX7RaIsa/GnCqAo/wBBXoKX+3P2jf8AotX/AJIrXT/xl3/Tj/ycS/sHr7X/AMlD+w/2jf8Aoiv/AJPLUN9on7RK2N00vwY2IIXLt9uX5V2nJqb+3P2jf+i1f+SK1Bf65+0SdPuhN8Z98Zgk3r9hX5l2nIpr/W6+vsP/ACcH/YNtPa/+SmF8D/gf8KrX4T3nxm+NmpXNzp91MyeUJXH2Ng5Ujg/Nk1h6n4Y+AHxV+I+ifDH4PQ3lidQcmXU2nkJUL82Njeo4rs5pHT9gGSeYiR0vC7k/xET5P515h8KvAvx01nxhpnx4+HngFZbMrst1WdVDbV2k18xSr4mtUxmOr4mUZQnUhC81GmpRS5FyvR9X201PTxFOEFh8LSoKUXGMpWjebTeup7P4r8JfsS/D7XZfB/i1r6LWLFUS4jWaZiWx149etHhTwl+xL8Qddi8H+EmvpdYvldLeNpplIbHXn061wb/CD9ofVfjQfi74q+EK6qJGzNYNdIA/y4HNCfCD9ofSvjQPi74V+EK6UI2zDYLdIQny4PNcHs4ey5f7Rn7T2fNf28eX2n8tt7X67WOr2tXn5vqUeTmtb2b5uXv2v+pQ0zwx8APhV8R9b+GPxhhvL46e4MWprPICwb5sbF9BxW58b/gh8J7n4UWfxn+DGqXNpplpOiuhkdvteZAO5+XFcP8AFXwL8dNG8Yan8ePiH4BWKzC7LhWnVgu5doNenwOJf2AopQoUSXivgdsz9K9CpXxFGpg8dRxMpOc6cJ2mpQbknzrlV0ns+2uhyUKcJxxGFq0FGKjKUbxtJJPTU39POdPtCe8EZ/8AHRU9V9O/5Btn/wBe8f8A6CKsV+rnxoUUUUAFFFJ05NAC0VAdQ08cHULUfWZf8aT+0NOPTUbX/v8AL/jQBYoqv/aOm/8AQRtf+/y/40f2jpv/AEEbX/v8v+NAFiiq/wDaGnDrqNr/AN/l/wAaP7Q049NRtf8Av8v+NAHB/AH4H/Ce2+DUnxn+NGq3V5pl2dqIJXX7KQ2Ox+bNZWp+GPgB8VfiPonwx+D0N5YnUHJl1Np5CVC/NjY3qOK6yBxF/wAE9UlKhhHOHwe+JRxXm/wq8C/HTWfGGmfHj4eeAVlsyuy3VZ1UNtXaTX5RTr4itUxmOrYqUXCdSELzUYJxS5FyvRvd9tNT7KvThCOHwtKgpRcYylaN5NN66ns/ivwl+xL8Ptdl8H+LWvotYsVRLiNZpmJbHXj160eFPCX7EvxB12Lwf4Sa+l1i+V0t42mmUhsdefTrXBv8IP2h9V+NB+Lvir4QrqokbM1g10gD/Lgc0J8IP2h9K+NA+LvhX4QrpQjbMNgt0hCfLg815/s4ey5f7Rn7T2fNf28eX2n8tt7X67WOv2tXn5vqUeTmtb2b5uXv2v8AqUNM8MfAD4VfEfW/hj8YYby+OnuDFqazyAsG+bGxfQcVt/HP4I/Cif4SWvxp+C2pXVtp1lKoaMyu32wlwO5+XBriPir4F+OmjeMNT+PHxD8ArFZhdlwrTqwXcu0GvTkYz/8ABP5XT5DLdhlx/CTPXfVr4ijUweOoYmUpTnThO01Km5ST51yq6XR9tdDkoU4TjiMLVoKMVGUo3jaSSempyml/EX4k3Wr6N4Stfhn5mo6pFizj+1D96FXk57cV3P8AYf7Rn/RFf/J5a5b4TaH4m0f4/fDlvEPib+1lnilMA8rZ5Q8vp713PxD+Inxp1D40+LfCfhT4h/2LpmimHyYvswkzuXJ5Ne9is1z/APtKOWYZUuf2fO3Lmt8TWlvK3Tuedg8Fl/1F4zFudublXLbtfqZ/9h/tG/8ARFf/ACeWkfRf2i0RpG+C2FUFj/py9BS/25+0b/0Wr/yRWkfWv2i3Ro2+NOVYFT/oK9DXR/xl3/Tj/wAnF/wg9Pa/+SnGw/EP4m3HiWw8IRfC/Oq6mXFrD9rHzlfvc11l/of7RIsLoy/BjbGIJN7fbl+VdpyaxPhtofinR/2jvAb+JvFP9stObloz5QTy/l56dc11fxT+Ifxl1H4s+N/CXhn4gf2RpOiwrst/s4fcrodwzXPiM1z/APtKGWYdUuf2fPJvmt8TWnyt07jwuCy/6i8ZinP4uVctu1+pkzQzTfsAy23l4nkvGj2ejmfGPzqr4H039sfwH8LbPwX4R8Fm0jt0M0F556NhG+bO0+1Wpppof2AZbnzMzx3jSb/VxPnP51V8D6l+2P48+Ftn408I+NDdx3CGGCz8hFyi/LjcfavkZc/sa/P7Lk+szv7XmtzaWtb53voe7Pk9pRt7Tm9lG3s97a3v+Bo/A7Xf2oPi3rHiLQtY+LJ0C88PGMSxmzSTcW+lHxx139qD4Sax4d0LR/iydfvPEJkEUYs0j2lfrR8DtC/ag+EmseItd1j4THX7zxCYzLIbxI9pX6UfHHQv2oPi3rHh3XdH+Ex0C88PGQxSC8STcW+tY/uv7X/5hvq9v+nXLzcn/gduf8DX9/8A2Z/y99v/ANv/AM33bGd44039sfx58LbzwX4u8Fm7juE86e889Fyi/NnaParUMM0P7AMVt5eZ47wR7PVxPjH51V8cal+2P4D+Ft5408XeNDaR26eTPZ+QjYRvlxuHtVqGaab9gGK58zE8l4JN/o5nzn862jzexocnsuT6zC3sua3Nre9/la2hlDk9pWv7Tm9jK/tN7aWt+JNYaH+0SdPtTD8GN8Zgj2N9uX5l2jBqf+w/2jf+iK/+Ty1BYa5+0SNPtRD8Z9kYgj2L9hX5V2jAqf8Atz9o3/otX/kitfbv/W6+nsP/ACc8Bf2DbX2v/kof2H+0b/0RX/yeWj+w/wBo3/oiv/k8tH9uftG/9Fq/8kVpf7b/AGjv+i0n/wAAVpf8Zd/1D/8Ak4/+EH/p7/5KX/h58O/jTqHxp8JeLPFfw8/sXTNFM3nS/aRJncuBwK434k654p0f9o7x4nhnwt/bLTm2WQeaE8v5eOvXNdH/AG3+0d/0Wj/yRWuMn+HfxNn8S3/i+X4n51XUyhupvsg+cr93iubDZVn/APaMszxLpc/s+RJc1viT1vr369isXjcv+orB4VTtzcz5rdrdD0H4c/D740an8ZvCHi/xT8PP7F0vRxKZZvtIkyHXjgVx3xJ1zxTo/wC0d48Twz4W/tlpzbLIPNCeX8vHXrmuhTWf2jERUX40fKoAH+gr0FcdN8OvidceJb/xfL8Ts6rqZQ3U32QfOV+7xRhsqz/+0ZZniHS5/Z8kUua3xJ63+fUWLxuX/UVg8Kp25uZ81u1uh2KaL+0W6LIvwWyrAMP9OXoaX+w/2jf+iK/+Ty0iaz+0ZGixr8acBQFA+wr0FO/tv9o7/otJ/wDAFa6f+Mu/6cf+TiX9g9fa/wDkpe+H3w5+M2p/Gjwl4q8X/DkaPpeimbzpDcLIDuXjiuL+JWt+JdB/aK8fDwv4TGrCT7P5iiQRiL5eK6X+3P2je/xp/wDJFa4y5+HHxMu/EWo+K5/idu1PVdv2ub7IPn2jA4rmw2VZ/wD2jLM8S6XP7PkSXNb4k9b67X69h4zG5d9RWDwin8XM3K3a3QvfDXW/EuvftFeAR4o8JjSRH9o8tTIJBL8vNdp8Qfhz8ZtM+NHi3xV4Q+HI1jS9aMPkyC4WMDavPFeeWvw5+Jlp4i07xXb/ABPxqelbvsk32QHZuGDxXa/23+0d/wBFo/8AJFaMTlfEH9oxzPDOlz+z5GnzW+JvS3lbr3DB43LvqLweLU/i5k427W6if2H+0b/0RX/yeWkfRf2i0RpG+C2FUFj/AKcvQU7+2/2jv+i0n/wBWmvrX7Rbo0bfGnhgVI+wr0NdP/GXf9OP/Jxf8IPT2v8A5Kc98Ntc8U6x+0d4DTxN4W/sZoDcrGPND+Z8vPTpiux+I3w++NGmfGbxf4v8LfDz+2tL1gRGKb7SI8BF54NefQ/Dr4nW/iWw8XxfE/Gq6YXNrN9kHyFvvcV2L6x+0Y6MjfGj5XBBH2FehrmxOVZ//aMMzw7pc/s+SSfNb4m9La9uvceExuX/AFF4PFKfxcy5bdrdTnvhtrninWP2jvAaeJvC39jNAblYx5ofzPl56dMV2XxD+Hfxp0/40+LfFnhT4ef21pmtGHyZftIjxtXB4Neew/Dv4m2/iWw8XRfE/Gq6YXNrN9kHyFvvcV2f9t/tHf8ARaP/ACRWjE5VxB/aMMzw7pc/s+SSfNb4m9La9uvceExuX/UXg8Up25uZctu1uon9h/tG/wDRFf8AyeWj+w/2jf8Aoiv/AJPLR/bn7Rv/AEWr/wAkVpf7b/aO/wCi0n/wBWun/jLv+of/AMnJ/wCEH/p7/wCSif2H+0b/ANEV/wDJ5agv9D/aJGn3Rm+DGyMQSb2+3L8q7Tk1P/bn7Rv/AEWr/wAkVqC/1z9ok6fdCb4z74zBJvX7CvzLtORTX+t19fYf+Tg/7Btp7X/yUhmhmm/YBltvLxPJeNHs9HM+MfnVXwPpv7Y/gP4W2fgvwj4LNpHboZoLzz0bCN82dp9qtTTTQ/sAy3PmZnjvGk3+rifOfzqr4H1L9sfx58LbPxp4R8aG7juEMMFn5CLlF+XG4+1fES5/Y1+f2XJ9Znf2vNbm0ta3zvfQ96fJ7Sjb2nN7KNvZ721vf8DR+B2u/tQfFvWPEWhax8WToF54eMYljNmkm4t9KPjjrv7UHwk1jw7oWj/Fk6/eeITIIoxZpHtK/Wj4HaF+1B8JNY8Ra7rHwmOv3niExmWQ3iR7Sv0o+OOhftQfFvWPDuu6P8JjoF54eMhikF4km4t9ax/df2v/AMw31e3/AE65ebk/8Dtz/ga/v/7M/wCXvt/+3/5vu2M7xxpv7Y/jz4W3ngvxd4LN3HcJ509556LlF+bO0e1WoYZof2AYrby8zx3gj2erifGPzqr441L9sfwH8Lbzxp4u8aG0jt08mez8hGwjfLjcParUM0037AMVz5mJ5LwSb/RzPnP51tHm9jQ5PZcn1mFvZc1ubW97/K1tDKHJ7Stf2nN7GV/ab20tb8Saw0P9ok2FqYvgxujMEexvty/Mu0YNcnN8Q/ibb+Jb/wAIS/C/Gq6YUF1D9rHyFvu813nws+Ifxl074s+CPCXib4gf2vpOtQtvt/s4TaqINozXKfEnQ/FOsftHePH8M+Kf7GaA2zSHyg/mfLx16Yr67D5rn/8AaU8sxCpc/s+eLXNb4ktb+V+h4WKwWX/UVjMK525uV81u1+h0KaL+0W6LIvwWyrAMP9OXoaX+w/2jf+iK/wDk8tImtftFoixr8acKoCj/AEFegpf7c/aN/wCi1f8AkitdH/GXf9OP/JxL+wevtf8AyUP7D/aM/wCiK/8Ak8tcNqnxF+JNrq+s+Err4Z+XqOlxYvI/tQ/dBl4Oe/Fek/Dz4ifGnT/jT4S8J+K/iH/bWma0ZvOi+zCPG1cjkVw3xZ0PxNrHx++IzeHvE39krBFEZx5W/wA0eX09q58Lmuf/ANpSyzEqlz+z501zW+JLW/lfp2HjMFl/1FYzCOfxcvvW7X6EnwM+CPwog+El18afjTqV1c6deysFjErr9jIcjsfmyaxNT8MfAD4q/EfRPhj8HobyxOoOTLqbTyEqF+bGxvUcV2TsYP8Agn8zv85iuyzZ/iInrzH4VeBfjprPjDTPjx8PPAKy2ZXZbqs6qG2rtJrwaVbEVqmMx1fFSjKE6kIXmowUopci5Xo+r7aano16cIRw+FpUFKLjGUrRvJpvXU9n8V+Ev2Jfh9rsvg/xa19FrFiqJcRrNMxLY68evWjwp4S/Yl+IOuxeD/CTX0usXyulvG00ykNjrz6da4N/hB+0PqvxoPxd8VfCFdVEjZmsGukAf5cDmhPhB+0PpXxoHxd8K/CFdKEbZhsFukIT5cHmuD2cPZcv9oz9p7Pmv7ePL7T+W29r9drHX7Wrz831KPJzWt7N83L37X/UoaZ4Y+AHwq+I+t/DH4ww3l8dPcGLU1nkBYN82Ni+g4rV+P3wP+E9z8Go/jP8F9VurPTLQ7XQyu32olsdz8uK474q+Bfjpo3jDU/jx8Q/AKxWYXZcK06sF3LtBr0idxL/AME9XlChRJOXwO2ZTxXoVK+Io1MHjqOJlJznThO01KDck+dcquk9n210OShShOOIwtWgoxUZSjeNpJJ6ahBE8/8AwT0S3iGXlnCKPUmUAUzwPpv7Y/gP4W2fgvwj4LNpHboZoLzz0bCN82dp9qfBK8H/AAT0S4iOHinDqfQiUEUzwPqX7Y/jz4W2fjTwj40N3HcIYYLPyEXKL8uNx9q86fN7HEc3suT61P8Ai81ubTltbTa976HXPk56P8Tm9jG3s97a3v8AgaPwO139qD4t6x4i0LWPiydAvPDxjEsZs0k3FvpR8cdd/ag+EmseHdC0f4snX7zxCZBFGLNI9pX60fA7Qv2oPhJrHiLXdY+Ex1+88QmMyyG8SPaV+lHxx0L9qD4t6x4d13R/hMdAvPDxkMUgvEk3FvrWP7r+1/8AmG+r2/6dcvNyf+B25/wNv3/9mf8AL32//b/833bGd44039sfx58LbzwX4u8Fm7juE86e889Fyi/NnaParUMM0P7AMVt5eZ47wR7PVxPjH51V8cal+2P4D+Ft5408XeNDaR26eTPZ+QjYRvlxuHtVqGaab9gGK58zE8l4JN/o5nzn862jzexocnsuT6zC3sua3Nre9/la2hlDk9pWv7Tm9jK/tN7aWt+JrfCz4efGXUfiz4I8W+Jvh/8A2RpOiwtvuPtAfcroNpxXKfEnXPFOj/tHePE8M+Fv7Zac2yyDzQnl/Lx165rbsNc/aJFhaiL4z7YxBHsX7CvyrtGBXJzfDz4m3HiW/wDF8vxQzquplDdTfZB85X7vFfXYfKs//tKeZ4h0uf2fJFLmt8Set/K/U8LFY3L/AKisHhVO3NzPmt2t0OyTRf2i3RZF+C2VYBh/py9DS/2H+0b/ANEV/wDJ5aRNa/aLRFjX404VQFH+gr0FL/bn7Rv/AEWr/wAkVro/4y7/AKcf+TiX9g9fa/8AkpofDz4d/GnUPjT4S8WeK/h5/YumaKZvOl+0iTO5cDgVw3xZ1zxNo/x++Iy+HvDP9rLPFEJz5uzyh5fX3rqf7c/aM/6LV/5IrXDap8OviTdavrPi26+JnmajqkWbyT7KP3oVeBjtxXPhcqz/APtKWZ4l0uf2fIkua3xJ638r9ew8Zjcv+orB4RT+Lm963a3Q6t1M/wDwT+ZH+Qy3ZVs/wkz15j8KvHXx00bxhpnwH+Hnj5YrMLvt2WBWC7l3EV2/wM+N3won+El18FvjTpt1badZSsVkETt9sJcnsPlwaxNT8T/AD4VfEfRPid8Hpry+OnuRLpjQSAsG+XO9vQc14NKjiKNTGYGvhZSlOdScLwUoOUkuR8z0XVdtdT0a9SE44fFUq6jFRjGVpWkknroX3+L/AO0PpXxoPwi8VfF5dKEbYmv2tUIT5cjihPi/+0PqvxoHwi8K/F5dVEjYhv1tUAf5cniu88V+Lf2JfiDrsvjDxat9LrF8qPcSLDMpDY6cenSjwp4t/Yl+H2uxeMPCS30WsWKu9vI0MzEtjpz69K4PaQ9lzf2dP2ns+W3sI8vtP5r72v02sdfsqvPy/XY8nNe/tHzcvbtf9Txj4q+OvjprPjDU/gP8Q/Hyy2ZXfcM0CqG2ruAr0+BBF+wFFEGDCO8VMjvifrXGaZ4n+AHxV+I+t/E74wzXlidQcCLTFgkJUL8ud6+o5rc+N/xv+E9t8KLP4MfBjS7m70y7nRncxuv2TEgPcfNmvQqUMRWqYPA0cNKLhOnOdoKME4p875lZN7LtpoclCpCEcRiqtdSi4yjG8ryab00O107/AJBtn/17x/8AoIqxUGnjGn2gPaCMf+Oip6/Vz4089+LHirxbpK2HhzwTp7Tarq27ypx0i29c545rynxBr/7SHhfSpta1q4MFpBgO+EOM19LFI2ZXaNSy/dYjkfQ1598fif8AhVeq890/nQB4R4f+L/xn8UarDoui6yZ7ufOxNijOK7eHxH+0F4TmTWfFlk9zpkbCOWNductwDxzwTmvNv2f/APkqWk/V/wCVfZjokp2SorqT0YZFAHyp48+K/wAUfB/ia50NfFXnLGFkDeSBgMM4/DOK0/D+v/tIeJ9Kh1rRrgz2k+dkmEGcVxfx/wCPilqwA/uf+g16v8H/AIweAfDHgDTtF1rWjBdwF96eWTjJoAZo3iH412d2fDHi13tLnVY2ezvtoYQbAS2QPWvMLn48/FK3uJbc+I93lOyZ8oc4OK+jPC3xJ0f4g3Gv2+kW6yW2l258q6I5k3Kc4B6V8rWvhD+2NF8S+Jftoj/siYfutufM3OR17UAfUHwX8et468IhbvU/tGs24YXTbMbM/dNefjxN8Tz8Wv8AhXP/AAm37vzM+f5A+7jOMfpXEfs6eI9R0vx7baRBeLDZaiSLlWwA2Bxya7UY/wCGpuOm7/2SgBnxp+Nfivw54mPhjw9P9jbTwFmmwG88kdcHpWD4T8d/tAeNlmfw7ePcrb43sY1Uc+metc3+0D/yVPV/qn8q9l+Fnjvwl4F+F2hv4ivVtGvDLsZY8l8HvigDnHf9qOON5G3bUUsfudBXc/BLx/4h8baVfab4gtZI7/Txta6dceYTkDj2q6fj/wDCwjB8Qsf+2RrQ8M/FT4e+I9Uj0nw7eiS6nPCpblQcepxQB4V8Q/in8UfBHi2+8OL4r+0LbMCsnkgZB5xWh4f1/wDaQ8T6VDrWjXBntJ87JMIM4rjP2gOPilqw90/lXq3wf+MHgHwx4A07Rda1owXcBfenlk4yaAGaN4h+Ndndnwx4td7S51WNns77aGEGwEtkD1rzC5+PPxSt7iW3PiPd5TsmfKHODivozwt8SdH+INxr9vpFusltpdufKuiOZNynOAelfK1r4Q/tjRfEviX7aI/7ImH7rbnzNzkde1AH1B8F/HreOvCIW71P7RrNuGF02zGzP3TXn/8Awk/xP/4W1/wrr/hNv3fmZ8/yB93GcY/SuI/Z08R6jpfj220iC8WGy1EkXKtgBsDjk12hx/w1Lx0z/wCyUAfQqKyoqu25lUBm9T3NQ6j/AMg28/695P8A0E1YPU/WoNQGdPuwO8Eg/wDHTQBgToJf2ApYiwUSXjJk9sz9a8w+FXjr46aN4w0z4D/Dzx8sVmF327LArBdy7iK7j4IfG/4T3PwovPgx8Z9LubTTLSd2RxG7fa8yE9h8uKw9T8T/AAA+FXxH0T4nfB6a8vjp7kS6Y0EgLBvlzvb0HNflFOjiKNTGYGthZSc51JwvBSg3JLkd3onuu2up9lXqQqRw+KpV1GKjGMrStJJPXQvv8X/2h9K+NB+EXir4vLpQjbE1+1qhCfLkcUJ8X/2h9V+NA+EXhX4vLqokbEN+tqgD/Lk8V3nivxb+xL8Qddl8YeLVvpdYvlR7iRYZlIbHTj06UeFPFv7Evw+12Lxh4SW+i1ixV3t5GhmYlsdOfXpXn+0h7Lm/s6ftPZ8tvYR5fafzX3tfptY6/ZVefl+ux5Oa9/aPm5e3a/6njHxV8dfHTWfGGp/Af4h+Pllsyu+4ZoFUNtXcBXpyKYP+CfyonzmK7Crj+IieuN0zxP8AAD4q/EfW/id8YZryxOoOBFpiwSEqF+XO9fUc1t/HP43fCiD4SWvwW+C2m3Vzp17KpaQxOv2Mhwe4+bJrvq0MRWqYPA0MNKMoTpznaCjTUop875lZPou2mhyUKkIRxGKq11KLjKMbyvJpvTQj+E2ueJtY+P3w5XxD4Z/slYIpRAfN3+aPL6+1dz8Q/h38adP+NPi3xZ4U+Hn9taZrRh8mX7SI8bVweDXm2l/Dr4k2ur6N4ttfiZ5eo6XFmzk+yj90GXkY78V3P9uftGf9Fq/8kVr3sVlWf/2lHM8M6XP7PkalzW+JvS3lbr3POweNy/6i8Hi1O3NzLlt2t1D+w/2jf+iK/wDk8tI+i/tFojSN8FsKoLH/AE5egpf7c/aN/wCi1f8AkitI+tftFujRt8acqwKn/QV6Guj/AIy7/px/5OL/AIQentf/ACU574ba54p1j9o7wGnibwt/YzQG5WMeaH8z5eenTFdX8U/h58ZdO+LPjfxb4Z+H/wDa+k61Cuy4+0BNqoh3HFcHD8PPibb+JbDxfF8UMarphc2s32QfIW+9xXWX+uftEmwuhL8Z90Zgk3r9hX5l2nIrnxGVZ/8A2lDM8O6XP7PkknzW+JvT5W69x4XG5f8AUXg8Up/FzLlt2t1IZoZpv2AZbby8TyXjR7PRzPjH51V8D6b+2P4D+Ftn4L8I+CzaR26GaC889GwjfNnafarU000P7AMtz5mZ47xpN/q4nzn86q+B9S/bH8efC2z8aeEfGhu47hDDBZ+Qi5RflxuPtXyMuf2Nfn9lyfWZ39rzW5tLWt8730Pdnye0o29pzeyjb2e9tb3/AANH4Ha7+1B8W9Y8RaFrHxZOgXnh4xiWM2aSbi30o+OOu/tQfCTWPDuhaP8AFk6/eeITIIoxZpHtK/Wj4HaF+1B8JNY8Ra7rHwmOv3niExmWQ3iR7Sv0o+OOhftQfFvWPDuu6P8ACY6BeeHjIYpBeJJuLfWsf3X9r/8AMN9Xt/065ebk/wDA7c/4Gv7/APsz/l77f/t/+b7tjO8cab+2P48+Ft54L8XeCzdx3CedPeeei5RfmztHtT54ng/4J6PbyjDxTlGHoRKQaZ441L9sfwH8Lbzxp4u8aG0jt08mez8hGwjfLjcPanzyvP8A8E9HuJTl5Zy7H1JlJNbQ5vY0OX2XJ9ah/C5rc2t73+VraGUOTnrfxOb2Mr+03tpa34hAgl/4J6pEWCiScJk9syjmvN/hV46+OmjeMNM+A/w88fLFZhd9uywKwXcu4iux+APxx+E118HW+Cfxn0y5tLC2O6LbG7NeEtngAZGKydU8Ufs/fCn4l6N8SfhBPeXsmmORPpLwyBiGGMlm5GBzXoU6NejVxmArYaUpTnUnC8FKDckuR3e3VdtdTkr1ITjh8VSrqMVGMJWlaSs9dDQf4v8A7Q+lfGg/CLxV8Xl0oRtia/a1QhPlyOKE+L/7Q+q/GgfCLwr8Xl1USNiG/W1QB/lyeK7vxX4u/Yj+IXiB/Ffiz7bNrmoKrzFIplYsB0AHp04o8KeLv2I/h74gTxX4T+2w65p6s8JeKZmDEdCD69Oa4Paw9lf+zp+09na3sI8vtP5r72v0tY6/ZVefl+uR5Oa9/aPm5e3a9jxn4q+OvjprPjDU/gP8Q/Hyy2ZXfcM0CqG2ruAr0+BBF+wFFEGDCO8VMjvifrXGaZ4n+AHxV+I+t/E74wzXlidQcCLTFgkJUL8ud6+o5rc+N/xv+E9t8KLP4MfBjS7m70y7nRncxuv2TEgPcfNmvQqUMRWqYPA0cNKLhOnOdoKME4p875lZN7LtpocdCpCEcRiqtdSi4yjG8ryab00O107/AJBtn/17x/8AoIqxUGnjGn2gPaCMf+Oip6/Vz40KKKKACk68GlooAgOn6eeTp9qfrCv+FJ/Z+nDpp1r/AN+V/wAKsUUAV/7O03/oHWv/AH5X/Cj+ztN/6B1r/wB+V/wqxRQBX/s/Tj1061/78r/hSjT9PHI0+1H0hX/Cp6KAE6cCloooAK88+P3/ACSzVfqn869Drzz42ab4q8QeFX8NeGtC+3fbsGWXzAvk4PHB65oA+dvgB/yVLSfq/wDKvs3+P8a+Vvh58LPij4I8W2PiNvCn2hbZiGj84DIPGa+pd8vkeb5f73Zu2Z/ix0/OgD42+P8A/wAlS1b6p/KvV/g/8H/APifwBp2ta1opnu5y+9/MIzg1xnxD+FnxR8b+Lb7xGvhT7OtywCx+cDgDjNaHh/QP2kPDGlQ6Lo1uYLSDOyPKHGaAPXfC3w20f4fXGv3GkXCx22qW58q1J5j2qc4J615P8A9A0/xPZ+NNF1S38+CdvuZxlgTt/WtvR/DvxsvLs+J/FqPdXOlRslnY7gon8wENkj0qb4HeE/iB4H12/TWvC/lWeqvvkuPNH7nBJ6d6APnzXNI1TwX4nl0+/ga3ubOYNsV+QucgZHtXpPw48U/8Jl8ddO142n2fzlCeXuzjamM5rt/j18INV8Uara614Q0Yz3c+77bJvxnH3etc58IPg/4/8LePtO1rWtFMFpAW8x94OMigDjP2gf8Akqer/VP5V6p8Ofhto/xB8B+FbnV7hZLbTDP5tqDzJuPGSOlUPjb8EvFXiHxVJ4l8Nxfbvt3MsXC+VgYHJ65rn/CfgT9oHwSsyeHLKS2WfG9S6sOPQHpQBH+0P4D8I+CW0lPDFkts1wH85fM3Hjpn0rov2S44mfXXaNCyiPaxHI+hrB1T4K/FfximpeIfEwc6ouzyYSwIm7HHYYFdf8CfB3xC+Huo3lvq3hfFrfqC0/mj92VHAx3zQB5V8f8A/kqWrfVP5V6v8H/g/wCAfE/gDTta1rRTPdzl97+YRnBrjPiJ8LPih428W33iJfCn2dblgFTzgeBwDWh4f0D9pDwxpUOi6NbmC0gzsjyhxmgD13wt8NtH+H1xr9xpFwsdtqlufKtSeY9qnOCeteT/AAD0DT/E9n400XVLfz4J2+5nGWBO39a29G8PfGu8uz4n8Wo93c6VGyWdjuCifeCGyR6VN8DvCnj/AMEa9fprXhjy7TVX3yT+aD5OCT070AfPmuaRqngvxPLp9/A1vc2cwbYr8hc5AyPavSfhz4p/4TL46afrxtPs/nJs8vdnG1MZzXbfHr4Qap4o1W11rwhoxnu59322TzMZI+71rnfhB8IPH3hfx9p2s6zo3kWkBbzH3g4yKAPpg9T9aTrwaU8k0UAQHT9PPJ0+1P1hX/Ck/s/Th0061/78r/hViigCv/Z2m/8AQOtf+/K/4Uf2dpv/AEDrX/vyv+FWKKAK/wDZ+nHrp1r/AN+V/wAKUafp45Gn2o+kK/4VPRQAnTgUtFFABRRRQAVX1H/kG3n/AF7yf+gmrFQagM6fdgd4JB/46aAMCdBL+wFLEWCiS8ZMntmfrXmHwq8dfHTRvGGmfAf4eePliswu+3ZYFYLuXcRXcfBD43/Ce5+FF58GPjPpdzaaZaTuyOI3b7XmQnsPlxWHqfif4AfCr4j6J8Tvg9NeXx09yJdMaCQFg3y53t6DmvyinRxFGpjMDWwspOc6k4XgpQbklyO70T3XbXU+yr1IVI4fFUq6jFRjGVpWkknroX3+L/7Q+lfGg/CLxV8Xl0oRtia/a1QhPlyOKE+L/wC0PqvxoHwi8K/F5dVEjYhv1tUAf5cniu78V+Lv2I/iF4gfxX4s+2za5qCq8xSKZWLAdAB6dOKPCni79iP4e+IE8V+E/tsOuaerPCXimZgxHQg+vTmvP9rD2V/7On7T2drewjy+0/mvva/S1js9lV5+X65Hk5r39o+bl7dr2PGfir46+Oms+MNT+A/xD8fLLZld9wzQKobau4CvSJ0EX/BPV4gwYRzlMjviU81yWl+KP2fvit8S9Z+JPxfnvLKTU3Ag0lIZCwCjGQy8nI5rW+P/AMcfhNa/B1fgn8GNMubuwuTul3RurWZDZ5BGTmu+pRr1quDwFHDSjKE6c52gowTinzu6tfou2mhyUKkIRxGKq11KLjKEbyvJpvTQ6TRLCwb9on4dRNYWxjb7TuQxLtb5e4xzRrdhp6/tE/EWJbC2EafZtqCJdq/L2GOKn0L/AJOM+HH/AG8/+g0a5/ycb8R/+3b/ANBr6e7/ANbrf9OP/bzzGl/YV/8Ap7/7aQaJYaef2ifh1EdPtjG/2nchhXa3y9xjmjW7DTx+0T8RYhp9sI0+zbUEK7V+XsMcVPof/Jxvw4/7ef8A0GjXP+TjfiP/ANu3/oNF3/rdb/px/wC3isv7Bv8A9Pf/AG00f7P049dOtf8Avyv+FKNP08cjT7UfSFf8Knor7E8ATpwKWiigAoop6wTuNyQSMD3CkijcaTewyipPs11/z6zf98Gj7Ndf8+s3/fBp2Y+SXYjoqT7Ndf8APrN/3waYyujbXQq3oRg0WaE4tboSipPs10f+Xab/AL4NH2a6/wCfWb/vg0WY+SXYjoqT7Ndf8+s3/fBo+zXX/PrN/wB8GizDkl2I6Kk+zXX/AD6zf98Gj7Ndf8+s3/fBosw5JdiOjJHQ09oJ0G54JFHqVIFNVWc7UUsT2AyaVhNNOzQmT6mipPs11/z6zf8AfBo+zXQ/5dpv++DTsx8kuxHk+pqK8leKzuJUYho4nZT6EA4qZVdm2ohZvQDJpLixup7aa3+zzDzY2TOw8ZGKLNiUW9kfPfgX4l+M9X8S2Fvc+Jpb2O4+1fabb7NtWDYDs+bv0pPAnxO8Yaz4nsrOfxS98s32r7Xai3wLfYDsy3vivZPB3gFvCnhkaB5RuJR5v+k/Z8N8+fbPGa5/wj8GJ/BzI+mXbhpxKL9jbkm43Z24P8OM0WY+SXY474b+PNe17UA2p+OpZbg/aP8AiWizIU7c7f3nTtR8PPHuvaxqiprfjuU3bfaMaU9mVztB24f8K6/wd8K/FXg2dF/4SYS6bG0jCBrIA5fP8eM8E1FZfCnxFP4otPEGs+Kkv/sazLDDHaBCA4I6jrjNFmLladmjlfhv4817XdQD6p47lknP2j/iXfYyF+XOP3nTtVcfGLxVB4Aa51PdbajcXXl2F4F3C4USYYEdFwK7bwh8JvFfhWT7N/wkZuNM/e/6N9hAb58/x4zxmrTfCGZvh4PArXMhZbjz1ujbklfn3YH8qLMfJLsYPiq7+IEfjjw7pemeMfstpr0Yfy/JB8raoLc981jeJ/HPiGw8falo1/46l0WxtGhWAfYzIsxIG75u3Nen6n4DutR8R+Hdf8yZP7BjZPL8o/vcrjr2rB8c/CvxZ4yvZlPiI22mTSI/2X7ECw2nP38Zosw5Jdjvbdy9vE/mb90and/e460/J9TRb2N1BbwwfZ5j5UapnYecDFSfZrr/AJ9Zv++DRZhyS7EeT60ZJ6mpPs11/wA+s3/fBo+zXX/PrN/3waLMOSXYjyR0NGSepqT7Ndf8+s3/AHwaRoLhF3PBIq+pQgUWYckl0GUU5IpZM+XE7467VzinfZrr/n1m/wC+DRZgoyeyI6Kk+zXX/PrN/wB8Gj7Ndf8APrN/3waLMOSXYjoqT7Ndf8+s3/fBo+zXX/PrN/3waLMOSXYjoqT7Ndf8+s3/AHwaPs11/wA+s3/fBosw5JdiOipPs11/z6zf98Gj7Ndf8+s3/fBosw5JdiOipPs11/z6zf8AfBo+zXX/AD6zf98GizDkl2I6TrwakaCdBueCRQO5UgUylsJprcgOn6eeTp9qfrCv+FJ/Z+nDpp1r/wB+V/wqxRQI5/RLDTz+0T8Oojp9sY3+07kMK7W+XuMc0a3YaeP2ifiLENPthGn2baghXavy9hjip9D/AOTjfhx/28/+g0a5/wAnG/Ef/t2/9Br467/1ut/04/8Abz37L+wb/wDT3/20g0Sw09v2ifh1E1hbGN/tO5DEu1vl7jHNGt2Fgv7RPxFiWwthGv2bagiXavy9hjip9D/5ON+HH/bz/wCg0a7/AMnGfEf/ALdv/QaG3/rdb/px/wC3jt/whX/6e/8AtoaF/wAnGfDn/t6/9Bq/8Rvh98aNM+M3i/xf4W+Hn9taXrAiMU32kR4CLzwa88+Itz4is/iX4Ln8Kaz/AGVqY8/ybvyw/l8c8Gr2h/Er9ovXvE2u+F2+LnljSQgMn2Nf3gcenauXNMNmP+sCxOWSp8/srNT5tua99Fbe3X5DwWMwP9nvCYxS+PmTjbtbqSfDXXPFOsftHeA08TeFv7GaBrlYx5ofzPl5+mK6LXP+TjfiP/27f+g1zvw10PxTo/7R3gN/E3in+2Wna5aM+UE8v5efrmui1z/k434j/wDbt/6DRhPrP+tEfrduf6vry3t/E6X1Cdv7D93b2v8A7abNFFFfdnzwUscbyusUSFnY4AAySaT6V698LPBdjHYxeJL1fMuJM+UjLjy/X61x43HUcBT9rWva6Wiu9T2MjyetneLWGpOy3b7LuUvC3wjDrb6hr8vDAl7XH5c1uap4q8H+CrOTSbCCKae2xtt8Zzn/AGqu/ETxRHoOiyRW14sV9MMQgcn3+leDSSPK7SysWdjkknJJrXLcxxNWCm4qKt03b0ad79NrbXvc+5znMMHwg1gcqpr2rXvTerV/10vbby1PTU+MdozKG8NRAEgE5HA/KvSNKuNM1exiv7S3jMUoyMxgGvAPCejDX9ftdLM/k+Y27fjPTmvotUisrYAsqRQpyeg4FGO4q+p1Y4arJcz1u00l21it3K2mt/I9jgnNMwzSNWtjpJwVkvdS166q3luUtWutK0awl1K+hiSGIZJ8sfhXiX9taJrXjQ6vrFsIbBskxjpkDjp61r/EX4gnWmfRtKb/AEJTiR/+ep/piuAVS7KijliAPrXTQzDFYimpYhJa3t+V/wDJWXkfMcX8TQxmMhQwiUqdNp7aSkvzXTz1PbfCHjI+Kb5rW08NxJbQfK82Qdo7cV2htLb/AJ9ov++BXNfDnwyPD+hxvcWvlXlwN03zZz6VqeK9dHhzQ59UEayNGPlQtgkmvno8aVoY32FC0/eS3WvxXV+bSzWll+CsfouUV6uGyxYjNJXlbmeiVlvaySeiWvmX/Jsd/leVb7/7uFz+VO+yW3T7LF/3wK8T8Ea3fax4/tr/AFG7YtKWzlsLjHAx0r3PGSAK6sdxZiMuqrD1bXkubqox1ve97tdGltppYrIc8o57RnXhT5UpNK9tlZ3/AOBqcH4v+IGkeGL0afBpsV1Ov+tXaBs9K1fB+sv4ns21CfQorSBv9U3Db/WvKfiUgk8c3cQ43si59M17L4T0U6DoFppvn+bsXdvxjOea68VxRWpUKU5TUHUWl0nbTy6+n3dDwsjzPH5nneIp1XajTbVko73sk9L7JvR7nI/FvV7XT9JXSY7OIve9XXAKYrhfBWs6H4fS71XUbUXF7Dj7LGehz1p3xOZz4yvVLMQAuATwOK5Q9K7aOOnXUK77adbLpvu/PufA5/ndZ55PEwir024xTSaVrq/rfVX2Z9G+GNRtvEeiwav/AGdFD52fk2g4xWhdWtsLab/Rov8AVt/APSsD4YAnwXYn/e/nXS3jItnOzMFAjbJJwOlfPz40nh8R9Wn7yi7Py6LW95PRO19btNWaZ+zZbX+sZdSq1bOUoJt2W7R4T4T1nQvD8+o6rqFqLi9hkP2WM9DknNeweGNRtvEeiwav/Z0UPnZ+TaDjFfO1zzczn/po3869w+FFxeyeGYoZ7Hy7ePPlS7s+Zzzx2r2Mdnc8rwvtFaya0tu7/wCKOvlfXY/OOBM1qPFvASS5FFuyW8r7t+mmrtsjrWtrRFLtbRAKCSdg6Vxtv8SPCUmpXFnOkUUUTBIpfLz5h7/Su3lj8yF4zxvUrn0yK+b/ABVpC6Hr1zpy3AnCNu3j35riyjiqrmlarGT6LT77tWemrt0enW1z6fi/OsXksKVbCRi43alf00W9+/zR9A3uj6Rrdgba4tYZbeYAnaAMj6ivO9c+HWr6JrUOreDYFdQf9U2CIx+PXNZvw7+IcmkSR6PrEpazY7Y5DyY/8a9nRldQ6cqRkGsc14lrYCp/tFO7ez22a2d7Xd2kmr7auw8PLKuMcLGuly1Y21VlOLW2vZ9P8zM0tZrjTUn1HSYbe52ndFgHn61wurfE6TRb6Swv/CSRyxnuRgjt2ra8e+LL7wpfaZcQo0ltIWE6Y6jtz2rN16y0H4npFJpesxwyWYJcFMFiRwMmujD8S4idOFaaag7662T1TutXvtra1mkic4x1apGWDyytbEU7LlajeaaTurq2m+nnpsHhj4k2viLWoNI/sCKHzs/PwcY/Cu/+yWv/AD7Rf98CvCvC0TeE/HUEOtAxGBirYG7r0PFe9qysA6HgjI+lY5xxRicBKLh73NHs+V6q2q236WfW7SsacH5liMwwtRY53qxk1ayTWi3SWmtzhPF/jWTwlerBP4aikgk/1UuQN/rxWXpXxQbWb+LTrHwrE80p4G4DjvVH4y2l8t/ZSS3nmwzkiGHbjyz9e9S+F9I0PwGkOs+KbkR6hMpaCIcmPj29a7sPxNUrUI4yLvz7RXk3pqt1s3Y8Gvmeazzqph6dXkoQacnJQXLF2626/ZW/fqejahdaTpVmLzUo4IU4BygJye1WltrR0WRbeIqwBHyDoa8F8UeML7xVrEUjkx2scqiKLPTnqfWvfrUYtISf+ea/yrPMuKK+VxpOdldvS17+8nbVu2l9rpem31OScQ0c7xNeFGK9nDlSdtZXvd+mmhz/AIu8RaX4TsRcTWMcsz/6uMRj5vx7V5D4l8d6nr5mgSOO3s5cfuQgyMe9er/FARDwde7tm/5ducZ69q8CHSry7Pq2b0JS2Sfmr3Sb313drXtp02Xw3HuZ4yji/qdOdqbinZK2907vd+m3kd54c8ZaB4S0SD7Npa3d9cZ+1bv4cdOteo+GNRtfEeiwasNOih87PybQcYr5yPQ1798L/wDkS7E5/vfzqsxz2plFJV4x5tkldpfhffW/39Dp4FzjE4vFPBzt7OENIpLdNK97X11b82dG9rbqjMLSIkAkDYOa821T4pf2RfS6feeF4RLEcHDKRivS7xkS0md3CgRtyTjtXzFduz3c7O5YmRuSc9658o4lrZzBzTs1vo11ukvTZ99nsevxvneIyqFH6lLlcr30T2t0afc9KT4x2hdQ3hqIAkAnI4H5V011478N/wBiXWr6XFBdNaBS8W0Kea8K9quQ6XqMllcXqRMkEGPN3Hb16cd69eWYYmM1U9pbpbSz/wCD6fO58Zg+Ns3SnGVp3T+yrx0eqsrabu6ex6D/AMLktf8AoWIvzH+FH/C5LX/oWIvzFeZUholi68kk5PR3+f8Al5bHD/rlnP8Az9/8lj/kfRnhjUbbxFosGr/2fFD52fk2g4xWnLb2scTyfZYvkUtjYOwrk/hRbXsfhiK4nvfNgkz5UW3Hl888966+8KraTs7KqiNuScdq8PEcYThVdNzV4tL53Stbq2nrdpbWtbX9rynEvFZbSxFZWk4pu9t7b6aa7nlsnxhtY5Xj/wCEZiOxivUc4P0rqfBHiuDxgLljokdsLfGCVBDZ/CvFrLSrzW9ZbTbCPfNLK2BnHGeTXqq+JtD+Hug/2FHdrd6lbLyirjJPv7V34vPq1KqqMHzTnZNJbR110tbrZ3WvU/POHeIcfXryxOY1ksPC97xiru2kVonfrp28zS+IWreHdJ0aS01G0imkuBiOFQASfqOleFMQWJUYBOQPQVb1bVr7W76TUNQmMksh/AD0qnXROtUrWdXf+v60sr62PkeJc9/t3F+1jBRhHSOmtvN/p0CiiioPnTG0P/k434cf9vP/AKDXO/ErXPFOj/tHePE8M+Fv7ZadrZZB5oTy/l4+ua6LQ/8Ak434cf8Abz/6DXO/ErQ/FOsftHePH8M+Kf7GaBrZpD5QfzPl4+mK+Exn1j/Wh/VLc/1fTmvb+J1tqfRR5f7C97b2v/tp2Pw5+H3xo1P4zeEPF/in4ef2LpejiUyzfaRJkOvHAqhrv/JxnxG/7df/AEGuZ1z4lftF6D4m0Lwuvxc8wasHAk+xr+7CD071R+HVz4ivPiX40n8V6z/aupnyPOu/LCeZxxwKMrwuY/2+8TmcqfP7KyUObbmTvqrfj8hY3GYH+zlhMGpfHzXlbtboHxFtvEV58S/BcHhTRv7V1M+f5Np5gTzOOeTV7Q/hr+0XoPibXfFDfCPzBqwQmP7Yv7sIPXvXTaF/ycZ8Of8At6/9Bq/8RviD8aNT+M3i/wAIeFviH/Yul6OIhFD9mEmQ688mjNMTmP8ArAsNlkafP7K7c+bbmtbR23t0+YYLB4H+z3i8Y5fHypRt2v1OO+GuueKdY/aO8Bp4m8Lf2M0DXKxjzQ/mfLz9MV0Wuf8AJxvxH/7dv/Qa534a6H4p0f8AaO8Bv4m8U/2y07XLRnygnl/Lz9c10Wuf8nG/Ef8A7dv/AEGjCfWf9aI/W7c/1fXlvb+J0vqE7f2H7u3tf/bTZooor7s+eNfwnov/AAkGv2ul+d5XmNu3Yz05r6PhhFvEkKBcIoUYGOleSfBbSrK7vbzUZot1xabfJbP3c9a9f4z71+R8ZZy5Zk8IldQja3m+V6215XeO3Zqz3P1/gTCrDYGWIaTdR/gtEn877Hi3xes5V1qKZdMePzvuyhi3m/QdsVwX2a6/59Zv++DXpHxO1y803xRbXFrqXmPanKwNFxED15PXNbXh74q+HdR3R6xZQ2LLtVDsDbyev0r6TA5tj8HlNGvHD+0Vvsyba1stGm301V1a7Wlr/K4/A4HMc2rxrV/ZS5tLpNPTunb79fmc34Yt9N8HaND4tvLeW6v7jP2WAIRtxwazPE3jzxP4haeBYp7eymx+4CHjHvXuiHTp1QL9mcMMqo2n8hTza2oHNtD/AN+xXy644pQrRr4nDc1STaTbeivoo6NOzSu16+S+qqcO13hYYPDYj2dO1mox+J2s23e7v2va1tD5d+y3X/PrN/3wadbRS/bIYzE+7zF+Xac9fSvp6SC1jheX7JD8ilv9WOwrxHTb2fxV8R1urDZp8kjkD5QwUL1496+pyfjFZvCvV9jyU6SblLmvqtlouq1ur2ttsfH5nwzTyupRh7Xmc5Wty29Xvbqup7far/osHH/LNf5VwnxT8M674iWxGjWxlWLd5g3YFegKrKqqxyQACcdTTZZ4oFLzSogUE/M2OK/K8u4nxGCxirUrT3td6Wu1bVp3emrs0ru29/1LMaMMywssJWbUJW1Ts9H5+iPDtF+Hfiux1OC6vdBM8KMCyCXafrmvcIVxGi7dvygbc9Pas7RvFGieIHmi0m/ErwHDgjH5etawByK7eIuK8ViqipYqCjJJ6e8muqun30s1r6X04MjwWCymlL6jPnjPq2nt5pL+u1zxTxFon9v/ABUk0vz/ACd7K2/GcYGa9lhi8qNIt2dihfyry7GfjX/n+7Xq+DuNdfEmf16FLCU5SunRhKzS3fVOz16+Vl6HHwzONKpi632pVJX+W35s+ffifn/hNb7P+z/KuUPSvQvjD4few1ldaEzSC+6qF4THvXnp6V+s8O4uljsroVqLTXKlporrR2v5n5fntOdLMq6mrXk38nqvwPoD4YZ/4Qqx/wCBfzrV8UjS/wCwro6wXNtt+bZnOe3Ssz4XkDwVY477v510l2itaTK6BgY2yCMjpX4vmWcPDZvVSulGo2krRcrS1s2nZXj0ervprp+xZfV58ppU+9Nb7P3fy766ny5Lt82TZ9zcdv0zxXuPwmguk8MxzTX6zQvnyoQBmLnmvELri5nx/wA9G/nXunwm020tfC0N/CjCa6z5pLZBweOO1fo/H+YSwGURqwdm5R6X87bq22+vbqfnHBcp08zco9Ivq11XRb+j9Trp0Z4JUTlmRgv1xXzPrthfaZq1zZ6ihWdXJIJycE8V9PY9DXz98Uf+R1vv+A/yr53w6zueMxdTCtKzjfzXLZdkrO/TrfufQ8ectfCUqz3jKy+a/wCAvxOVVijB16qQR9a99+HHiI6/oMa3Fw0t5AMTfLge1eAHpX0D8Lo0HguyZVUMd2SByea+l4/xVLCZWpVFq5JJ9nvd6N206a9jxOBK9Slj5wjK0XHVd7NW+7vqN+KCI3gy9dlBYbcHHI5rwOGaaBg8MroQQflOOa9/+KIH/CFXxP8As/zr59HSs/D3FrG5VKWuk2rPpotv69NBcdVefMaclo+RfmzqPDGs6ne+MrXU5oUvbpvlKuQoIxjv6V9AoSVVmXacDI9K+cPB39mf8JFaf2xv+y7vm2Zznt0r6RjCmNPL+5tGPp2r5/xDzCGCxNGjyaOL11Stf4U13V01bS6dz3+BsXN4ar7SV7yu7vXVa9L6+b+6x4/8Zbm//tCySWz8qGEloJt2fMP07V5/qWqX2r3JvNQnMspAGT0wK7b4wjWxrafbv+PD/l0/rXn9fd8Lz9vlNCtJqTa3Xm/wf8y73PiuJMTUq5lXvJ2bW+l7Kydlp6eQ+Bgk8TnorqT9M19M6LfW+qaXb3toxaNkABK46D0r5ntsfaoM/wDPRf519RWiKtpAqKFXy14AwOlfH+JeP+pwoQileXNq+yS026u3lprofR8A1Z05V+Vq3u3/ABPOvjPb28un2s8l68UkWfLiCkiT6ntXj1e2fGLV/seiJpn2Lzftv/LbH+rxXiVfRcD4uWMyeFVw5VeVtb6X37+t9b3Z4/Gc6dTNJShvZX33+e+ltrfeB6V9A/C8D/hCrEY67v518/HpX0F8LxnwVYcf3v515/iNV9llcLtq8+jtqoya6rqv8tTp4Gly5hP/AAP80b2qaXa6xYy6feqTFKMHBx9K82f4G5ZmGu4BJIHl9BXqU5ZIJXQ4KozD6gV5H4O8f+JNR8WR2Gp6krWm6TeCAOBXw/DuYZziKVerldSKp00nJPf7W100n+CXKm3Y+wz+eV1sTQhjqfM56Radra9Xdaa+djp9O+FvhXTbBP7TiFxNB8zzltoOOelef/EjxVp+u3kVjpEIS2s8qJF4En1FbXxO8e2uqW0Wm+H9SLwuWFyoGOnTmvMq/ROFsHjq9NZhmcnzu/LF392+900tb7dErWPkeIs2wtKDyzLYRjDTmkre9bVK/W3VvXp3uUhpyqznailj6AZpp719n5HxJ7t8KNQtLnwtDYQuxnts+YCpAGTxz3rp9Z0621PS7i0u0Z4mQkgEg8CsL4Xoi+C7Jtqgndkgcnmt7Wre8udKuYbC7+yzFCRLtzgY5GK/CM1zpUs2rODty1Lat20cU7NJPS12le3aSen7zlldrJ6aqLm9xad1Zaa+W/8Alt83WmoXejak93p0vlyxM6K3XA6VVkkeaRpZXLOxJJJySaWcMs8qs2WDsCfU560yv3SMY/HbVo/Cp1JNezv7qbdugUUUVZmFFFFAGNof/Jxvw4/7ef8A0Gud+JWueKdH/aO8eJ4Z8Lf2y07WyyDzQnl/Lx9c10Wh/wDJxvw4/wC3n/0Gud+JWh+KdY/aO8eP4Z8U/wBjNA1s0h8oP5ny8fTFfCYz6x/rQ/qluf6vpzXt/E621Poo8v8AYXvbe1/9tI9c+Gv7ReveJtC8UL8I/LGkhyI/ti/vA49e1Ufh1beIrP4l+NIPFejf2VqY8jzrTzA/l8ccivQ/hz8QfjRpnxm8IeEPFPxD/trS9YEolh+zCPAReORVDXf+TjPiN/26/wDoNGV4rMf7feGzONPn9ldOHNtzJW1dvw+Ysbg8D/ZyxeDcvj5bSt2v0DQv+TjPhx/28/8AoNGuf8nG/Ef/ALdv/QaNC/5OM+HH/bz/AOg0a5/ycb8R/wDt2/8AQa6X/wAld/3L/wDt4n/yIf8AuL/7aGh/8nG/Dj/t5/8AQaNc/wCTjfiP/wBu3/oNGh/8nG/Dj/t5/wDQaNc/5ON+I/8A27f+g0P/AJK7/uX/APbwf/Ih/wC4v/tps0UUV9kfPnoHwd137Brb6P8AZ9/9ofx5+5ivbcDOK+X9G1S70bUoNRspfLliYfNjOB3r6T0bU7TWdMg1Kyl8yKVR8+MZPevwLxVyyeExsMxpq0Kis2r/ABLa/RXVrW3aP0HhfM/9leGcrOLdttnt36+W7RleMPBen+LrPypsQ3Kf6ucDlfX614t4u8E6n4UvhA6vPA/+qmVfvevHavovHemSwQzoY5okcEEfMoNfOcN8e47h2aot+0oa+49LeaerWq22121udmc5VhsyqOonabtrbto79+23WJ8xadreqaReJfWN7Ik0WdpZiQPwNe6fDrxSPEuiL9qu/Pv4P+Pj5cYz0pzfDDwU7FzpPLEknea1dC8LaJ4b83+xrTyPPxv+bOcV7nGXGGR8QYK1GlKNaLTUrR6PVNpt2td27o4sqy7HZVV551Vya3Sbfztp2+5PqT65b3l1pNzDYXn2WYoSJNucDHPFeHfDUMPHtsrHLB5AT6mve7rH2SfJ/wCWTfyrwX4b/wDJQbf/AK6Sf1pcBYpyyLNopaRhdaa6wlu+u3f8zDOcRF4zD1IXdpdevwvfbyv2tc9+NeV/HGWWP+yxHK6Z352tjNerEeleUfHNWdtKWNSxO/gDJr5nw4r+14kw6nt7/wD6S9/x/pBneaxqYaVCcved9L66SW6v0u/LVb2OT+FrMPGtkAzAHdkA9eK+gtpzxXz58Lf+R3sf+Bfyr3bVda0zRbWS81G6SOKP73OSPwr6bxUoYnFZ/Ro4aN26cdle/vPp37d+h8vT4tp8P4Nw3ne6j/Ne1rd3dJaJtc13bc8X8dale6H8SJ9TtHMLoyYcrxjvXs+janaa1pkGpWUvmRSqPmxjJ714/wDEXxxoPiQvZ2mmiUxY8i8BweevHeuh+E3jTTjp8Xhe7xBNFnymJ4k9fpXfxTkONxnDeExv1dxr0IxjNaNuCW+mrs9bPVXY8p4ong608TXg4wnK79L3Tet0n1vquulz0DV9GsdcsJNP1CESRyDv1Brz6x+DGmafefbtU1QT2ce5niI28fWu113xfoPh5UOo3yKZAfLCndkj6V5F4z+KF94mtf7Ps4DZ25JEmGyZB2+leLwTlfFdaLo4Oo6WHn8UradU+W+t7LeNrO1zycbxPXzypF4WmvdduZrSyUfVSV048sbp6vmVz2Dwx/YQ0eJPDrKbJCQig8g55rTkTzYpIs43qVz9RXzt4N8Z3/hK/EkbNJayECaInqPWve9M17SdV06PU7W8jMLruyWwRjrxXmcY8G5hkeM9spOpTm7xm7tp72l56b/avfc9yPF8MswtsddyjyqL0tLZf3UrNarqndXtp4xrvw2vdH1G4m1C7WLSwWf7WcZyeQNv1r034YKo8F2QVsgFwD6jNeafFDxla+Jr6Oy04Mbe0JAkBOJD9K9I+Gksdr4HsTcuItockOdpxn3r7DjJZviOFsLPMG/bSnHRK1rRla611el9kuy1PIyrPllTnmGLfs1LRRTW179Um72u1a9tLN6PrsdyOBXknxF0XQNO1mTxLqV+l21yMR2K/wARAx94dMVX8bfFe+lvjZeGbjyreLKvLjPmf4V5vLNNOxeaV3JJPzMTya7eBOBsyy+Sx+KqunzKzgt3F9G/svRO6d+l0GOzjM88dqrUKDUbRV+a6vdp6NXv1u7fysa5DMxRcAkkD0HpX0F8MEZfBVjvVlPzcEYPWvC9D0q+1jU7ez0+3MshcHHbAPNfRt9q2m+HtJ+0308cSW8YDKMZzjpitvFfG1KlHDZVhY81Scuay1emiVrP4r7vt93fluc0skc68p2lZK2nM7vpf0fdvomS6tpNnrenTabfx74JRgjPfsa8J8U6LoHhY3OlRXI1G9kPDjgW49PetbxF8YNZ1HbHo6fYUXcrn73mD+lcBJI8sjSyuWdySSTkk13cBcJ5tksJSzCq4wk7+zTvqtrv0te2/Xz8zG4/MM7rwrYr3IRWy+KT/vO7sl0Sbv1erOn+GCK/jSxV0DD5uCM9q+hMDOMcelfPvwt/5Hew/wCBfyr2vX/FmheGto1S8EbyAlFAySR2r5DxTwuLx+e0sNhIOUnTVklfrLp09T2MPxPTyfCPDWvOUr212drtJXbcbdE2m1eyOD+N8E87aSkMTuSWHyqTXluoafdaXdNZ3iBZVAJAOetdv4k+LeqaqUj0u3S0VNysWAfePx6VwbNNcSljvkkcknqSa/TuCMtzHKMqpYPHRUeTm63bvJteSsul38rHjTx2KzGu8TXgoJ9L3d/ySXTe6ttsLbf8fUH/AF1X+dfUtt/x6wj/AKZr/KvEPBfww1HxFANUupmsoFYNESuS+Dzx2r3KKPy4kjznYoXPrgV+X+LGc4PHYmjhsLNTlS5lK2tm3Gyv30ei67nvZHm+Gy6c1iJcqfV/3bSbv2S6/DeyZxXxZsb258MyT21xtihx5kIj3GTJ7HtXhkdtcSOIkt5C5IGNpyM+tfVLRq64dAw7hhkVQj0fRtOuLrVBaxRyXABmdgMYH8q4OD/EL/V7APL3QdSXM+W1k7tq6el+75n5IjiDMMvqReKhWvaHNqnyvXpLVXb2Vrta6s8d0b4ejS4Z9Z8b4tbOGPKRk5MpI4r0j4ZlT4NtPL+5vfb9M8V5r8TPF0PizUYdO0lHeK2YorqT+8J9vavU/h/pd5pHhSzsb+Hy50BLL6A9K9XjqpjZ5DSxWbTtXqzi1T2UIxUrWV76trmk+rSZz8L4+Pt/bYj3Ode5GVr33Wv8zSv2S0tuzcuv+PWf/rk38q+W7h2S7nKOVPmPyDjvX1Q6B1ZGHDAgj2Ncs3wu8FOzSNpR3MST856mvA4B4xwXC6rvGwlJVOW3Kk9rt7tdH5/5+pnOY4PMZ04QrxTjffpeSVrpO2t0lfo0trv56yOuau6Xo2p61dx2Wm2jyyy528YB/Gvd/wDhVvgn/oEH/vs1HrmueHfhvpEdvaWsZkGfIgH3j689RX6QvEyOZtYbJ8NOVaTsueyS03dm3p1vZb6o+JxWbYeh7lH95N7Rj1+bsrbPS7s1K1tTktJ8K2/gPQLnxNrcEdxqKLtS2LjMeePxry6V/MkeXGN7FsemTWt4p8RS+JdYn1Qo8KTY/dbyQMVjnpX2uQ5fisLCWJx8+atVs5dFHTSCV2rRd9t+t2a4SlVbeIr6SlbT+VLaPm029et+1j6D+F3/ACJNj/wL+ddNcj/RZ/8Ark38q5n4XA/8IRYHt83866e6GbWcf9Mm/lX8ycQ4lrPMTG6SVSX/AKV/w33+R+zYDHyWCpw5kkorXtZL7+iaXey2Plq6/wCPqf8A66t/Oo6kuf8Aj6n/AOurfzqOv63p/AvRH5RLdhRRRViCiiigDG0P/k434cf9vP8A6DRrn/JxvxH/AO3b/wBBo0P/AJON+HH/AG8/+g0a5/ycb8R/+3b/ANBr41/8ld/3L/8At59A/wDkQ/8AcX/20ND/AOTjfhx/28/+g0a7/wAnGfEf/t2/9Bo0P/k434cf9vP/AKDRrv8AycZ8R/8At2/9Bof/ACV3/cv/AO3g/wDkQ/8AcX/20NC/5OM+HH/bz/6DRrn/ACcb8R/+3b/0Gm6K6J+0X8OWkdVUfaeWOB92l1p0f9ov4jNG6sp+zcqcj7tD/wCSu/7gf+3g3/wg2/6e/wDtouh/8nG/Dj/t5/8AQaNc/wCTjfiP/wBu3/oNGh/8nG/Dj/t5/wDQaNc/5ON+I/8A27f+g0P/AJK7/uX/APbwf/Ih/wC4v/tps0UUV9kfPhXbeAfH19ot7aadqOo+VpEW7cu3OK4mivMzbKcLneFlhMZFSi79E2na11dOzV9GaUasqE1OG6PqHS9Z0vWrVL3TrtJYpc7OcE/hV3HtXy7pes6lot3He6bdPFLF93nIH4V2mhfGLW7Dzv7Yi/tDfjZzt2V+G5p4Q47DzlLL6qnDonpLtbonZW1ur9u/p4zifGYeinhaPtJdnLl6JaaWa0u030W+t/bgMijoM15M/wAc2ZWVdBwSCAfM6Gtj4U+KdZ8SvqLatdeasJBjGMbQa+VzLw+zbLMBVzDHWjGFvdune7tZWvfW29vmcWH4ozKviF9cpctCO7uru9m2ldpJNa3bfXV6Pvbrm0n4/wCWTfyryf4O6RaXWralqdzbsZ7WQ+Q54AyTmvW3VXRo2HDAgj2riNU8Z+E/A1pNpemKj3Nuc/Z1/iJOT81VwnDG1MtxeVYOnJzruCur2UU3e+u0rpPZWe/Q8bOeLacq/wBUwFN1JLbl3TdleV7qNvNXvdNJWO1mnhgUtNKiKBn5iBXj3jj4kaffXjRaXZCSa0ylveE8DPDfKa5fxd421PxXfCd3eC3j/wBVCrfd9eR1rna/XOEPDqhkyjicb71S23RX3u1vdaNbb3ueXh8rxGMrfXc0leTXwJvlW71197d76atbWOh03VrPw/ZrqlhN52sTkkPjH2bnn65rK1TWdT1q7kvdSu3lllxu5wD+FU6Tpya/RaWBo0qrrtXm/tPe3Zdku3z31Pap4SnTqOq1eT6ve3Zdl5fqLSqzI25GKsO4ODTEdJF3xurqe6nIp1dh0jnklkx5srvjpuYnFNoopJJaISSWiCnrPOi7UnkVfQOQKZRQ0nuDSe5c0iKzm1CIX939mhB3tJtzyOQPxrU8VeML/wAR3SbXaC0txshiQ4AHTPHrXP0VyzwVKriI4moryirK/S+7Xm9vy6nPPCU6ldV5q7irLyvu15v+uoUUUV1nSdp4R8XWPgmwa4t0F9dXwIkQjaYCOhz3rmdX1rUdbvZb6/uXd5jkjPGO3FUaK83D5ThcNiamNjG9We8nvbovJJWWm9le7OSng6VOs8Q9ZvS77dEuy9PnqFFFFekdZ0Gl6pY+HLGPUdOl83V5c7Wxj7N/jmsrVdW1DW7x7/U7gzTP1J6flVSiuOlgaNKq8Q1eb+097dl2S7fN63ZzU8LTp1HWes31e9uy7Ly/UKs6bqV3pN4l/YuqTR52kqCPyNVqK6pwjVi4TV09Gu5vOEakXGSumdSvxP8AGiLtTU1VR0AjAFL/AMLR8bf9BYf98CuVoryv7Ayrf6tD/wABX+Rw/wBk4B/8uY/+Ao6r/haPjb/oLD/vgVW1Lx/4r1ezewvtSLwyfeAXBP41z1FXTyPLKU1Uhh4JrVNRV/yKjlmCg040oprbRFnTdSu9IvEv7Fwk0edrFc10X/C0fG3/AEFh/wB8CuUqNp4FLBp4lKfey4G36+lbYrLMFjZKeJpRm1pdpP8AM0rYHDYmXPWpqT80mdd/wtHxt/0FR/3wKP8AhaPjb/oLD/vgVynXkUtc39gZV/0DQ/8AAV/kY/2TgP8AnzH/AMBR1f8AwtHxt/0Fh/3wK5/VdW1DW7x7/UrgzTP1J6flVSiujDZXgsFP2mGoxhLa6ik/wNaGBwuGlz0acYvukkFIelLSHpXejrPoP4Xf8iRYf8C/nXUXX/HpP/1yb+Vcx8Lf+RIsOP73863tY1XTdHsZLzVLgRW4G1ieuD6Cv48zzD4jFcQ4mlQjzP2stFr9p6euum2t0etieKsPluFpwfxaWTTV2rrzb16xTave1rM+ZZYZp7yZYYnkJmYfKpPereseHdV0JYW1KFIxOMptcNn8q6LXPFum6TfTQ+BoEt4JcmWZhu83PselcdLNNOxaaV3JJPzMTX9XYKtjMUoVZQ9nTttL43p16Rt/29fyPmsPWxOKaquPJB9H8T9ekfx+QyioZLyziYpNeQRsOqtIAR+FOiuLefP2e4ilx12OGx+Veqd5JRRRQBjaH/ycb8OP+3n/ANBo1z/k434j/wDbt/6DRof/ACcb8OP+3n/0GjXP+TjfiP8A9u3/AKDXxr/5K7/uX/8Abz6B/wDIh/7i/wDtoaH/AMnG/Dj/ALef/QaNd/5OM+I//bt/6DSaK6J+0X8OWkdVUfaeWOB92k1t0f8AaL+IzRurKfs3KnI+7Q/+Su/7gf8At4N/8INv+nv/ALacd8QoPEtx8TPBUXhHSTqeqnz/ACbUS+WX45+btWhofw2/aP0fxVrniZ/hKZ21ny8xm9XMe0Y6966HRXRP2i/hyzuEX/ScknA+7Wj8QfiN8ZtT+NHi3wr4Q+Iw0fS9FMPkxi3WQHcvPNc2a4nMf7fWHyyNPn9ldynzbc1raPvbp8x4LCYH+z3isY5W5+W0bdr9Rfh58O/jTqHxp8JeLPFfw8/sXTNFM3nS/aRJncuBwKz9c/5OM+I3/bt/6DXOa58Sf2j9H8VaH4ZT4tGdtZ8zEgslzHtGeneqHw8n8S3HxN8ay+LtWOp6qRB510YvLL8cfL2oyrDZj/b7xOZyp8/srJQ5tuZO+q736/IMbi8D/ZywuDUrc/NeVu1uh6XRRRX3Z88FFFFABRRRQAV6/wDBrT7nS7C91LUEWC3ugDEztgsB14Nef+D7Cymvzqesxq2mWXzT5bBz/Dx35p3izxjfeJL0GMtb2cHywQocBR+HXNfKcQYWtn8ZZRR0g7Oc+1ndRSvrJ2TfRL1PBzSNfMnLL6FlFr3pNXt2SX83XyWvY6rxt8Vr6W+Nl4auPKt4sq8uM+Z/hXmskjyyNLK5Z3OSSckmkor1soyXB5JQVDCQSsrN9X6v+rdD0MDl9DAQ5aS1e8nvJ92+oUU0yRqwRpFDN91ScE/QUO6xo0jnCopY/QV6p3HP+LT4ns/s2s+H38+Ozybiwxj7Qp77u2BzViy8RaV4h0Ca/wBOulIlgkGxjtcMFORtPPBqPwz448N+L5ru30G8aeSyO2dWjKlc/WuJ+J3wz1ae6/4TH4f3DWusxArJAp+ScMMHjoMCgDY+CLySfDuzeR2dvPn5Y5P3zXeVxvwi0bU9A8B2OmaxGqXiPI0iqwYZLZ6iuyoAaJI2ZkWRCy/eUMCR9RTqoWeh6dYaneavbROt1f7fPYuSDjpgdqv0AFFFFABRRRQAUUUUAFFFFABRRRQAUUUUAFFFFABRRXGeINf1HXdVl8F+E5vLuIsDUbzH/Hop6DHfcOKACw8Qat4i8eXmlWNx9l0/QdvngDct5vHGD2xXZ1naDoOneHNOj03TYdqJyzE5ZmPUk9etZ3j+PxNN4Vu4fCBxqchVIzxwpOGPPtQBx/xE+JepnVI/Anw8X7Trs7ASTJytt369DxTvE3gHWI/At8qXzX3iHUZIHurkyeWH2sDgDoMCt74b/DfTvAenFmb7Vql0N91dvyzN1wM9MVY+J15aWHg+4ur7TJb+ESxAwRsVYksMHI54oA6SzRo7K2jf7yQorfUAZqaorQhrO3dUKq0SEKewwOKloAKKKKACrmkaRfa5fR6dp8JklkOPYDuSaqKFLKGbaCQCfQV2Vv4u0/wrp1xpXhuASXUygNqJ6n1AB6V52Y4jE0afJg4c1SW19Irzk+y7LV9Dix1avThy4aHNN7dl5t+XbdnbxeLdD+HWgLoH2wX1/ZjJiAwCT1Ga828YeM9Q8XXglmzFbJ/q4AeF9frXPySSSyNLK5Z3OSxOSTSV5GT8J4HKa8sa1z15tuU33e9lsle/nq9TnwmVwoyjWrydSor+8+l97LZdu9rK9kFQ3kjxWVxNGcPHC7KfQgHFTVDeRvLZXEMYy8kLqo9SQcV9QeqfO0txper2Ojavr3h+XWtZ12WcSSi8MKqsbY6A46V12hvovh3xZ4Xi8CtPBpuviUXqSszF2QdPm6YNcoNP8JWNpo2h+PdRubK90KW4aW1jgdtxkJKncv4Guo8OynxZ4p8L3ei376pDoHnfbbloDCEVx8g2nrQB7IeCaKDyTRQBjaH/AMnGfDn/ALef/Qa0PiH8O/jTp/xp8W+LPCnw8/trTNaMPky/aRHjauDwa89+Ic/iW3+JvgqXwjqx0zVQJ/JuhF5hTjn5e9X9D+JP7R+seKtc8Mv8WjA2jeXmQ2S5k3DPTtXwma4bMf8AWBYnLJU+f2Vmp823Ne+i726/I+iwWLwP9nvC4xStz81427W6hrnw2/aP1jxVofiZPhKYG0bzMRi9XMm4Y69qz/h7B4lt/iZ41i8XaSdM1UeR51qZfMKccfN3r0L4ffEb4zaZ8aPCXhXxf8RhrGl60ZvOjNusYG1eOaztadH/AGi/iMyOHX/RsEHI+7RlWJzH+33h8zhT5/ZXUoc23Na2r9enzFjcJgf7PWKwbl8fLaVu1+hx3xCg8S3HxM8FReEdJOp6qfP8m1Evll+Ofm7VoaH8Nv2j9H8Va54mf4SmdtZ8vMZvVzHtGOveuj0L/k4z4c/9vX/oNaHxD+Inxp1D40+LfCfhT4h/2LpmimHyYvswkzuXJ5NGa4nMf9YFhssjT5/ZXbnzbc1raPvbp8x4LCYH+z3isY5W5+W0bdr9RPh98OfjNqfxo8JeKvF/w5Gj6Xopm86Q3CyA7l44rP1pET9ov4jLGgQf6NgAYH3a53XPiT+0fo/irQ/DKfFoztrPmYkFkuY9oz071Q+Hk/iW4+JvjWXxdqx1PVSIPOujF5Zfjj5e1GVYbMf7feIzOdPn9lZRhzbc176r16/IWNxeB/s9YXBqXx815W7W6HVv478MxeIz4VlvXTUB1VoyE6Z+90rcint58/Z7iKXb12OGx+VUNc8OaN4jsZdP1aySSKbG9l+Vzj/aHNcofhdLociN8Ptel0NXI+1rJmbzgOn3ulfdnzx31FNQMsaiR9zKoDN6nHJpiXdnK/lxXkDv/dWQE/lQBLRRRQAoZgpUMQrdQDwaSmu6RrvkdUUd2OBS9eRQAtFFRzyGG3lnC7vLjZ8euBnFAHI+J7XTZfH3he4utZa2uovO8i1AOLjI5yfauyPU5H4V49pPxS8MeMfGHhxLzRGh1VHnQPKxQWuOO/DZr2E+vrQB53448H+I9Pe58S/DKZLTVLllN3bqgxdAHj2XAqzp/wATNNuI28NeIwdL8RPbSB7VvughDyH6c13dcT8UPhvpPjzR5GlP2bULWNngukHzLgZI465xigCL4IySS/DuzeWRpGM8/wAzNk/fPeu7rgfgXBJa/DXT7eVWVo5JVO4YJwx55rvsHrQA1pIkYI8qKzdAWAJ+lCSRyLvikV19VORVDUNA0zU7+11K8idrizV1hIcgAMMHI71Jo2jWGgWCabpkbJbozMoZixyTk8mgC2JI2ZkWRCy/eUMCR9RTqoWeh6dYaneavbROt1f7fPYuSDjpgdqv0AUNcvNTsNOe50jTPt90rKFg37dwJ5OfaswePfDa6+nha4uni1Mgbo2jIRSRnG/pXRVkeJdB0rWtIu4NQs0ceWZd6ja+5RkfMOeooA18HsM1C93ZxP5c15BG46q8gBH4V5F4HsPij4w8Ow67B8RfscbyPGkP2YNtVGwOfwrpY/g7oGpqLvxhPPququf310srRB/T5QcCgDUl8d2s3iU+HtGSC8+zKTfSmYKIDjKAf3s+1beh3mp3+nJdavpv2C5ZmDQb92ADwc+4rxzwr8LfB958QvFmlPaTiHTxCbXE7ZRiM5JzzzXRS+Jtc8G6zY6d4x1uSKxtyVinWAv/AGgD0Bx9zbxQB6cJI2ZkWRCy/eUMCR9RTqzdN0nSIb261/TwWm1MK0sgk3KwA4wOgrSoAa0kSMEeVFZugLAE/ShJI5F3xSK6+qnIqhqGgaZqd/a6leRO1xZq6wkOQAGGDkd6dpWk6d4c0z7Bp8bR20O6TDMWIzyeTQBfpryRxrvlkVF9WOBXK2/xBsdesbyXwZay6pd2TqrwOpi6nBIJ9K3NV0iy8Q6Z/Z2rQsYZdjuiuVIYc4yPegDQXkgivOvBH/JVfHH0t/5V6JEixqkSD5UAUfQV534I/wCSq+N/pb/+g0Aei0Vn63rul+HbE6jq1z5UIYLwMsSTjgdTVlryE2L38DrLGsRlUqcggDNAFPxD4i0rwvpkmq6vcrDEmAoJ5ZjwAB9a8/1pvG8lh/wl+s+Lk8Paa8if6A1uJgik4XnvmpdB0Kw+LtmPFnitWms2lZbGxDFRblGwSSPvZIzW98UfD+o6/wCB5tF0S286fzIfLjzj5VYd/oKAMfxK3xU0rxDY6x4YYa3pE0YMthxHt+Xg7vfrU3hP4rSat4nn8H+KNDbRdVXHkRFt4l4ycHpxXe2UckNlbxOpDRworD0IAzXn3jWOMfFfwS6xqGbz9zAcnjuaAPRqKVgcnjvTHdI13yOqKOpY4FADqKTryKWgAooqF7uziYpLeQRsOqtIAR+FAE1FQfb9P/6CFr/39X/GgX+nk4GoWxP/AF1X/GgBZLOzlYvNZwSMerNGCT+NOit7eDP2e3iiz12IFz+VSUYJ6CgAoo6de1Rxz282RBcRSbeuxw2PrigDJ0VEf9ov4cq6B1/0nIIyPu1ofEH4c/GbTPjR4t8VeEPhyNY0vWjD5MguFjA2rzxXn3xDn8S2/wATfBUvhHVjpmqgT+TdCLzCnHPy96v6H8Sf2j9Y8Va54Zf4tGBtG8vMhslzJuGenavhM1w2Y/2+sRlkqfP7KzjPm25r30Xe3X5H0OCxeB/s94XGKVufmvG3a3UNc+G37R+seKtD8TJ8JTA2jeZiMXq5k3DHXtWf8PYPEtv8TPGsXi7STpmqjyPOtTL5hTjj5u9eh/Dz4ifGnT/jT4S8J+K/iH/bWma0ZvOi+zCPG1cjkVn67/ycZ8Rv+3X/ANBoyrE5j/b7w2Zxp8/srpw5tuZK2r736fMMbhMD/ZyxWDcrc/LaVu1+gaF/ycZ8OP8At5/9Bo1z/k434j/9u3/oNGhf8nGfDj/t5/8AQaNc/wCTjfiP/wBu3/oNdL/5K7/uX/8AbxP/AJEP/cX/ANtE0VEf9ov4crIisp+08MMj7tGtIiftF/EZY0VVH2bhRgfdpdD/AOTjfhx/28/+g03xA6x/tE/EmVjhUW2Y/QLQ/wDkrv8AuB/7eDX/AAg3/wCnv/tpt0Vwv/C6vh75/wBnOo3O/fs/49XxnOPSuzgvrG5CfZ7yCQuAyqsgJI+lfZHz5K6LIjRuMq6lT9DXmOs/BWK21K313wHrU+i3tsHdtzNKJWPsTivUMEdRRQB4/pnxS8YeC5LDSPijoMkaztJu1NPn3AdDtXpXpmgeJtD8T6fFqeiahHPBOSE5AY46/L1q/cWtteIYrq3jmVgV+dQ2AeuM18hePX1H4d/FK+TwMbi2SyYNEibnVCw546UAe7fHfxFptj4VGgm8ZdSv54jbxRZLsFcZ6civRbDP9n2m7OfIjzn/AHRXyf8ADr4ladF49bxB8SoHubqU/Ldyg4t8D+5719R6B4m0LxPp8Wp6JqEU8E2RHyAxx/s9aANSk68GlooA5zxL8PvCvitoJtU01fPtcmCSI+WUY9+OtchrmueOfhTp76rq9x/wkumsVVnwIvsi5wP97ivUq4H46Osfw2vpHPypNCzfQOM0AbXhL4g+F/GvmR6Ff+ZNAqmWJ1KMpI6AHrW9eu0VlcyJwyQuwz6gGvKm8Baf4y/s34i/DnXf7KvBBh5Ujys7hcYK9Kn0r4g654X0GbTvizayWt28cq290il/tPB6hfu9qAKHgn4s63qWh29rpumQaxqME8i34MqwCBd+FIB4PFdBB4imn+JCacPGjGJgCdLW2ygO3JHm9K+XdJ8KeKta0/XPF+hWk8ulaPMr30kUhUqrt8vA5Oa1/wDhc3iPTXW08NBdP05AFWBlEjgY+b5zzzzWcKsJuUYtNrR+T31+RUoSik5LfY+mdd+IN94a1aR9X0WOLw7GQDqizhifog5PPFYs/jm0t9dsvE0njqU6FqDEQactmSxxxyeo59a8IPiHRfG4eDWPE0nh/T9NHmWFoVM2+Q8tk+59a0/Anj3XtF1HUfE+qLcXzfIqWX2ElLpRwCDjCYHPFW5KO7Ek3sfQWpfEnTvD+ryWPiK3a0tZApsp0BkM+euQPu49627tLy6vdP1ay12ODTYlLXERwVnBHHzdsV8/+FfiZY3fjvVvEfim5fR7W9RVGmzwFxNxgBSR8vPpWgPFMmhzTeEvHGjtZ+FtZ3PZLDc+a9vjndleTk4NCaeqEex+KfEHiDSRaS+HfD8WrQTHE0v2gIsQz69DWRq3i+wv/EcOhWXiB4ZoraU3VmsBdJiUJx5nQYryDQrnVNSvrD4feCdbuPGWmTCWWbTtpgKquW5k60un/EzTfD9jLc6XqPlmLzIB4eMHmOpOVP77qfWpVWDm6aa5lq11s9vvsynCSiptaM2/A/xD8VeDfAUNx/whf2nR4ruRPtvngZ3SY+7XvVtL58EM+Meaivj0yM187+HfEFh4p+EkHgHSDLLrtxdeatv5ZC48zcfm6dK+hrKN4rS2hkGHjiRWHoQBmrJPP/BH/JVfG/0t/wD0GvQJ7W2u0MV1bxyqwK/OoOAeuM9K898GSRxfFPxw8sixqPs+WY4A49a9GikjlAkikV1J4ZTkH8aAPHdK8R+K/C3jDXvCnhfw62q6PppR1jabBtg3LHJ5PevUtB17TvEenR6lps29G4ZSMMrDqCOo5ri/BGf+Fq+OPTFv/Kk12RfC3xN0QaSfs8OurK+ooPuyCNcjA7fhQB2t7e6rBqtjaWmlefZz7vtNzvx5GOnHfNaJx0615/c/FcamWfwJpB1uG2Yi9kd/JWEA9ifvd63fD3xA8L+JY520+/2taLunWZTHg9wM9fwoA3ljtLQF0jgtwfvMAEB+pp7yRRp5ksqIg/iZgB+deba/44s/GkP9heFtBk12HzB9rVpDbtHg8Fc8t+FdN4ztEv8AwlPYDSTqRVI/Ms0m2MFHXkcjAoA0tb1S7sNKfUNItYr+VWULH5oVWBPJ3dOK868PeILDRfHfjnW76T9yi22fL+f5yvC8e/FQS6/4f1Lw9D4M8GeHZdU05CBexzXLQNAc9mbluc9Km+FOi6Ro/jrxfpWmQqbONbchGfzQCRk8nrg0Ab9hoOpeIDP4u8WxFJEgkNhYE5FspU8n+9kc89K5j4P+LpbnwvDoNlp8l8lsbo6jM7EeQuSVAz97PtXWa74ivfEOpy+DPCFyqyxYXUb1cEWinoMd9w4q3eJ4U+Gng24Rmjs7OOJ1LfxO7A8+pyTQBzHw+8Qab4f8HXPiq6u1stEmmdbPTzyYX3EHB6ncfyrN8cah8ULLw5N45g8RDSI3kRU0zyw+xWbAO73BzXKeBPhzrviuHw1fatLJe+HBPcSPakeX5HzEqT/eyea9Q+NyLH8NrqJBhUmt1UegDjFAFW28IfFV7eK8/wCFmh90ay+X9kHzZGduf0rB1vSvip428VaJd/2MPDn9leYv2/zBLnIxu2+9evaf/wAg60/694//AEEVYyfWgDitD8K/EKw1FbnV/iD9vtgrBofswXJI4OfY1w/xci8eBPDngiy1dr+51OZ3nZQIzIqsCB7YFe21xniix0qf4geFby71b7PeQed9mttmfPyOee2KALV3rXivTbC+Ft4V+0/2dBF9m/fAfafl+b6YrnND+PfhC801J9eS5029yyy23kO2zB9cV3d/ZarcatZXdrqvkWcG77TbbM+fnpz2xT9RsNP/ALPu2/s+2z5Ehz5S/wB0+1AHN6N8X/AWvXiWem6q7u4LBmiZUwBk/MeK+XPjB4pg13x/qepaFqc0lnIyhGVyoyBg8V9C/Cnw1oniP4WW+m6rYpJDNcTByo2ucOf4hzXzn8YdA0rwx4+1HRtFt/ItINuxM5xketAHJ/2jqH/P/cf9/W/xp0eq6lG6yJf3AZSGH71uo/GqtSW0X2i4igzjzHVM+mTigD6W+GPxh+IXiHRFs7Pwa2sz2SgS3RlEYYdq7L/i6njD08HfZ/pP9oz/ACxW98N/CieC/CFhoiTrOyJ5jTBNpbdzg/SumyT1NAHG3vhbx3c6VY2MXjvyriHcLuf7OP8ASFPbHbitTwv4J0HwgJ20aGVJLoDz2eUtuYdxnpW9RQBi6KiP+0X8OVkRWU/aeGGR92jWkRP2i/iMsaKqj7NwowPu0uh/8nG/Dj/t5/8AQaNc/wCTjfiP/wBu3/oNfGv/AJK7/uB/7efQNf8ACDf/AKe/+2hof/Jxvw4/7ef/AEGjXf8Ak4z4j/8Abt/6DRof/Jxvw4/7ef8A0GjXf+TjPiP/ANu3/oND/wCSu/7l/wD28H/yIf8AuL/7aGhf8nGfDj/t5/8AQaNc/wCTjfiP/wBu3/oNGhf8nGfDj/t5/wDQaNc/5ON+I/8A27f+g0P/AJK7/uX/APbwf/Ih/wC4v/toaH/ycb8OP+3n/wBBo10Z/aM+I4P/AE7f+g0aH/ycb8OP+3n/ANBo1z/k434j/wDbt/6DQ/8Akrv+5f8A9vB/8iH/ALi/+2mg+m6bIjI+n22HBB/dLnn8K4uf4Q6FYlr/AMIzz6VqwbdFdNI0gTPX5ScV3tFfZHz557GvxS8JSKsjjxet0QGbiH7N7++a1NV+Kfg/QtSOjatdzw3qBRIiwMwVj2yBiuuyR0NQTWNjch/PsoJC4KszRgkg+9AC299Y3OzyLyCQuAyqsgLEfSvPfBsEE3xV8befbxSbfs+N6Bsce9W5vhDoVgW1DwjPPpWrht0N00rSBCevyk4rJ07TdZ+FusXvifxLqDazbavt+33yx7Tb7fu/KOuaAL3jv4H+EfGi3V3FbLZapclf9KXouP8AZHFee/D/AOG7+HPEHifTbbX2j1DQFjktbwkhBkZYbM456V7N4b+IHhTxUZv7I1HP2fG/z1MXX03YzXk/iEm48ReNxauZA99pq5hOcjeuelJuyuB6vrPjC28N/BvQviNq0Mw1jxE8kWm6QIyXuDG21mz29av+HdR1LVNKhutZ0wadfON0loX3NGD0z9RV79qQax4L8XQeJNL1OAx6BFp66JbeSpSy81UEvHRt2aofGXSNa0nxXdeN/CSmS8uLKKW/sgcLdHyxhh2XHXivnssxuLdaFLFK/tYymne/Kk0lH4VpaS1et7np4mjQlRdajpytR2te6eu71022NSvPPj9/ySzVfqn86wvAfxU8XP4fg1jxh4fb+yhI6zaorbiPmwBsHPHSmfFPx74W8bfDTWrTw7qPnTwvErRupRss3HBr6I8w6D4A/wDJLNK+r/zrvri0tbxDFdW8cysCvzoGwD1xmuQ+Duh6n4c+HmmaVq9v5NygZ2TOcAnI/Su0HUfWgDz/AOB2ufDfwL8T/Gfwu1+3jh0zxF5SQo5yoIGT+prc8R/8E89E1fUbzWPD/j+Ozs5AZo7ZYN+wYzjOa+W/jxPNbfFjU54JGjkjaNlZTgggV6B4E/bJ8Z+DNE/s1rVryd08uad5Pvr0Ax24r8/z/JM5o4yWY5FVtKpZSi7W00T102Xqe/l+YYP2aoZhS5oxvZrRq+ttN9T2/wCCv7DngiONNf8AGeqrrcUrlY7XaY8FT196+r9I8H+GNC0+HS9O0GxS3gG1FaBWIH1Ir5q8I6n41+NHwt0LxR8LPGSaBr2k+e09gFEhlZjxnNeifAbWfjWdJ1iw+NENtHqNmhNpKZ03TnnGVB+Xt1r8qz95ljvaV8biU505WdNuzjrbRWSa2u43PtskeFw6hClRa5lfnWqel3d9NdLGn8VP2bvhj8UYXudY0aG21DaVhuo/kEZPfA4NfOPh39hrVY/F2owaf8UDHJpQAjkltvMBVx0wfau50/RP2q/iH4hvm8TeKIvC3hdZxJF5flzKyKc/eHsK4L4sfteXvw8+JGs6L4VtUvYFSKGW6Eg/fELgn2r2sl/1gwzeAyvEqpLlu0mpKG3WStfV6Js8zM55bOUcVicO4q9tdHLR30T721O+0j4b/DL9kjwfqfiPXdag1TWbuGRI7gDazMwI4A6da+E5vF1vZXUOo6Bp62uoxyztLdMd4mDk4+U8DANXvib8VNe+JWqfar+aWO0jJMNsXLBM9frXFRo0sixoMs5Cj6mv1LhnJsTl0amKx9Rzr1bOXZW2S9L9ND5DMcdTxXLToQUKcb2W++7b6n2V8BIoJPhppl21vF5zvIxk2Ddkt616KOo+tcT8GtGv9A+HemaZqcapcIGYqrBhgnI5Fdi15ZRPsmvII2HVWkANfUnmHmGiaHp3iP4h+PNI1aJpLWb7NvVXKk4HqK0rCWT4eeLtM8HWsjXGla1vNpCxybTaMnk8tmovAskcvxT8bvFIsikW+GU5HT1p3jf/AJKr4I+lx/6DQAupeEPFXh7xXqfjnwzefbzflBJpG0KZsDA+btXl/wAbfH2sQatoLy2k2ha/YCRLq3kQnyFfjOT1yK+9PgD8N7H4lHV9KvLW2tDE0cia5Pcqg08ryPkJ+fdiqn7aX7M3w5+IOk+HvHXiH4k2+lWmhK8PifxKLLHmZwsO2IY3dMcVhUxVClVhQnNKc78qb1dt7LrbqS5RTUW9WfnlL4808WNh8PrHxB9m0eFjPeaikWGuXPzBSOo54pmp/GPTNZ1GaTWvDIurWBFSwjil8rySBjcdv3s4zzWB478H+C9J+JJ8JfD7xr/wk2iSXEMFvq32cw+bvIBOw8jBNfZPxQ8NfsU/snWvhr4YeMPh03xK8ZeWk3iC9+1yWgtVlCumFHB+Vu3pW5R8sP8AFm6h02x1T+1lm1vcVgaOLyxp65xyBxJketXtC8T+NLjxNq2q6P46aSxlWP7ZfmHOWI+UCP68cV9dftYfsn/swa7+zJB+0r+zTexaZp2lxhrq0V2la5LsF2tuOUKnP1r4k+Eq+WNQvfK8nyto+3bt3kZ4x5f8W7pntQB2t/aanr2ntbeNNT8y6gYGWe3Xy/sYJ+UYX/Wb+PpW78KtE1Ge/wDGOjaJIdCuHjgVH3+eUBHJz3yPyzVrRfB/iDWdH1TXtGssWnhrZ9t8thK+m+b935RzL5n/AI7mrPwWgOjeKfFyX+nNpXlJC7wyybioxnOT69cUX6Adv8Ofhzp/w/sJUS4a6v7o7ru7YnMvORx2xXN6v8PdY8fePpb7xRdiTw1prKbG3RvlmJHOSPQ1pzXfiv4gzPN4Y1ZtG0eElEuWj3G9HRhg8riuv0bSLDwzo6afZB1t7dWdizFjnqx5/GgCzIbbTLB2jSOKG2iJVeFXgcCvG/GPjTWvGnwq1bU7zw22n26XMS2rM+TORJjp2rc8Zxat8U4dItPBmsiPQbiRv7RnX7ylG4BHXqKvfGe3S0+GE9tGFCxSWyfKMA4YDNAEOn/EPxZpdrbXXi3wQ2maRFEglvFm8wqMDB2jk5qxJ8d/hlCQJtZmjz0327Ln8xXb2SJLplpHKiyKbePKsMg/KO1Yfib4ceDfGJg/t7Ropfs+RH5fyYz16UAaXh/xHo3inTY9X0O8W4tpc7WHB49R2ri/HTxx/FTwQ8siIo8/ljgdKp/CvRNO8NePvGGg6PG8NjbeR5URcsFyMnGa7PxT4F8O+MWt5tbtWkmswfs8iuVMbHvxQB0JBJyBkGq+oA/2dd8H/j3k/wDQTXBHwP8AFFTth+KGyNeEX7IDhewpkngX4pyxvE/xSBWRSrD7IOQetAFv4G/8k7sv+vif/wBDNfN/x/8A+Spat9U/lX1Z4C8Kt4L8NW3h5737W0DszTbcbixz0r5T+P8A/wAlS1b6p/KgDzurGnf8hC1/67J/6EKr1Y07/kIWv/XZP/QhQB+gNh/yD7T/AK4R/wDoIqeoLD/kH2n/AFwj/wDQRU9ABRRRQBjaH/ycb8OP+3n/ANBo1z/k434j/wDbt/6DRof/ACcb8OP+3n/0GjXP+TjfiP8A9u3/AKDXxr/5K7/uX/8Abz6B/wDIh/7i/wDtoaH/AMnG/Dj/ALef/QaNd/5OM+I//bt/6DRof/Jxvw4/7ef/AEGjXf8Ak4z4j/8Abt/6DQ/+Su/7l/8A28H/AMiH/uL/AO2hoX/Jxnw4/wC3n/0Gud+JWueKdH/aO8eJ4Z8Lf2y07WyyDzQnl/Lx9c10Whf8nGfDj/t5/wDQa534laH4p1j9o7x4/hnxT/YzQNbNIfKD+Z8vH0xXNjPrH+tD+qW5/q+nNe38TrbUqPL/AGF723tf/bTsfhz8PvjRqfxm8IeL/FPw8/sXS9HEplm+0iTIdeOBVDXP+TjPiN/27f8AoNczrnxK/aL0HxNoXhdfi55g1YOBJ9jX92EHp3qj8OrnxFefEvxpP4r1n+1dTIg8678sJ5nHHAoyvC5j/b7xOZyp8/srJQ5tuZO+qt+PyFjcZgf7OWEwal8fNeVu1uh6bRRRX3Z88FFFFABTXjjlUxyxq6nqrDIP4U6igDnPE3w+8L+LY401Sw2tCrCJoGMWCe529a86+D3htvBXiXxrogu/tr2MaSRyyLnJwSvB644r2gdR9a8e0zxp4e8JfFjxdHrtxLEbwwLEEiL5OO+OlG+4HrfhjStY+NfhjwBr3iyzivbAy3Z8VTyTiMv5Tf6OCp5XGBWn431WLWLjUbyCDyIhbtFGmc4VVwOfoK5z4X6RYeINP+M9pqNrI+np/Z8iOJzEsGeRgA8Zq5dqqaTcIh+VbV1HOeAtfMZPl1Sljq1arO6h7kFZpRi7Tta9uqjotoo9bG4uE8NClTjbm96Tund7evd2fc4v4JIkvw3s0ljV0NxPlWGQfnPY1H42+C3hbxZ9pvrWP+z9VuGRvtSE7QV6fIODXmnw78a/EDwP4WudVuPDjan4cFwwgkVwDDlyGOBya9o8LfETwn4wEq6Rqa+bbqpmjlHllSe3PWvpzyTBg8TeLPA6pYeLdOa90izASTW16sMcfuxz7VveHfiP4O8UfajpGrK32IbphKPLKj6GujdElTZLGsiH+FhkGvPPH/wa8L+JrTUdTtEbT9UmTebmJiB8o6bRxQB80/GTXdM8R/ELU9V0e4861kZQr4xkgYNcUAScAZJqS4hMNzLb5LFJGTPrg4r6I/Z+/Zy1rVfsXxK8aeG3uPDkbhobZ22NdNnA46gA4rzs0zTD5Rh3iMTKy6Lq32XmdGGw1TFT5IL1dtl3djT/AGONb1fwRqOs6/cabeSRWkSusLqyK/B9eK9t0/4ufD3xJrOl+ItV8B6lb6h4zS6Go/v5cW/kAhQF6fNjtXr2qQ+Jbu3tYl8AWlrpUMYM0Csi+aoHy5I9KhSbX/EN/pHiLTPAFultp29Ej+Ub88elfguY55QzPFVMZUo2c1bSpa1otJO295Wl8j7jDYOpgofVoTco3TSdNu+qu16LT7zx0/G/R1+G2h+AvCng2/sY9f8AtqlJJJGe08snnJ5O6vhDV9N1cahcyXNheZMr/NJE2Tye5Ffqjql9reuah9n0/wABWtpq2lkGOT5QEDdQBjByKzvHunXXiS3ttE1L4dWltfXCFYJ12AdPmzgd69XIuLaOS1Junh/4jvK9S73bvrvo0vlc5czy6eOTqSqN8iSj7jSfS3k7/wBdvywitrifd5MEkm3721ScfXFaE/hrWrbTbTWGs2a2vN3lNH8x+XrkDp+NfV/jb4UQ/DBLmbS7keHe18rW/n/aN3QDPTr2rj9O0K/t2/s7SrZfCb38Ejx5Au0vQFJJHaP/AOvX7PluZYfNcPHE4aV4v8PJnxtWlOjNwmrNHe/AR5JPhfpTSuztucEscn71c/Y+CtB8a/FPxdH4hhuJ0tPI8lVmZAuRz0qT4ZeNvD3gr4b6SviG6ljaeacIY4i+4hzk8dKns/C2q+Jdav8Axz4B8ffYINYKiSJrbLDbxyDyK7zM53w9o+r+DvHvi1/BEbS2mlrE0mmu2TcAr/fPTHWpdN+INp8RPH/g29t7OW3ubVrhbqHaSsRxgfN0NV/D+sa34J8a+MY/EMjatC0SJe6kq4MZKHb8g656V3XwPtoR8PbG4a0RZWmmYO0eHwXOOvNAHcapp02t6fNo0M9ypuWHlpDO0e+UH5MkH+9ivStcun+M3gjwT+w78SA0PxVvIrl9QvgTjTAg8yAMo4k3pge2a4jRv+Q1p3/X5D/6GK2dY1LXNK/4K0W174d0T+1r5YIAtt5mzcptQGOT6Dms3RpyqKq4rmSaT6pO11fzsvuFZXv1PKPhp/wS4/aOPxFsk8daPB4c8P2dw07arLcxlf3Z3RjGf4yAPxrx/wDbk1Pxfq/7SPiKXxr4U/4R/V4o7a2exEwlwscYVH3DruAB/Gv36+J3gLSvih8P7/wr4hspZI7qETLDFM0bCdBuT5l54cCvy/8ACP7ONt+0n8V9Yi+P9xbeEfHHw1uY5dfu5rhX/tq3PNuAucLsjVRx1rQZyV1/wqz4S/8ABM1bC/N1pvjT4mjKQTGQ/avs8/UKeEAX86+av2XfhN44+J/iOTSfCnh65Mki+YdVZT5NtCoJkOD8rfKDX7BWnwx+Df7Z8Sr41+E32nwT4VUW3hfWPNa3+28bZv3QwVAZe/WvavDPwg+Hvwb+F154O+Hvhy20zTbHT7ryVVQzjcjE5c8mgD4U/Zz8B/AH9m/QPE3x/wBE8VDx1oErxQXe6NlGmyg7GDRnO/LZwSOK+YfinL4Y+L3xs+JT+DrmPStO1RrKa3EbZxtAJAHvV/8AZovpof2ef2kt2rPaRpfWoRzGZVXM7cBe2ema8y+CnhvTZfHevajc6W1pc2CxNBGLguF3Dkk989cdq8yjgKscU8XWquWjSjaKUU2tnbmvor3lZvWy0tlGm1Lnk7/1957jaW6WlrDaxqoWJFT5RgHAxnFLcKGt5VKbw0bDbnG7jpWD4o8e+GfCEkNvrN9suLoEQRIpdmYdiB0rL0fx3qN3fjRPFXh7+ybjUI2/s6PzN/2oY55H3eK9M1OT+CFt9h8XeL7JNN/s6ON4ytqJvMVM55B6c9a6X44/8k5vP+viD/0MVz3wX06403xl4vhn0WXTPmjIgdy+OvO49a6H44/8k5vP+viD/wBDFAHa6f8A8g60/wCveP8A9BFWB1FctrmueJtF0/TG8P8Ahn+1o3t0Nw3mhPKUKOfeswfF7QtSKaf4Yt59R1d2CraNE0YJ/i+YjHHNAEHgqORfin42donVW8jaxUgHjsa9DriPCOvapqPj7xRpN6yCCxWAxRhQChYZIJ78129ADRJGzMiyIWX7yhgSPqKdVCz0PTrDU7zV7aJ1ur/b57FyQcdMDtV+gAHUfWvjj47Wt1e/FjVbaytpbiVim2OJC7H5ewHNfop8D/gR4m+NWuNaWG+y0u3/AOPq/KZEZI4wP4s+1fXvwp/YT+B/w58RWHxAvfD0Wr+MbPdv1SbJWQkYz5Z+XpxQB+cv/BP7/gnbJ8Ybm3+J3xqsGtPCHzfY9OmPlyal1DejKFODXrH7fP8AwT5+Cnw0+Eo+MHwfhXQl8OzR/a7VZDOt7vkVR8xPy7a/Rnxz4Ytbe2s/EOheExqWp6RujsrOGbyECycSHAwOhJr5I/4KCWFnbfsu+JPDHgrW5tOtPDc9rJq+mSRs/mtNKGAEjehJ6UAfJunnOnWZ9beP/wBBFWKr6d/yDbP/AK94/wD0EVYoAKKKKAMbQ/8Ak4z4c/8Abz/6DV/4jfD740aZ8ZvF/i/wt8PP7a0vWBEYpvtIjwEXng1558RbnxFZ/EvwXP4U1n+ytTAn8m78sP5fHPBq9ofxK/aL17xNrvhdvi55Y0kIDJ9jX94HHp2r4TNMNmP+sCxOWSp8/srNT5tua99Fbe3X5H0OCxmB/s94TGKXx8ycbdrdST4a654p1j9o7wGnibwt/YzQNcrGPND+Z8vP0xXRa7/ycZ8R/wDt2/8AQaxfhL4T8aJ+0z4AtNY8S/27cXbXLQjyhHs+Xmui8W6fd6V+0v8AEqxvo/Lmj+y7lznHy1WEp4v/AFmjUxaXN7Czcb8t+fpfyInVpf2N7OL19pe3W3LuV9C/5OM+HH/bz/6DXO/ErXPFOj/tHePE8M+Fv7ZadrZZB5oTy/l4+ua6LQv+TjPhx/28/wDoNc78StD8U6x+0d48fwz4p/sZoGtmkPlB/M+Xj6YqcZ9Y/wBaH9Utz/V9Oa9v4nW2ppHl/sL3tva/+2keufDX9ovXvE2heKF+EfljSQ5Ef2xf3gcevaqPw6tvEVn8S/GkHivRv7K1MCDzrTzA/l8ccivQ/hz8QfjRpnxm8IeEPFPxD/trS9YEolh+zCPAReORVDXP+TjfiN/27f8AoNGV4rMf7feGzONPn9ldOHNtzJW1dvw+Ysbg8D/ZyxeDcvj5bSt2v0NmiuM8QeKPiBp2qzWeieAf7RtEx5dx9pC7/wAKqJ8YdA0xPsfjCCfStVT/AF1qsTSBPT5gMGvuz5476iuQ0b4seB9e1CPTNO1KXz5c7fNhZF49SeBXUf2hp3/QRtf+/wAv+NAE9FNjdJVDxOsinoynIP407BHUUAA6j615r4Qtorn4peOFeGJn2wBGdA207evNelDqPrXnfgf/AJKt43/7d/5UAdv+z9oF7deGvjjout6cviqdptN3wGcWolG7g7u20fnWz8dYtH+HUWmtpUEsllfWxjv0CEjT2KYRQf48k4yK880D4u/D34ap8XNC8dWk17deIJtOOnWCs0X2kowyRIOmOteqeKPHt149stOSaKAabawp9lgAV9gKjgt/F+NfL0sNjlnsq0bqjyu+ujdo20u7vfWy9Xsel7Sh/Z/s3b2nMraa2s7629OvyPnHwl421X4Z2Gm+FPG/hR4NNuZJZUvR+9BUncMoPrWz4j8C/Dzx/pF14r8P36adqFwPNS6EnlHKc4MfHpXqkkFvPgT28UoXpvQNj6Zrktd+EvgnxDeT6jfafKLmdcExzMig4wDtHFfUHmnnXw68bfGU6VPqlz4f/wCEg08gpby+Yse0JkE+/Suz0X4u6Drng3Udb1WKXTZbSNorqBkJ8tmyFAPfJrBI8V/Ajw6UhT/hItI34RM+X9lLNwP9rOaofEb4jaHc+Cn0nVtO/srWXuLeaa0SHKqgcNkuBg8Um7K41q7En7OX7J958S538d+LbxdM0cTmWzjlwGuvmPUHlccV9kap4Xv9HtLbUbjx1bRxaWgjt0jhXauRgDaOvavJtV+P37POq2mnQ6fq95EzwRJc3cFtII4CqgEbQMc1q/8AC8P2UzGqTa3fuABuLQTYJ9a/n7PZ57nmJ9vXoVFFXtFU2+Vf5vv19D9AwdLA4WnKjSlC6t7zqNXe60Xb+melx+HvGPiPRVj1zxtDbiY7jCAvAB+U5BpPEEfi7wzojX9v45gmELIixLGo4Jx2rxr/AIaA/Zkutex/wlNzaafaf7Mh+05H6YrXb4/fsiuNr+J52HoySGvEeSZlGSvh5tb29mdccRRnCXLUipbczqu7t127nqzeEvEN7c2mry+PoBcQruRgijG4c59azNR07xLqWpt4c13xrCkU5BtJVRcykcnkfdxXk2u/H/8AZiha3vtH8VXMqwHEtptkHnA989sVqj4/fsjSBJJPEs4cAHlJCVPoDTWS5nFKTw9Ty/d7BKvh6jcFOK1V/wB7K0l/Xz+R6P4l+F914qtlg1zxja3awxlEUxrzxjBrxO48KWvguwvPDa2yJ9kimKZfzCNwJ4atbWfjp+zfiDU9B17UbqKA4lt0hmKyg993bFHiX4xfswanoF5DpuvXltfzW7BJWtZWIbb05H4V9Bw7VzvIq6nChUlB6OPI0vw++55WaYXCY+7pzhGa6+0vzaea+W/6Hjvw78YeFPCnw60v/hJj/r7i48r/AEcy9HOe3Fbnw3ikv/FXiLxXZRsNF1QxfYWI2htvDYXtzS/BKC0ufhzYs8MU6efOUMiA8Fzg89K9AijjiAjijVFB4VRgD8K/e07q58Qec+DI45fin44jljV0P2fKsMg8eleipHHEoSKNUUdFUYA/CvPPBHPxV8cY/wCnf+Vei47UwLGmzR2+p2VzM2I4bmKRz6KGBJr6A8EfBy21f9rjXP21dX8UW2m+CtFtIDprsyk3+INkgIzlNpHfrXyJr/jzULbVZtH8KaD/AGzcWAB1FfM2fZ1PIPvxXnvx6+MPiFvBVhoXhTxFcxaPrgYXtqrFSWQ9MdRz+dc+K9v7JrDW5+l9l5+dt7aX2utyZc1vd3PtLVv+CkPjH4yfG0fB74O366LZX14kVrrRQSbVQ5cbD64Ir6S+Jn7BHw2+LPxf8PfGTWL67guURX8QW0EzoNXdUAjLbSNu0jOK/Pj/AIJsfsd+PvHfjvTvjFqXm6Tomlv5kEkkeTck5B4PIr9rYI/JhjiznYoXP0FeHk0akMXWjCcp0ko+83e9S8ue3l8OkfdTukk7mFC6nKzuv16/1sfPH7X3x5k/ZX+Db+IfC3h6KY2ypFBFGRGqDIHSvE/2Sv8AgpLov7QVxd+C/iB4ci0WQRmFrlrncLgOCCMduKv/APBWm5tl/Z8uIGuYRKzLiMuAx+YdB1r8hfhA81m1/qduZLSSDaBqKSHdb54xsH3t3TPaow0K+NxeLnGq4yhJRj1ilywlZx2d23d/FZ2TQoqU5zaeqdl9yex+iHxb+HXhT9m7Rfjppmj3VpoHhzx61g/hZoZVu/tTKczjAJI5J69K+QfhPq+neEtY8XXupWv2BI1g2wCXzWZiOMHqcn8s1VuL/UJFRL3ULlF0/wC4s0zTjTt/oCT5nme33c1leEdG0/T/AIwaM8IaGW8Ltc2DEukeF4O48NnrjtX0y21Oo6BtC1EfF/w94y1+D7P/AGyZWNpKdyW6quFJJ45612GsSReJ/ipoT6HIl0nhzzP7QKsMRbx8uPWu217w/pXiTT5NK1e2823kIztO1hj0I5FZ/hXwJ4Z8FvcSeHrJ4Gu8eczSFi2OnWmBBpWrWo8T+IY5deilWzVGktzGE+zDGeW/izXm/wATPiVYeOdOi8F+BrVtTnvpQXlYGNIzG2cbjwc4rrb/AOFD6l4s1PWbvXGOlaxs+2WCrtMm0cfMORVL4n+GNL8M/Cq50vwzYi2WGaLymjXMikuMnd1oAnt/GPxVgt4bf/hVoYRxqmftY5wMVLB8VvCmkEQeK9N/sfWIz++t4rYv5fp86jmus8IwajaeHLGHVNXGpXIiUtcAY3AjgcelaMlnZysXms4JGPVmjBJ/GgDzL4Y63p2uePvGOvWMrixuBB5csyGMHA969RSSOVRJFIrqejKcg/jXnvxOWHUp9M+HNtAtn/wkLFmuohtMYj5xx1zXQeE/DD+ETLpsWr+bpzKotLVz80RH3jk8tk0AdJXo/wAFPg1qfxa1qYmdbPQ9KHnanesRiFAN2Md8gGvOK9A+EPxOvvAWpTaPPAbzQteK22pWQfZ5ob5Qd3UYzms6rnGm3SV5W0Tdk3662+4TvbQ9L8S/8FMf2a/gV4Tu/C3we05dcl0n9xBAA0XnyZw5LEdjmvmnVP8Agpj+1b8Z/Emm6J8GbGTSrmMySz28cazeei/Ngkj5cAGvB/25v2fx8DPjDeRaJpwh8L6uFudLmWTesm5QzgH2JxX0N/wSFTTLzxJ4w0n7Parq9ykP2K6l2s0QAO5VU9dw4r5jGVJUMH/aEZynUTtFN6JyajyNQtGXK9FzN6/aW65ZtqHtL3f+eltN/wCtT7p/Yv8A21dA/aF0L/hHvEzrpnjPTf3V9ZTHazOCRkZx6Vk/8FF9G1mx/Zj+IuqX2sR3NjfTWH2S2WEKbfEozlhy2fevHf2s/wBjrxv4a1SL9pb4CWUmieKbBzPqGnWzZE4BwTxxyAT+Nch8Yf20dD/aD/YX8ZeH9eb+zfGukm1iu7GXh2dZRyAevTNRk+bzp2w2LTSdrc17xb2jK+rT+xJ7/DK01qqNZr3Z/wBf10fyep5lp3/INs/+veP/ANBFWK8Y+H/xB+K174Tsp/8AhBG1QYKLdNMIy4HA+XtXRjW/ip4i/wCJT/wio8O+d/zEfOEvlY/2e+a+uOw9EwfQ0YI6ivOv+EI+Kv8A0VMf+Agro/CWieKtH+0f8JN4p/tjzMeV+5CeX69OtAHKfEW28RXnxL8FweFNG/tXUyJ/JtPMCeZxzyavaH8Nf2i9B8Ta74ob4R+YNWCEx/bF/dhB6966bQ/+TjPhz/28/wDoNX/iN8QfjRqfxm8X+EPC3xD/ALF0vRxEIofswkyHXnk18JmmJzH/AFgWGyyNPn9ldufNtzWto7b26fM+hwWDwP8AZ7xeMcvj5Uo27X6lH9nLXPFOsftd/DdfE3hb+xmga6WMeaH8z5efpiui+MH/ACdz8U/+3T/0GuU+Adpr3hL9q/4daj408W/2rG7XTK/k7PL+Xnp1zXRfE/ULTVf2rvihfWMnmQyfZNrYxn5a9TB1K39qqni3H2vs7tR2+LpfU8eVKXsfaxT5b2v59jF0L/k4z4cf9vP/AKDRrn/JxvxH/wC3b/0GjQv+TjPhx/28/wDoNGuf8nG/Ef8A7dv/AEGuR/8AJXf9y/8A7eeu/wDkQ/8AcX/20ND/AOTjfhx/28/+g0a5/wAnG/Ef/t2/9Bo0P/k434cf9vP/AKDRrn/JxvxH/wC3b/0Gh/8AJXf9y/8A7eD/AORD/wBxf/bTZyR0NQyWdnKxeazgkY9WaMEn8amor7I+fMrWfC+g69p8ml6hp0XkS43eUoRuPQjkVwfif4D+D7nQrtNFN1p94qGRLj7Q7bdvOMZ716jVfUP+Qdd/9e8n/oJoA8V+Ffhb4iah4KtLjSviI1lbeZIiQtAHK4Yjqa64aJ8VPDv/ABNv+EqHiLyf+Yd5Ii83P+12xU/wO/5JzZ/9fE//AKGa72gDzr/hN/irnP8Awqwf+BYp+gRSeFX1v4keMEbTm1byxNZqPMMG3gcjrmvQsn1NNkjjlUpNGsinqrDINAHz5r3iLwz8Xvitonh+TSGfS4PMBnZTG1xlc/Xg17toeh6b4b02LR9JiaO1gzsVmLEZ9zXDeMre3g+KvggQW8UWftGdiBc8e1ekHqfrQAUUUUAcF8cf+Sc3n/XxB/6GKzvjdb2//Cn7qf7PF5vkQfPsG7oO/WtH44/8k6vP+viD/wBDFUvjcD/wpu6/64Qf0oA779lnwdJqP7PTP/ZljLLfn9w0gTc2G55PIrpr34Sa2thcPLoVgkZhfL4TgbTkj1rhP2bfB3izVfg5o9/pkbG2YyYIn2gfN6Z4r2jxH4W8SzeDdMtIJFFxZxzNcYuBlRjOevNfmmJzeeVZjKFHHUf31V8ycbunaFtf3i/kS1S1fyPNlVdKo0px1evlp6+R8K6b8P8AwtDdagunWH/CUks4mMrG1+yHJ5Gfv/h6VHoXw/8ACkX2r+zNO/4Sjcv73zXNr9j+mfv/AIeldNdBtcu5wzf8JUbR2y2PsP2Q569vM/8ArVF/yHf+po+yr/15fYv5eZ/9av0pao9I57Qvh/4Ui+1f2Zp3/CUbl/e+a5tfsf0z9/8AD0pmkeAfC1vFevpOmf8ACUt5ZMglc2v2M4PTd9//AOtXSf8AId/6mj7Kv/Xl9i/l5n/1qjuR/b9tKu3/AISr7NEw25+w/ZOOnbzP/rUwPoH9l/wa+ofAGZhpVi0t7Iwt/MCFjtc5GTzxXQ6l8Jtdi0u7mbQLBVFvIQ37vsp6VxP7OXg3xZqvwm0q50uI+S8kwRRcYIwx4xmvYfFnhXxLP4FsrKFgbizt7g3A+0DIGD155r80xObzyrMZQo46j++qvmTjd07Qtr+8X8iWqWr+R5sqrpVGlOOr+7T18jwD4IKU+HlpGRgrcTqR9HNdR4k8SaT4U0mbWdYulhghH4sewA7815J8MvE/xB0vwlFY6N4BGo2sVxOFuftIXed5zxWpol3bfFnx/ZaV4n8KPcapoE6NH4djmJj1AMQWLSjhNoGea++x+Op5dhZYqrrGKvp/VkvN6Jat2O+pNU4OTOk8JfD3xj448Fa58c0uX8AaSSifaXj86TVGJ2oFjPzcHHQd6b8O9f8AFg1HUvBXj62WHWtH2O8hYZnR+VOO3GK9q+K3xZ8LJ43fS9Mmh1LVNAtFXwv4UAENtYN5f74mX7kp4zznpXx18M9S8f8AxJ+NE/xA1/zJ2jlYX0w+VABlVXA4OOlfLcOZzjM4xtSd70eVPVW1e3ImlJxtdOcvil8KSTOXDVp1pt/Z/rby82en+CP+Sq+OPpb5/Kuq+HHwc+G/xB/av8AeHvGejrc6VrIuZb6EylEcxplenTkVxP8AbFl8PfiD4j1vxV5tvZ615X2KRIy/mbR83TpXEfFT44NpfiXw54u+GWtT22q6UJds5hKlNwxxnrX2Nb2ipy9kk5Wdk9E30u9dPkzsle2h+5Gg/FP4FeANNi8K6Pr2naZbWA8pbcEIVxxyK8++OP7fHwQ+DNtZtdeIIL6bUI5WhWE7vmUcA46ZNfimlv48+M/hzxp8Xtc8X3supaIYDJBEGH2jeccBTxivI7m9vrsgXl3PMU6ebIWx+dfN4TA5vKlGhVrwppJJqnCzWm0XKTVvPk27M4KFSVZypRmrwdnZbOyfXya6Hsv7UX7Ufjj9pXxxca9r17LFpcUjCysQ/wAkSfh1ziuY+Eq+WNQvvK8nydo+3bt3kZ4x5f8AFu6Z7V511r0n4UWd1bJqGoyWMtusOwfbypIg3cY8v+Ld0z2r6HDYalgqSo0lZL8e7b6t7tvVnfTp8qtBHf8A/Hv/ANOf2P8A7afYd/8A6N3/APjuaPDbeX8UvDFl5nk+SZT9hxu8jK5z5n8W7rjtXS+AvAes+N/EkfhvTIJLGa2jeRnZd66cCueSeJPM9/u5rnfA+meJr34vR2f9lpb6b4ZkdXQSBzGWBGS3U5PPtWymnLlW5ksRTlWlQT96KTa8ne35M+hHkjVwjSKGY/KpOCfoKWvPPG0ki/FTwSiyOFb7RlQcA8dxXoEzL80QmWORwQmSM59QO9UbGfrniTRPDlk9/rF/FBFGyqw3AsCTgcday/iF4ng8M+C7vX3tFu4iiqEPo/G78M5ryr4lfC+fR9A1nxlr+uS6xqcs8Jtzyix/N029DXTfEy91O++CL3er6f8A2dc4g3Rbt+0AjDe/rQB1Hwpt7O28D2KWGoyXsLM8gmkQqcsckYPPGcV11c/8MUvNW8G2E9pNPq2EwZ4rUr+BUDjFdS+mapEpeXS7yNR1ZoGAH4kUbasDgfH+g6m+paX420e3+2XWgLIy2WcecGHPPbFYnhO61/4nazpXjbUdKk0S10gyLFEXLfaSeDkdsV6fkHI/OkREjUJGioo6BRgUAAkjd2RZELL95QwJH1FLz2OD2NUbPQ9OsNTvNXtonW6v9vnsXJBx0wO1X6AO4+K3gCL9pL9lm806w0P7R4r+Gyb9OkafMlykrZk4PXAFfLX/AATivNa0T9r3wpHYWsk80T3Ky24k2g7UIYntxya+nvhN48j+HXjS18Q3dk17Z7JLe4tt+1XSRdpJ9cAk14l+0f4An/ZL+Jvhz9oL4F61IdF8TtPLZOsJxECMTRkn13EZryq0Z0qzpJtKrs0r8skvNtK6tb3bXTu7yRlK6lbv+DP0L/av/bFtLD4S+M1+BOuQah4n8KS2y6oiKHaBXcblVT9/IyCR0r80viQ2i/tOeHvFvx88H+CR4P8A+ESayGt28U5dL6SRgoYrwF5BP417b+zV4Q8AeLdb1T9qX4N3Nve6xpELPqvw1vLrasxkQo7efIcPn5nAwcdKrePIfhZ4x/ZV8Z+MPgNby/Dy8s7yA+PfCUqtMbhzPiH9433QDk8U3lrqyhVrTbqRad0kuivFLX3ZWu029dU7pWPZ3s5PVFDTFSPTLNYkVF8iM4UYH3RVnJPU1V0uSOXTLN4nV1NvHgqcj7oq1XqGoUUUUAY2h/8AJxvw4/7ef/QaNc/5ON+I/wD27f8AoNGh/wDJxvw4/wC3n/0GjXP+TjfiP/27f+g18a/+Su/7l/8A28+gf/Ih/wC4v/toaH/ycZ8OP+3n/wBBo13/AJOM+I//AG7f+g0aH/ycb8OP+3n/ANBo13/k4z4j/wDbt/6DQ/8Akrv+5f8A9vB/8iH/ALi/+2hoX/Jxnw4/7ef/AEGjXP8Ak434j/8Abt/6DRoX/Jxnw4/7ef8A0GjXP+TjfiP/ANu3/oND/wCSu/7l/wD28H/yIf8AuL/7aGh/8nG/Dj/t5/8AQaNc/wCTjfiP/wBu3/oNJoron7Rfw5aR1VR9p5Y4H3aNadH/AGi/iM0bqyn7NypyPu0P/krv+4H/ALeDf/CDb/p7/wC2m1RRRX2R8+FV9Q/5B13/ANe8n/oJqxTZEWWN4nGVdSrD1B60AeffBK8sovh5ZpLe26MJ58q0gBHzntXfxT29xn7PcRS46+W4bH5Vwx+B3w4LMw0q4XcxYhblwMnrwDTJfhZcaLj/AIV34gl0HzR/pPmAzeb6fe6UAegYPoaMH0NebXHg34qwW80//C0gfKjZ8fZBzgZrlfh2PjR45sp9UuvGn9n2auUt5fIVvOIJB47UAdd43BHxV8Ecf8/H8q9FPU/WvKr3wJ4/07VbHxjeeIf+ElvNI3fZrLyxFv3cH5q0D43+KpP/ACSwf+Ba0Aei0V51/wAJv8Vf+iWD/wAC1pR8SPFek/6f408E/wBj6RGcT3gnD+Xnp8o680ATfHQM3w2vlRtrGaEBvQ7xzXn/AIq0X4y3nhrU/C15ajXdPuYIZLe9ysflKq5PHf0rU+KnxU8GeJPBdzpWj3d1PcyTROqfZnGQGBJ6eld14e+IPhTxRol1a6RqqmWystsySjyyp2ehoA6/9lfQNbl/Z6eCFlV7pysCmYAkq/zd+K6i68A+OIrOaaRWRBEzbzc5GAOvXmvO/wBnrwj4p1T4V6fe6aP9HknuNh+0Bf4z2zXsviTwp4ol8GaXbRHbNaRzNOfPHyjGc9ea/McVmX9lZjKNLG0P39V8ylG7haFtf3i/kSei1fyPMnU9lUdpx95/dp6+R8bXQbXLucM3/CVG0dstj7D9kOevbzP/AK1Rf8h3/qaPsq/9eX2L+Xmf/WqW6Da5dzhm/wCEqNo7ZbH2H7Ic9e3mf/Wp1nbT+Jp41htZPF4tCoYKpshZjPQkY3//AFq/TVqj0xkUFx4lz9nt5fFv2NediGz+w/XGPM/+tUctrc+JbacQ2kvi/wCxxMGVFNl9i46HGN//ANarHxR+Ot14Tur3wh4b0iC0uoUjVb2MqccDIIHX0ry6L47/ABHj3INXjWOTiRUgVd6nqDgUwPsz9j/QNbXwNournEdhm5UAzj5TkjGM1ueK/DvifS0miuxMDfrKtuFlLBycgdPrXh37P/xQ03xddQfDzRNPfSrk5NpAJyRMx5c56D1r1z4lfHCD4MW+kWmu6N9v1PTxIIrQPu+0BuvzDOMV8NiqeYYPNp4ihKnVlOOtO3LJQipuLu5veTUW+W2vQ4ZKpCq5Rs2+nWyvbr3ODs/hH8ftA+Gdp4d8MeFVfUJ5JmnnW5Um2RmznHfINcXqXxC0z9mvwjfeEvB939t8d62u3Vb+SP57I/3Ru65BI4r6C+F/xevPjLo9vY/CLT5ND1G7l367eNIZf7LUN8o2t97eMjjpXHfFb4K+FdW+L+u+IPEjJqM04gKxL8nlOqjLED1PNeNlecYniTMqmR5xCPLFc/Laz91rScbzVnJ3jaSuo3a5Za40q0sTVdCsttfu77nzp8PNB8WfGezXSdb8TyWkPhxzJDmLEreacvl/vHPvX0l4b8OaT4V0mHR9HtlhgiH1LHuSe/Ned6XPf+DfjJd6bJoyrYeJgi2kysAFEa88V3XiTxx4a8JzQQa1etHJcnCLGhc/jjp+NfptKhToR5aUUl5K2+r/ABPTUVHRG1Lb28+PtFvFLjpvQNj86+eP2r7e2g/sDyLaKLIkzsQLn8q+iIZoriJJ4JFeNwGVlOQQa+e/2tP+YB9JK1GO/Y7+N/hb4Xa/qXhrxnYRvpPiYJBPcuNwhwMD5e+c16P8bv2O/AtpqNx4p8L+M4tPtdTxNZaYsXmYBGT83brmvl/4aad4TuNU+3+LbySK1tXXEaxkq5PTLD7vNfTHi7xSfD/hZtbgLXkcYSOEGTIAbABB9q+bzPE1MPiFHDXUpaeXluexw14eYfMcfLiGrivZ0461KcbNzUVpf+Ta212r2tuctoPwL8GabYQw6pafbbuI7mn3Fd3PHFeo+G/C7a7qNvoGl2cW+bChQgAwPX1xXJxa3b+F/DiX3irXI5nUB5JcANhuQNo571V8C/GTVLjxyY/CenlIrLk30h2soI/uHk14UvrOJk6tRuUY7vp8tvuP2zFfVMswcsJlShSxVSFqaau+az5XO120nu9ep7N8V9buvgxpek/D/wAGrD/b/ihHW41VQC8AQfcZe2RxzXhnwStZ7Lxj4vt7rTWsJQYi8LS+Ydx5LZ9+tdzqG7VvEV54q1F2n1K/2+dKxyOOm0fw/hXB6BqmqeF/i5f2dxpfmQeJlBtpt/eNemK9zJsdCdV0Vtbr3X/A/I/IcVwDiuHMp/tHMaiq4ypNyrTinZ823pGOy0S12N/xv/yVXwR9Lj/0GneN5JF+KngpFkYK32jcoOAeO4rnfEE/xS1Xxfo3iOP4dhV0VpQE+0j96G4z7Ul1rfirWfip4QPibwt/Y3l+f5X74P5nHP0r6U+ZOq+OX/JO73/r4g/9DFV/jDz8KDnn/j0/mtWPjl/yTu9/6+IP/QxVf4w/8koP/bp/NaAPbfhN8R/HHw6s44PAnlR/boofOjFmsu7AHQYOK+tdI8f/ABR1LwpPL47+FOkahpd7FvBmu4bWQIoyxAODXzP8BPjBpfwjtJ7+58IxaxfXVpGtpNIwAtm2Yzg9eea6n4SfDyL9pK+v/Hn7RfjC71Wy8HyNK0NszWySq5JRSIyB8uAPevDzChKpUVfEcqowUr3lJJxcVrJfC7O6tJPT3k09HhUi2+aWyuTr4o/Yj+LNzYeE/Cvit/Bvie8leNobi3kKFweQHbAx716TB+wHaX9m15pPxRivV2FozFCrKxxwMg147qPwR+G37UnxF1TxHf2UfhHwL8NlCQ+R97Ug645ZcFcEfjXb/sv+Lrvw18RY/g/8Odang8O3cjfZpJnMzIE5PLEk5rxcvzfHU5xpSw8pSlFSaurpJuKd24pOSUZKLjBfE9WmjGnWqJ2cW9L/AKfj2sup5D8Rvg18QfhW8LeMNEe1guXdYJVO9WCnqSOn41xNfpT8XPFGleJvGWi/BPVfCcGsaZrccq6tqMs4iOnMq5jIB5YsfSviH45fBPV/g74nl0950vdMlYtbXMbAkA84dRyuOnPWvrsPi6GKUnRmpcrs7NOzW6duq6o64zjP4WeaYzx60lj+0n8PvEFzL+y/8ftDUeE5T5Wna0wOdPkYZBAAy2WwKUYJHNfIv7Rms6vd+PrjTbokWtiR9mxHtxkc/N3p4nDU8XSdGqrp/wBJp9Gnqn0YSipqzN34+/Aj4h/sw+MwLPUbp9Fu3W50zVLSUiK4ThlztOOMjg17FY/tWfDvx1+zH8RfCXi/TI7D4l+JTp8U2oRLhdYWKQBfkUbYyijHvWN+zb+0n4U8T+FP+GcP2jyL3wjejytK1WX5pNJkJJBz95gzYHXivLf2iv2a/GH7P3jKO0kU32i3zrNpWpw4aKdDgryMgEZFedhcVVwtVYPGO7fwT/nXZ9prqtmtV1SzjJwfJP5Pv/wT6R8LaNY6B4fsdM02No4EhVgrMWOSATya1a5r4c/8JL/wh2n/APCW/wDIS2fP0+7/AA9PbFdLXsGwUUUUAY2h/wDJxvw4/wC3n/0GjXP+TjfiP/27f+g0miuiftF/DlpHVVH2nljgfdo1p0f9ov4jNG6sp+zcqcj7tfGv/krv+4H/ALefQN/8INv+nv8A7aLof/Jxvw4/7ef/AEGjXf8Ak4z4j/8Abt/6DRof/Jxvw4/7ef8A0GjXf+TjPiP/ANu3/oND/wCSu/7l/wD28H/yIf8AuL/7aGhf8nGfDn/t6/8AQa0PiH8O/jTp/wAafFvizwp8PP7a0zWjD5Mv2kR42rg8GvPPiFP4lt/iZ4Kl8I6sdM1Uef5N0IvMKcc/L3rQ0P4k/tH6x4q1zwy/xaMDaN5eZDZLmTcM9O1c2a4bMf8AWBYnLJU+f2Vmp823Ne+i726/IrBYvA/2e8LjFK3PzXjbtbqGufDb9o/WPFWh+Jk+EpgbRvMxGL1cybhjr2qh8PIPEtv8TfGsXi7STpmqgQedamXzCnHHzd69B+H3xG+M2mfGjwl4V8X/ABGGsaXrRm86M26xgbV45rP1p0f9ov4jMjh1/wBGwQcj7tGVYnMf7feHzOFPn9ldShzbc1rav16fMWNwmB/s9YrBuXx8tpW7X6G1RRRX3Z88FFFFABRRRQBX1D/kHXf/AF7yf+gmuK+B2T8ObPr/AMfE/wD6Ga7XUP8AkHXf/XvJ/wCgmvKPh5onirWPhzpf/CM+Kf7H8ue4839yH8z5zjr0oA9fw3oaSSRYlLzSCNR1ZmwB+Jrzv/hCPir/ANFTH/gItPj+Hfi/UWFn4w8dNqulP/rrVYfKL+nzDkUAd3/aOn/9BK2/7/L/AI1wnxuvLOf4d3kcd7BIxng+VZASfnHapf8AhR3w5/6Bt1/4FP8A41yXxU+Ffgvw34Mn1fSbG4juoZ4djNcMwGXHYmgD1vT7DT/7PtD/AGfa58iP/liv90e1eVfHbwF4XtPCWreMLSxa31UlMyxSFAecfdHFeu6fk6daf9cI/wD0EVwnx+B/4VZqvB6p/OgCb9n46gfhRpJh+1bcyY2bsfe9q9q8VvfR+AtDcyXEZCTl2+bI9zXkXg74vXnwg/Zu8CrploZtV1OSdYLPyMtOd+PTjrXSeJ9R/a98Z+Hf7Gt/h1Hp6Xvlstz58Z8tCQScfSvznG5y6+JoYnE+xpUqdWes6lpSUeem7R5Ldb7vsedOtzSjKVkk3u+112PCpEl8SXUoiD+LmtmY/Kv2I2nPXHHmf/Wr1n9nO3tvF2vXuh3niA6vHJC0XlfY/s/kNtIAzj5sH+VR/E39nDxb8PfC/wDws7XvjEkcmjRhgsdgFAdxypA+9zxzXzXof7R3xS8M6zFqmla9GjwSZ3Jbou9c8547ivoKWb4finKq88kq3dpRUtY2nbTdJ6XWqOhVY4qlJ0X5fMd4x+Flj4Y+NF/8PvGfiU6dCkrFr10L7SwJQEe+QKwvH3wf8Z/DmewTxFa26R6qx+xPHcJJ5i54Jwflzkda+x/hh8Kfhv8AtNavefGzxrIk8upInn6QJMG3MYwW3DrnGa5vVfCn7GXhrxl4htPFvi65u4nVY7CxZpXGnOBgkNnnnmvmY8ZVqOIVCdOpOpThH2sIUnJKb6Rd013u+aMor3Xffm+uOMuVptpapLqeFwfDDxP8G4IfGHiPX4dD1tjE+jWsLrMbtWID5Kn5MA96+gfGPg+bxfotvrSNJHq1paGS3vGjMgTKZfg8HNamnfAr9nC0+Bo+I2r61c6xbWzO8WtSvJyd3yoIyeOcCuW+FH7SvjHx/rUXww8JeGgsFxFNbwy7Q21dpAJJHGfeu/JuJ6mY4WvXpWlOlNxm6idGMUlrZ2m9Oqk73bvZWRpRxLqRlJatPW+i/U4X4LfGSb9mbw1d6+ukjWZvF5kQDf5f2Z4mIDe/JzTvgp8Wrzxt4817U/GWrPNrOushhUjghc8DsMCuK+IHgP4ltpF74Zv/AAk8b+BpnfUnjcOR575T5R/Sj4O+BPFHhrxp4T8S63pclrYa0ZvsTycGTYMNx1Fe5gsPk0cdPMsM4OtWsnJSu37qaS1/ls9N1Zm0I0ed1I25me0eNs/8LX8Dj/rv/KqmieR/wsPx9/aPl7PITyfPxjOw/cz/AEq344/5Kt4IP/Xx/Kum8S+BvDXiuaCfWrJpJLY5Ro3KE/XHX8a+hOg5L4D3utz+EjaalpckFtBNJ9nuXfJmy5zwemK4P9rT/mAfSSvoSGGK3hSCCNUjjAVVUYAArwv9pW10y91bwxb6xffY7RvM8ybbuwPTFTKXKnJl06bqzUFu9NdF9/Q5f9m/xz4B0OHW/BHxQ8PNceH/ABMqrLfiMlrRkBKsMDPX0rk/HOvXek3l74H8G+J7jXPDUEoe3lNsVYjO4Ag8jFeg3fiHwfp2lWFn4Y12TSLK0/1rSaaziXP+0RxUt545+GHlXtxoWuRWOqX4QSXX2XeMr6LivBli5Snzui3funo11emmna59VguD8LgcVVxWHzJRc4pTipR5ZafZ9699FF35U9xPA2tfBbTPB1140+J0t14r8XztF9l0JkkhWLYcZ3Dg8DNZLav4j+MHxfufHXhrSj4ZtcRq8aj5YVVdoGOM5xW/ZeLPh1AdMufE1+11qdoWENzJZGIPu9sYNdp4n16Hw34bl13TLGOfdsCiFQM7jgHj0zmuOvjpw/dRpNOWivt8lZaHqZFwFgY46ee18e6zj7ztK7irJ291tR1XS7dvi1N2J1wIjMryIAHwec+pHauR1z/kq3gz/tv/ACrL1LXLT4baaNVv3k1PXtZ2sFGR53oAO2M1j/8ACZ6nqfi+z1G78PS22s6Epe30/JIug4yfn6DArmyrDSp4qNb7Cvrt01+Vz7Li7M6WIyqpgbP20uX3UnK15JpNpWUmle1/S59DknJ5Nec+NyT8VfBHP/Px/KmaH8c/DF5Ywya/b3mlX0jlHtmtnIU5x97HNN8X3Vtd/FLwNJbXEcoKzt8jA4BXjOOlfa7n4YXPjqyx/Di/kc4VJ4WP0DiuI8R+N9Z+JmjXHhLwj4ba4sbYWxkv5X8oDGCeG+ldz8cv+Sd3oI/5eIP/AEMVU+LkMNv8J5Ps8a2/mLaqzRDYSCRnkUAdhe3mo2Hh+GfRrBNSuo440EKyABugbn2rtPCvxM8TeEdL1DQdD1iK0i1lE+3W2VZmwOnrxXGeFNL03RfD1jYaR/x7LErD95v5IBPP1qnceCfDqa7N4x8mVNTVGbzvNbavy9dvSs6tKFeDp1EnF6NPZrsxNKSsz0jRPHuraB4U1/wpasRb+ICjXBBwcqc19C/Anw/4E+Dvw5t/j14nuDeateo/9lwYI8gjKtyOua+NfBGof2r4chvP7a/tbfJIPtXl7N2G6Y9uleh3nxE8XX/hG08D3Wpb9F0/cYINg+TJyea4sXhq3sprBy5Zyau227LRPl3Sajeytbm1a1ZE4uz5N2afxH+LXij4heLJPFF3eyQyJLvgEbbSmDx069q+kvAcGgeK/gl4h8fx+DP+E68ba0kA12we7MRmiibAZM8JtQZ+XrivjAXdmVZ1vICqfeIkGF+vpX0B+yzo/ji7g17xp8P9V8640IxltOVgUu0b73PQYGaidCeW4aMcBBNRd3HrJdbO/wATet3u9G1e6Ti6cbU1/X+ZT+J3wk8Ma14ctvi38FpvtHhi7YQ3Vk+Ul0+UEIVZW+bl8jJr5q+Mn7A37Yvj7xK11pfw8S50iNVeyYXManaygnPevt62vvgx8c9a8TaX8M/HkXhXxbdqkvinSyhMc0kAzHsB+VcFSTt619J/s4+J9Y8W/CbStX13UUvrwPLA06gYcRuVHT2FdmHxVLFR5qb7XWzV1ezW6dnsy4yUtj8ovgn/AMEiPjJ4xTVbj4t6n/wgi2IRrUhFuTcdSx+U8YxUP7SPwk+L3gD4IW3h/wAIfFWbx/4A8LXG3Uxc6b9nk092kGwB3+ZwzccHiv2W8YafrOpaDPbaDrg0i7yri6MYk2qDlhg+oyK8A/bI8E6r8Y/2TvE2g/CnTYNV1K8EMiLCqxeeYXBc/oadX2FWSo1bN/Ek/wC61ql5O2vTQHyt8rPzq8J3upah4dsbrV9N+wXLRKDBv3YAAwc+4rXrjdH8fWNl4Ki17xbEdGe0P2a4tpf9ZGyHb9088kVf8KfEPwj42eaPw5qq3D2+N6kbTz6A9a3KOjoqOW4t4MfaLiKLPTe4XP505JI5VDxSK6noynIP40AebfEODxLcfE3wVF4R0k6nqpE/k2ol8svxz83ar+h/Db9o/R/FWueJn+EpnbWfLzGb1cx7Rjr3rotFdE/aL+HLO4Rf9JyScD7taHxB+I3xm1P40eLfCvhD4jDR9L0Uw+TGLdZAdy8818JmuJzH+31h8sjT5/ZXcp823Na2j726fM+hwWEwP9nvFYxytz8to27X6i/Dz4d/GnUPjT4S8WeK/h5/YumaKZvOl+0iTO5cDgVn67/ycZ8Rv+3X/wBBrnNc+JP7R+j+KtD8Mp8WjO2s+ZiQWS5j2jPTvWf8PZ/Etx8TPGsvi7VjqeqnyPOujF5Zfjj5e1GVYbMf7feJzOVPn9lZKHNtzJ31Xe/X5BjcXgf7OWFwalbn5ryt2t0Ox0VEf9ov4cq6B1/0nIIyPu1o/EH4c/GbTPjR4t8VeEPhyNY0vWjD5MguFjA2rzxXnvxCn8S2/wATPBUvhHVjpmqjz/JuhF5hTjn5e9aGh/En9o/WPFWueGX+LRgbRvLzIbJcybhnp2ozXDZj/b6xGWSp8/srOM+bbmvfRd7dfkGCxeB/s94XGKVufmvG3a3UNc+G37R+seKtD8TJ8JTA2jeZiMXq5k3DHXtVD4eQeJbf4m+NYvF2knTNVAg861MvmFOOPm716F8PPiJ8adP+NPhLwn4r+If9taZrRm86L7MI8bVyORWfrn/JxnxG/wC3b/0GjKsTmP8Ab7w2Zxp8/srpw5tuZK2r736fMMbhMD/ZyxWDcrc/LaVu1+hs0UYIGSOKjjnt5iRDcRSbfvbHDY+uK+7PniSjBPQVxfiDxT8QNO1Wa00TwD/aNmmPLuPtIXf+FZ//ABdTxh6eDvs/0n+0Z/ligD0TB9DUMl5ZxMUmvII2HVWkAI/CuA/4Qn4q/wDRUx/4CLU6fB7QNTT7Z4wnn1XVX/110srRh/T5QcCgCb4mfEzRfBOiPh0vr68jZLe2ibcXyME8dMZri/hR8VfB/h3wRaaXrVzdW94kkjvH9mc7dzEjnFd3o/wj8B6HqUOr2GlObmDPltNKZAM9eDXVHT9OPJ061/78r/hQBw5+Onw2VgjatcBm+6ptnBP0GKSX4p3GtY/4V34fl17yv+PnzCYfK9Pvdas+JtB0Gfx34Yu55IoJ4PN8q2W2BWfI5ycYGPeu0igt4Cfs9vFFnr5aBc/lQB57/wAJv8Vf+iWD/wAC1rB8cX3xV8ZeHJtA/wCFbi282RH8z7UDja2elex5PqaMn1NAHm9vF8VPFNtDb5Hg/wCxRqmeJ/tPGPwxXL/FDwr4/wBP8Hz3Wt+PRqVms8Ie2+zBd/zjHNe4cn1NcD8bJ4/+ECuooZUadbiBhGGBbhwenWj0A6bw/czXfxr+EujXsMZtLS3nMULxDC5jBJxX0fJ8SzpXj+TwV4o0s6Vb3f8AyBr0vmO8wPnyeiY968M8GeGvFvjP4weBfHdtaLc6do1sy31ypAVN0YC4HenftY/EK0u9btPCC3cn9iabu/4SJfKKMrNzCEk68n+6a/n3i7JY8R8V0cqpxim6Xv8AK21Tk5Sk5aLe7+0lzX6NprwMXRWIxSpJdNfLqekftQ6TL45+Cev+G/DN9p93qEwSRIhdoMqpy3f0FflVDaTjUFszbmWRJdjRrzkg4I4r3/UPBw1/TrjRNG8PXWma7dr5mmY1VpFmReW3HOF+XseteQ+HdXm8I3V7byaRINa3eXDcOpLW3OHOw9cjNfpXBPDP+qNCpl31hVLvnty8rV9Nfeejtptsz0sFhvqkXT5r9T1j4J/EK3+FvxlWx1q4fw54fvIDDeQLIZlQtHhW49zmvYPEv7KHgjxZoPh5/B95Zvc29xLcanrEl4udVR33Kuwn5No4r5ShsNLv9UvtC0uL+3ry62S297JJ5WzHzSDB/EVNaX8s1/e+ILXTLtdD01Qk9kNQZdrEbQQc5PPPFe5isrxH1uWOwNVQnKKi1KPNFqLbTsnF31evNa3Q2nSlz88HZ7d0fRX7X/xI8NeHfCOlfBT4UWw0bSrSPGtaTG3nqknBDeb/ALRya1/2Tfhp468HeAofjD4A1S31y4vyRceG9iq8oU4H7w8p618oTah9m0WOK31ySRddkxfxSxFmiVW+XDnk8elfRvw18J+NPhxpN1qvwm+L08en30AkcyWRG4qMkBW6c8Z7183nPDVeplbyzASj7SpJ1J80fcqXd5JtXcdWuXXmSSSelznrYaTpeyg1du7utH3Psv4eeGop0v8Axz4h8EJofiLxHt/tW0kk85Ts4T26V43+1LDDB8UfhhFBAkUY+1YRFCqOOwFeQ/DT9oP9qWXVLTxNqKHxNoSSSI9sdkXn4yOvUc1s6lqXxM+LHxNt/HHjezGi6ZouTpmmbhJt3DDfMK+J4X4BzzKOJqWPxfK6UU3eMm0vdcVBc3vaK1r6WW5xYbAV6WJU52sv+Gsc9ZWOq+KvjVf3V3qmLTwqV+zW+zr5i8816k1xbgtuuIlK/ey4G36+lePeKtG8UaL8WbRvDnif7Cvixszjyg2wRjp+Na/xi0W20fwPrGtWYlF/eSW4nkEhHmMrDGB2zX7se4emjnkc189ftYO0b+HpEPzJ5jD6iu+0/wD4Wh4strTP/FJx2kcfPE32sYH5cVwP7VELSv4ZtnfLNuRnx1JIGaNhpNuyO48E/GDSvHv7M3iTw14o8J2d3d6F9ni81AqS3PmPgEADPy+1fNXiHwvH4Q8fwaF9oEyR3Fu+4jGAxBwfpmvpD9mX4JaPq3irVblrpl/4Q6zM90nJS/aSMlMjoNprxO/8EeJ/iBql34gv7lzf6jdPHpyBOJ1RyG5HC7QO9cWEqU5ufs+uv3/1c8TC4XD5dmONyylK84yUp72jKcdVd7tNNu2muh6H+2v8RNM8ReJ9H8E6ZolpbL4btIgbu324uC8annb6Vz/wC8bfaPM8J61febnH2KF13e7c163q/wCxp4d1T4RaP4qg8Ti11S2Df2hdyEuLkk8DJOBt6V8z6lo+pfDT4hmw0HUftktjIii5iTcCG69K5quGpYrCSoR6afNHreHWbUckqU44NtxpScJrXV397S+t73Wttj2LxLaXvjHxhLb2N/HpFz4ZX9xNKoZZy46AHiucTx58SfAdyT4v0BdQmuzizmCgFSO+QPpU/iDw3rPxC8WahbT+IRpselRRPbgrt8xmUE89+al8BeP/ABjpvjM+C/GnhkeIZZlMEMTkJ5YIxvDd8DmvJoUfaQVNKM7JXjs110l57vtsfr2b5i8G6uMk6kHzT5ZxtKM2rrllBuydlyxbtfdnsHgm98b+JtFF38SNQ06+mlTEVrFbxg2yH1ZRzkVxXib4QTaf4s0XVfAMzaQEMhu76WTzBET04Y963vht4N0TwP4m8Q6Ppfi59amAjeeNkK/Zy3O3nrjOPwrpvHPhmbxh4buNAg1FrGSZlZZ16qVOa+ppqMYpRVkfj2GhShSSoR5YvVK1t9duh5d8Ub3x/p/g+fw9relDUbNZ4S+tbwu/5wR8leo63oem+IvBraXq0HnWz2SuVzjlUyD+deUeJ9C+NMum6j4QuLX/AISGykaE2t5uEe0IQTx+GK9K8MeKItZ0ybRNYiTS9VtIBBc28jjCZXAIY8H8Ks3M34HFv+FcWKl2bZNMoLHJwHIFdrqH/IOu/wDrhJ/6CawfA+jad4M8Ow6B/blrc+VI7+Z5ijO5s4xmrniTxN4e0TRLq/1XVoIrYIY3dHDEbhgcDk0Aee/BLx14bi8OWvhV7mUaik1wxTyW24DE/e6dKtweKtX+KGuajpXg3Xm0iz0ghJpWh3G6DdRg/dxzXQfCrStFsfB9mNKnS+haSR0uWg2O25s9+ayvAqRx/FPxukcaoo8jhRgdKANmz+F3hCz0y70pLScw6htN1mdsuw5yD25r6Z/Zs1C4+EvwE+Jd/wCCp2sn09LfynY+YVVid3XrxXidezfC84/Z9+KzFSwUWjEAZOAeeKG7bgfAXxO8U654S8cJ8X/h/wCJ547nWTMJDGhUxnBVtw98nrX6af8ABIz48z/EX4R3/wAMLnRmhl8GMHe+abcbpp3Zjx2xX5l/GPVNNutN1DUNMH9m22pELFujz/aBQ4OAf9XtP519Df8ABIP44f8ACDfGW7+E39g/av8AhOSv+meZj7N5Klvu981mqVOM3VSXM7Jvq0tvuuxWV7n7O6wQNJvSV3AW8mR6/Ka+YNU+OI+A/wCx1qHxV0vwy10+nTTRRWLy4JeSYoCSfc5r2L9oXxJr/hT4W6lq/hq6NvfiSGFJAm7Adwp4+hr5+/bq0A+Gv2ENd0x7gTuDZyu4XblnlVjx9TXNPn+uQtC8eWV5c2id42XL1vrr0t5ku/OtD897zwqfjFLL4++MGned4j1eQzXAiby4wmf3Y2L8vC4qz4e+EngTwtqcer6HpT291FnawlJH4jvXU6d/yDbP/r3j/wDQRViu0swfFHgfw74y8j+37aWX7Nny9krJjPXpV/Q9D07w5pkWkaVE0drDnYrOWIz7mr9FAHmnxDg8S3HxN8FReEdJOp6qRP5NqJfLL8c/N2q/ofw2/aP0fxVrniZ/hKZ21ny8xm9XMe0Y6966PQ/+TjPhz/28/wDoNaHxD+Inxp1D40+LfCfhT4h/2LpmimHyYvswkzuXJ5NfCZricx/1gWGyyNPn9ldufNtzWto+9unzPosFhMD/AGe8VjHK3Py2jbtfqJ8Pvhz8ZtT+NHhLxV4v+HI0fS9FM3nSG4WQHcvHFZ2tIiftF/EZUQIv+jYAGB92ue1z4k/tH6P4q0PwynxaM7az5mJBZLmPaM9O9Z/w9n8S3HxM8ay+LtWOp6qfI866MXll+OPl7UZVhsx/t94jM50+f2VlGHNtzXvqvXr8hY3F4H+z1hcGpfHzXlbtbodjoqI/7Rfw5WRFZT9p4YZH3aXWkRP2i/iMsaKqj7NwowPu0uhf8nGfDj/t5/8AQaNc/wCTjfiP/wBu3/oNdL/5K7/uB/7eJr/hBv8A9Pf/AG0ND/5ON+HH/bz/AOg03xAGb9oj4kqjbWK24VvQ7etO0P8A5ON+HH/bz/6DRrn/ACcb8R/+3b/0Gh/8ld/3L/8At4P/AJEP/cX/ANtOUn8D/FGYyqPihtjk3Db9kHCntWv8O/h7aeAdNkgF5LeX1wS1zcux/ec5GAeldbRX2R8+GSOhoyT1NKqs7bUUsT0AGTV3TdD1bVrxLCyspWmk+6GUgfmazq1qdCLnVkklq23ayLhTnUkowV2yjRXV/wDCuNdsT9p8QQtZWK/6ydRvK+nA604eGvCAYEeKZmIPCm0Ybvb2r57EcX5NhpcrrqX+FOS++KaPQjk+MfxQ5f8AE1F/c7M5HI9afHFLLnyonfHXapOK9EXTdKCgDwZYMMcMdTQbvfGeKwvE/wARvBPwx8j+3dYtfCP27Jj8vF59ox16Z24rwn4g4at+7wdCc6nRaa99nJ7eR3Lh+pD3q00o+jX/AKUor72YWn+H9R1i+itLTTme4bOwumMevJ6Vtf8ACufFQ4NrB/3/AF/xrDk/ai+FccUkkXxiR3VCQi6aQX4+7nHGeleXL+11oc9tfajB8IppbexYefK2pshO48NtPPPWud8ScR4uTeFwahFW+O+7fRycPuSZp/Z2W0IpVat36r/21T/Gx7hF4JWxz/wk+ofYN/8AqvKXzt/rnb0rT0r4feG9YLi18Yxx+XjPnx+VnPpuxmvkTxl+2f4muPs3/CtNH/4RjAP2rzJBc+d6fe6Yqf4Vaz8UP2mPiHo8PjrVp59H0ctLLNEvkKnGQCVxnJFGIlxTGlLG4uvGhBJtpKLat0Sad2/8fX5FUXlSmqNOn7R3t1V7/wB662/wf5nvHxZ+GvjXR9Rso9D8VDTrXOfM8oP9oH9K5a/8B+HGvrnxTPavLqYtn3SNIShYIRnb0r0jxd4pvPEV1HDL8ltZAQwR5ztCjGc++K5nUP8AkHXeP+eEn/oJr7fJnjXgabzG3tbe9b+t7b20vseJmH1f6zP6pfkvpf8Arbseh/sn3gH7O1rNb3KPdwLeucMGdSGYrkda8i1q78f/ABm/Zz1ubxf4ViGsRXe3Tb53WKXUFWU7hs4PygYrJ/Zsv7/wl4Gn1Lw7dvb3OrSzLcMxLqcMQuFPArchsPF+q6nBqfjvxX/bL6ezHTkiiECQbvvZVeGz71+cYTgHHYTPauYRnDlnVVRTvJTik25QSWlpX5XeVra2va3zsMBOFd1E1Zu9+vp8zwfxR4a8SeHvA99q9ro8vhgWfkmRDcGZrpgRghuqYPYdab4c8VeBvibJDrni3xTF4T8W2MRia/Fr5y6oWG1FKDhMDAzX1h4Y+HGl/Ey4fRfEmmfbtF4N2m/b9Oa8A/au/ZJk+HMz+N/h3avJ4ffmW0Qkvadhju2f0r6LNs/yqWc08nnVdPE2vGatpf7DvdXa1tJW2a1sdNWvSdZUW7S7/ocjp/7K3xhex1D7P4Nt764uyslrexajGpiUnOdoP8Q7VoWP7KvxetorCO6+F6TCASfbP+Jmqi5J+6SM8YryHwl8SviL4UNwvhvW79POAEoy0mMdOvSuw0P4t/H3xVqsPhzStavZby+BSOIqVL8c9a9j6vnkVd4ml/4Kl/8ALDXlr/zL7v8Agm/ceArj4VWNvqfxpt7Vo9OLNouhwyo5u2Y8lpE6bDg89a7Xw38edF1PwkZPGF7LHq0kUqGOOzKqqYIQcDHTHNbHwH/Yy8Xa/wCJX1v42CRbCy/eRWj3Hm/aGb3BO3Bwa9X8f/DlfB8d1b/2ZbyWjQSC3lEC8gKeOleJkvEOV4rNZ4OeJVXE8u6VoW3cYavXZy1bfeyssaOIpSquDleX4fI8u+Bbh/htYyITtaaZh9C5rq9Sv9Yt9Rs7ax0j7VbTK5nn348kgfKMd815T8Lvih4O8L+DoNE1q6uYLuCebfGLZzjLnHavVdF8UaDrthFqmn6jF5Ep+XzWCNx6g8ivuzuPHtS8SePPFfxEtJbDwRsufCxdJ4/PHSQYVs/rXZp8PfFmryLF4y8Zf2npLsJZrHyAmSOQNw9DXF3vxL0vwF8QvGVzt+3Xl2bdbS3jORMcc8it268Q/EHxTCsszp4Qgij3MGZZDcoRzj04rnxGKpYZXqysejl+U4zNZ8mEpuVt30Xq3ojtfEPj3wj4OS2h1bUdiyLtiEKmXAXjnb0rzPx1pR+Ms0GqWLtZ6ZpAMlpcMpJuu5G3quMV0Xg7w54WgsDq2h2rzR3pIZ58uWYHkgN05pvjW/1HS7SG2sD/AGdaTNtmv1j3fZjnj5O+a8KvnFatU+r0I8rbWsv8j9By/gvB4HDPM8wq+1hFN8sNV961dvkr7uyMbwH431q6i1G6+H3ipfC2pXkf2bWYpYwxmVRtU/N049Kr6X4Q8YaNp/8AZen/ABPtI7cF2AMKEguSWwe2c15p8S/DOkaTPf38nxAa/wBZUIzwwW5RWBHGWXgcV5l9vvv+fyf/AL+Gu2GX4il/Cq8q7WT/AB6+R8u81ySdaeJr4FTqz+Kak4OdtE2ldXtvrufUo0f4gN4G/wCFay/FqNvDrPva22ruPzbj82c9azbfW/hJ8OLu7sI7hRfbB528GXewHHJzXzZ9vvv+fyf/AL+GoXkeRi8js7HqWOTUyyqpW92vVbj2SS18+5rg+IctybmqZPgIUpyd223LXq+mr6u+vU9R8TeM9W+LOt6dY+HdFNtNbOcFZdokGcjc3QdO9e5eCF0/x7rdrdajp0eg674HQLMiOJv7R8wYHzDpivnDw7480rQtPttMPh/zYJM/2liXa11j7uD1XHtXqnwQuv8AhIJvFcvhKX+w5JvJa3R381ht6rk8nNd8MFRpcvIrcu3z3PnsxzTHZm5OtVa53FytZX5dEmtmrdPnukz1PwvfaTcfEDxVaWek/Z7yDyftNzvz5+Rxx2xXZPJHEpeWRUUdWY4A/GvKvA99qOi+PtWuvGtmuk3XiMItlGzhhL5Ywxz29a7X4geHG8V+E73RkvHtt4EvmJ1IXnAx64rrOE6GORJEDwyK6HoytkH8RXN+M/A/hvxXavc6zZu8trDI0bxyFDnHfHWuG8DQeM4dAtfEXhqaRtNjkMSaDKPmODtZvMPPvXoUviXSLsappP2pYryztibiOT5QpZDwCev4UAeY/Cr4V+DPEfgu21bV7S6mupJpVZ/tLjIDEDvXW/8ACjvhxlS2kzuFIYB7l2GR7E0fA7B+HNmQc/v5/wD0M13tADIIYbWJILeJY44wFVVGAAK53QvCsek+Ldd8RrqKzNq3l7oB1i2jHP1rpR1rjfC+paddePvFFha6c8N1a+T585kLCXI4wvbFAHZV7l+zDrbahPr3wkW0Xd4ut2K3bciBo0JHy9814aQQMkYrZ8B+Nb/wZ4qsvEnh7VIobm1kCvIhD7Y2OHyPpmsMVh4YuhPD1VeMk015P0JlFTi4vqfN/wC1X8PPFnh21tbTWZ4ruTR7i4FzMAsfDOduFHt6Vo/8ExP+TyvBP/bx/wCizXu3/BRD4eeHdU8Lx/Fvw2k91peroh0+RN2BIMCXI+ueteE/8ExQR+2X4KB/6eP/AEWayy+pUqYaDrW50rSsmldaO19bX2fVaiptuKvufvF4y8NL4t0GXRHnEIldH3Fd2NrZ6V85f8FKIvI/Y58UwA58t7JM/SVRX1TXxD/wVZ+Lnhnwn8Bn+GmoTr/avi2aL7GntFIpYn0onSoYes8U0+aXLF2u9E3bRdnJ3fbfRA1GL5ur0Pj3Tf8AkG2f/XvH/wCgirFVdLeN9Ms2jkV1+zxjKnI+6KtV2FhRRRQBjaH/AMnG/Dj/ALef/QaNc/5ON+I//bt/6DRof/Jxvw4/7ef/AEGjXP8Ak434j/8Abt/6DXxr/wCSu/7l/wD28+gf/Ih/7i/+2iaKiP8AtF/DlZEVlP2nhhkfdpNbRE/aL+IyxoqqPs3CjA+7TtD/AOTjfhx/28/+g0a7/wAnGfEf/t2/9Bof/JXf9wP/AG8Gv+EG/wD09/8AbQ0L/k4z4cf9vP8A6DRrn/JxvxH/AO3b/wBBo0L/AJOM+HH/AG8/+g0a5/ycb8R/+3b/ANBof/JXf9y//t4P/kQ/9xf/AG0ND/5ON+HH/bz/AOg0a5/ycb8R/wDt2/8AQaND/wCTjfhx/wBvP/oNGuf8nG/Ef/t2/wDQaH/yV3/cv/7eD/5EP/cX/wBtNmkpafboJLiKNhkM6qfoTX2LfKrs8BK7sdxoB0HwZ4ei8W34F3qF2GFnARwpHBNYI+KHjUylre8RSSSoSBcgfhVv4oX1nDc2fhewsfIh0tAwbdncXGTVLwTCumwXvi6YBxpq7VgccS7xjjPpX86ZrjpZniKmNrXlzN8qfSN/dVtlp+O59hz1KNWOCw8uSMFq433SvJvq+v6Dn+K3jlwUk1VWXuGjBFaOvfFPW/A3wk1/4geJNPtNQjEYisoTsjZ9/wApI78ZzXNeGtGTxNrwtZpGggcvPLIF3BEHzH9K+bP2tPjR4a8e6np/gzwNDIujeHDJEtwJCBcs33iV9iK6cjyOOcY+GGjT9xNSm0tkul9NZNW77sVHMMRh6M8XVqt7qKb3l3trok7+tjwy98Sa1dXk90uq3qCaRpAv2h/lyScdapXN9e3u37ZeTz7fu+bIWx9M1DRX9ARpwh8KPkXOUt2anhm1sLvWbePU7xra3U72kEZc5XkDA9aueNfEy+JvEFzqdtb/AGSGUInlKcAhRjJHvjNWPhrZ3l/4st7ax1GOxmaOQiZ0DAYU8YPrXPX8UsF7PFODvWRgcrjPPXFciUJ41t7xireV279Otl1e3TqfZLvhnw3qvi3W7bQNFtjPd3T7UQd/Wvv3wp4WtvhF8NtM8FpdwpqRUtqsuAucnKjd7V4d+yj4H1HQNJ1P4zN4cGpXGmbE0y3eQIJt/wArkH2616jqPh258Sy6onia/kutN1LY8dmCVa3PUjeOTzXk2/tnMWnrRoNdnzVLflBNdPifkegv9jw/N9uon8o33+buvS/cz9Z+K3gzRNQl0q7v5Xu4+NscLOrMeg3Disa51/4meILabTz4U/sO3ljZ/wC0POEmIwM42/7Q4/Gu00bwxoWg6fFpmnadEIIclfMUO3/fR5q7qB/4lt2O32eT/wBBNfSHmnLfCe70698D2c+l6f8AYoPMkXyt275gxBbPuea7D6VwXwO/5JzZ/wDXxP8A+hmtD4kePI/AWjfak065vL24Ui1hjiZgx7nIHGKTko6tge2fCr4s/CbTNWi8AHXEg8VXRInhkBVTgZHzHgcVy/7U/wARfEPh2fTfDPgyW11TVfEgeOykSRHWyVeHyvIbIz1r8+de1XxNrviX+2taN1bXt7KAJSjRHBOOOnQV9HeEfhvoXwuQeNvF3iOfUpY40e2dyzNDuHOFySetfnC8PcPLPnnbrucZ35oySle/RS0tFaK1nonFuzaPO/s+Lr+25r36M634dfDLSPA2mOskMV3qN2d93O6Ah2JzgA9MZrV1zRYree38U6LNb6XrGkBntrvy1wikfMuOhyOK4zVvjtp8up2OkeC9LfWLq83ZWbMAXHu1Ra/4r0n4h6JP8PNS1FdE8R3fW3V94QjkDeOOa/RKlKFam6VRXi1Zrpbseg0mrM9G+FP7Y3w6e/uH8VrN4Uht8K24tOL9uhYH+HB5/Gt7xT8YtU+Kurxv4PuFg8G22QJ2QE6nn2PKbT+dfLXww/Z8+I3xe8U/8K7vZVsdN8OMRdXWxW+zh+VJ7tmvrD4Yfs0y+BobrwjN8SU1L7MM29s1uIyhPJ2/3s1+UYzC8IZDnrxmMqt1qcU+VqU1DtKTSbvrpzSdk1ayseVOOEoV+eb1Xzt/XmYBsNPJydPtc/8AXFf8K5fWfhP4H17UJNU1DTZfPlxu8qZkXj0A4FdXfXEGn+Jb/wAJ3TNHqOnEebG64BB6bSfvcelSV+rUa1PE041qMlKMldNapp9UerGSkrrY5zwV8HfhRoniSLWLzRCxhjkKtJIz5fb8vX3ry228IeJviL4v13WPFUUmn6H4SkDNa78KEY/L83foDXutQ6naW+r6Bf8Ahm9TOn6pt+1InytJt6ZYc1zYrBqu3Ui7TtZPsup2YLMsXl070nz05ODlTk3yNRersurT9G1G6aR4rb+JfFXxA8VLpPw4vP7P0fThsn1ERAq3HGFPuMV0F1Y+K/Cc8beLdV/t7S751huLkQhfsuTgfKOuc133h/w7o/hbTI9I0OzW3to87VHJ59T3rQdEkXZIiuvXDDIpzy+hOi6LWj187979z0aXEWYUcWsZCfvJWSt7vL/Lyqyt5fPc8n174UaBpnxEfwR4etzfaOUSXXXfOW3Lujwx+vatc/AH4V548Pn/AL+mvQtq72k2je3DNjk/U0tb0KXsKag23bqzx6leriGp1rc9km4pRTaSTdlor7u3U8q8R/s7/Dy90ia30q2GmXTEbLp5CQn4GuLP7KEQZUbxpGGf7oMXLfT1r3vWdGsNfsH0zU42e3dlZlVipyDkcimXGgaZdX9hqc0Tm401StuwcgKCMcjvWxmeV+Ev2ZvCujm4PiWf+2PMx5WAY/L9enWs+L4b6d8PfjN4fn0O4aOy1TzCtqCcR7V7nvXutedeN/8Akqvgj6XH/oNAEPx88PWep+ETrHkSnUdPmRbSWMndHuYAnAq7oOpeP9Mjj0XVtJ+32kdqXOsFwufkyBs9ulX/AIs61f8Ah/wVdanpkipcJNEqsyhhguAeDXSBjPooMr4820y7AdMpycUAc38KNZ1DX/BVtqmpyK9w80qllUKMBiBwKwPj34f0u98GyazNCy3drLGkckbFDhmAOcdePWug+FlnpmneD4LDStT+3QxyynzCuxsljkFeoqh8cf8AknN5/wBfEH/oYoA6fwpoem+HfD1jpekweTbJErhc55YZP61rVX0//kHWn/XvH/6CKsUAFcZ4g8CarPqs2t+DvEP9h3l7j7c/l+Z5+Pu9emK7OigDzl/A3xTkRo3+KeVdSp/0QdDWx8O/h7Z+AtNktxeS3l7ckm5uXY/vOcjAPSuuooA9t+Heo2XxN+EviH4Q+ItRhbULa1d/DcEqDCYBaTk8ZNfPH/BLv4I+LNV/adm8fvayWth4KuJlvfOTy/8AWBlXrW9bXNxZ3Ed3azNFNEwZHU4IIrV+KX7WXj7wv8MfFB8MeGotA12cW63XiCAqP7QCn5f3YGF2jj3rgrU54b2lfDR5pSt7uiTe3M3a+1r76LRX3zknG8oq7P0d+OH7UPwv+CPhnWNY1/xBbG70uME2quC5dh8owK/Cj9pf9pnxf+098SF1/wASTMmmxXGywtM5EKEgHB9xXmnjf4i+MviLrl14i8Xa7c317eEGZmchWwMD5elc/bmUXERh/wBZvXZ/vZ4rnwmBxE6qxWPknNfDGN+WF99/il05tNNkru8wpyb56m/5H3x4Y0aw0DQLLTNNjaO3SJWCsxY5IyeTWpXMfDaTxDJ4M09/FMivqGz5ypBG3+Hpx0rp69c2CiiigDG0P/k434cf9vP/AKDRrn/JxvxH/wC3b/0GjQ/+Tjfhx/28/wDoNGuf8nG/Ef8A7dv/AEGvjX/yV3/cv/7efQP/AJEP/cX/ANtDQ/8Ak434cf8Abz/6DRrv/JxnxH/7dv8A0GjQ/wDk434cf9vP/oNGu/8AJxnxH/7dv/QaH/yV3/cv/wC3g/8AkQ/9xf8A20NC/wCTjPhz/wBvX/oNX/iN8PvjRpnxm8X+L/C3w8/trS9YERim+0iPAReeDXnnxFufEVn8S/Bc/hTWf7K1Mef5N35Yfy+OeDV7Q/iV+0Xr3ibXfC7fFzyxpIQGT7Gv7wOPTtXNmmGzH/WBYnLJU+f2Vmp823Ne+itvbr8h4LGYH+z3hMYpfHzJxt2t1JPhrrninWP2jvAaeJvC39jNA1ysY80P5ny8/TFdFrn/ACcb8R/+3b/0Gud+Guh+KdH/AGjvAb+JvFP9stO1y0Z8oJ5fy8/XNdFrn/JxvxH/AO3b/wBBown1n/WiP1u3P9X15b2/idL6hO39h+7t7X/202altP8Aj7g/66r/ADqLBAyRxUQ1CCFJLyCWKY2oMpVHB+7zg46dK+5mm4tI+fi7NM6H4lJ5vjaaLON6wrn0yBR40kFhHYeDrciT+zxkzqcCYvyAcelUb7xTafEfwVoXxItdEbT59TaWKdAxcfuztBz+FXPAmhNqeoyaxqlv5um6dG007yybRlRlRk+4r+aalOWHfLVVnBtNf3lofX1YSq4qdGlq6jTv/dfvdvRvtY5H4+/FHU/gB8O7DRtBsIYfEfiaNxNeCQM1ug7bfcGvgaeaS5nkuJTl5XLsfUk5Nd98dviPJ8UfiVq3ij7I9nDJJ5UdsZS6xhPl4+uK4GGCe5kENvC8sjdFRSxP4Cv3LhXJY5NgI+0X72es359t3pHbt16nh5pi1ia3s6X8OGkV+vTV7sZRXe+APgb8TPiWbseFPDsk32LaZvOYQ4z0xuxmvpH4S/8ABOPxT8QdMNxqPiL7DqtmwN7p3k7gozwA/Q5HpXbjeIMty+XJWqrm7L3pd9ld/Mwo5diK0edRtHu9F97sj43svtn2mM2CytODlBGCWz9BXtPhH4TeLfjvYT6hpuhGHV9JaIXjy/uRdIxxkBsAbVFfXPhDSv2RPgB451PSPiR4LuNE8ZaLBixRo5blZ5DGeVABBzx9M15j4s+PeofF7wzp/hTwR4au9E8V/apIJJIbVk8yFnwGbAAGE55rBxx2dUI4vA8lJKEp81WXK0ovWPKr83OvhV/PSxpUhg8DFSrSdRtpcsF37t7W8108z0yXw9aeDPDWk/D7QbRmtdHjy00PzLI7jLDI64Oay5IZ4QGmgkjDfdLqQD9M1B4u8BePf2Yb7wB4YvPj6bnwprokub68g0sXbWGMMyMVyTkkjnpX0/46+I/7LOufCfQ/Fmo69C+nzo0Ol3SQlWlnHykMo5G5vX1rz8pxOLwdCNGjh3WglKTlDmlJtNuUmnFJXd2/e09C8bLD4iXteflbaVmtIrRJXTbdtFtd+p8yZFQah/yDrv8A695P/QTXf22jyf2pB4U+I3gWPwLqGuxvP4fnkvBKt7Eg3M3ovy4OD61y3iLTdGXwumu6Dq739nfR3Eau8RjIZAQeD716uGz2jWrrC1YSp1JbKS0enNdSV46q/XoTXyypSpurCUZRSu7PVa21Ts/wPN/gOofwDpyMPla7lU/QyGvedS+J/hOz+IWgfA7wtpUM9/dKWu7uS3DrZELuxkjDbq8D+B3Hw6s/+vif/wBDNei6Zf3Gj6mms2Hlpex/dmKAt+Z5rzOKuGHxFGD9pZ01Nxi/hc2vdlLe6jrpZ3v2un4WKw31i2u1/S/S5V/boj+H9p4U0uzm0SCfxMHX+zntUCtGQw3bgvr714P4w0v4gam+ia3Fqb2etNEBpui+VvQAABizdORzzXud9Z22peIL7xRqEYuNR1Hb58knzD5em1Twv4VKY42ZXaNCyfdYqMr9PSujhDIZ8N5TTwNWfPNXcnra7d7K+yW2lr721KwlB4akoN3Z8t+IPDPi3UZIJPi3rraG0QP2I29ruL5+99zpVHQ/gf4h1rXI9S0rVZm0QkumrMpV/lGc7Tz1FfWEsFvcY+0W8UuOnmIGx+dOSOONPLijVE/uqMD8q+mOk8t+GOt/FH4Y+JE8d+DL5vF+naxmPVLZ0FuZfLG1Bk8jFe2fETxtf+Nfh5Z+OdE0ttC+JGnPiwtll3CBWbDFuzfL61ioiRLsiRUX0UYFO75r5TNeDMqzbHQzGrBqqmrtO3MlpyyWzTWj0u1pexy1cHSqzVRrX8/UnkvR4i0LSJvHlquqeK9MDFdXT90SW6hlH3sdOagoor3MuyzC5TSdDBx5YNt2u7Jveyey8lZeRtTpRpLlgrIKKKK7zQa0kSMEeVFZugLAE/ShJI5F3xSK6+qnIqhqGgaZqd/a6leRO1xZq6wkOQAGGDkd6fo2jWGgWCaZpkbJbozMqsxY5JyeTQBcEkbMyLIhZfvKGBI+op1ULPQ9OsNTvNXtonW6v9vnsXJBx0wO1X6ACiiigArzrxv/AMlV8EfS4/8AQa9FrjPHegajLquk+NNKh+13Ghbz9jzjzVbqc9sDmgCf4p3On2ng66n1TSW1K3WaLdbqSCTuGDkenWt9biM6J9qtSu1bTemDkDCcD8Kx7Xxz4T1sWFgbpXl1hXSKB05JX74IPTFc/qAvPhnHdKBJceF7iOQd2awYg/i2SfwoA4DwYPihZyJ8RdF/4nNvqkk32+xGI1URkhcf/WrW8W/ErS/H3wt1AhBZalbXMIubNzho/wB4MdetX/gd4wW28O2ehatafZIbuaZtPuCcrcfMSc/3ce9bHxD+DHhXxXZ6jqUEP2LU5k8w3KE7flGfujg0AdVeeKvD3hzw5Dq2rapBHbQwRByrhiMgdhXNSfHn4arbvPHq8zKAdp8htpPYZxXB/B34M6Br/hptc8VTzakt07RxQmRgItjEZ685rrPil4X0Hwx8KZ9L0bTooYIbiHZlQWGXGeetADdL+J/xE8R6Z/aehfDVpLWfesErXAUnHAODXR/DbxDqep6dLo3iafPiHT2Jvosf6sMcoM9DxXU6WqRabZrGioogj4UYH3RWV8Mfhx4g1n4jeM9TAjhs7qKNopt4LblU4+Xr1rbD4epiqsaNJXk9jbD4eriqio0Y3k9kbnr7daiS8spG2R3sDt/dWQE1U8d6jby+C/A/hbwmtyfGrz3MPiUeS2NhfEfOMfd9KZqHwC8M/D3V4NSgtZjPLHuWU3LHJZfmyueOpr0sbkeKwNFV52cfLprZN+Tto+pjho1MTTqVYQfLCyb7N9P8yj4j8f8AhXwoYRrGo48/OzyVMvTrnb0rz74qeKpfFXwu1+7tdPaPSlMX2O6bgz88/KeRivQ9A8B+F/DUlzLpenfNdHdJ5zGTn23dK5r49xxxfCnVUijVFBTCqMAc+leOB8aVNZIst7bxP915UU/QkVDUluZRcRGH/Wb12f72eKAPvjwxo1hoGgWWmabGyQJErBWYsckZPJrUrlfhtd61J4Q0+PxTdwPquz51WRSdv8PA9q6qgAooooAxtD/5ON+HH/bz/wCg1zvxK1zxTo/7R3jxPDPhb+2Wna2WQeaE8v5ePrmui0P/AJON+HH/AG8/+g1zvxK0PxTrH7R3jx/DPin+xmga2aQ+UH8z5ePpivhMZ9Y/1of1S3P9X05r2/idban0UeX+wve29r/7adj8Ofh98aNT+M3hDxf4p+Hn9i6Xo4lMs32kSZDrxwKoa7/ycZ8Rv+3X/wBBrmdc+JX7Reg+JtC8Lr8XPMGrBwJPsa/uwg9O9Ufh1c+Irz4l+NJ/Fes/2rqZ8jzrvywnmcccCjK8LmP9vvE5nKnz+yslDm25k76q34/IWNxmB/s5YTBqXx815W7W6B8RbbxFefEvwXB4U0b+1dTPn+TaeYE8zjnk1e0P4a/tF6D4m13xQ3wj8wasEJj+2L+7CD17102hf8nGfDn/ALev/Qav/Eb4g/GjU/jN4v8ACHhb4h/2LpejiIRQ/ZhJkOvPJozTE5j/AKwLDZZGnz+yu3Pm25rW0dt7dPmGCweB/s94vGOXx8qUbdr9TjvhrrninWP2jvAaeJvC39jNA1ysY80P5ny8/TFdB4gDN+0R8SVRtrFbcK3odvWuf+Guh+KdH/aO8Bv4m8U/2y07XLRnygnl/Lz9c10Wuf8AJxvxH/7dv/QaMJ9Z/wBaI/W7c/1fXlvb+J0vqE7f2H7u3tf/AG05SfwP8UZjKo+KG2OTcNv2QcKe1X/Bfw9s/AXh2/gF5Le3tzDIbm5dj+84OMA9K7WoruNpbO4hQZaSJ1UepI4r7s+eOL/ZR8VeIvEnw68ZeD7+48/TtGuIxYRCMEwmSQ7iD1rQ/aR1TxbqEehfs9/C3UZ7nULlGbVoViMIc4DIPMPHT3rzr9k7VPHHw/8Aj7/wg1yDbWervK99bMgYTBVLLg19K/EHxLYfECOTSFt08M6nG5WHWRHukgweeOpyK/FM+isn4ldd004v312Ta5eaStd2abstXve59phKtKtlqlKdptcmt9UndpS2V00rvTTsfMmhfsiaHaabHcfEb4kW2h6xCTJd6YUEhQDnG4HuK7jwLdfBy81qO2/Z/wDhm+qeNrNGNsWdmjOxTvY7vlGQCeaqav8AswaJr+rSa3rXxym1G6lYM6G1ZfOx/BnPGen4113gnS/jx8KPG/8AavwR+FVn4V0W+8uK/ie9juGmUceYGble7YFenLMKGZQcsVjXN/y/woa7xd7Oaey382r3OB0cRR0wtFLzVpy8nfWz81YwPGPx58R/Ebwbpnhnwv4Su9B8cW8zwTGO2aNZ23YwWwF4r3rwf8WPjh8J/hho/wAHfinpzeAfEWrpJLpnivAujOB82GQdOMDmqX7Tnxf+LmhfDbVfDeg/DSz1JYTbuPF1okYkEhIYjylGeD8ua4nx14c/aH8T/s4aR+0B8SviwbuXSpI1XQjpy+ZFAZArfMOfu819pTw+CzWnhcRl2GouhTjBS5NG5K8mpTtJXa0be/bY8nEYfFU6so1JylUkub3lskktFpov6Z734B8YeCfFPh/w34s+IEdl42+KPhgXL20ssKwCVCTktxtPyDvT9F+IXhHw94A8bftOXsulTWHiorY2ehGCOOSzkUmIhT1OWPUV4P47+NX7Nf8AbXhHVfhbeXuo21rasmv6db20v76V0ABLgfLhs1ynw/T4cfEf44+Gvh5440S91HQJpJZZUikkSC343Lnb8rHpXVi8tlKFbO5zpUFRa5aUWnLk3k1zL3pQ5o3ktN+qscv1qtRxNHBxjzza1lFaXSVr9NdfRmx4O+Pniz9nWHXPDHi/4M293ZayypHJdagtx9lW4PDKWz/fzxU3jT9n67+BkHh2KZk+KPh7xGzXq2EEoiXTJHIdTlSc4LZ/Cu3+Nf7KXgl/ibZeLdc1+7m8Eyjbp2i7HJbauMGTr1x1rpfhN4esfDX9v6DZaZLZ2dpEDb208xnMQIJyGavj8/47wmUxdDhyc/ZtXfMnFy5rc3NJO797XTRppXPawGQ4jMPZwx/KnzOyXvONrtX0VnZW1s73sjE174d6r4v/ALNl+Mfih/HV/ZoreHrOEfZjYrgbkLp14wOfSnfGaYW/hjTI72xg0lxbTILbeoC4XAx6mu9+Fel2UHh8aosZa5uZZBI7tuPDHGM9K8v/AGpfh/Y+Nta8K3uoX7i20symW1RyPNz0yR6V8dw1nGNzfiehLGVHNrm1fT3WtFsj6rM8JCjk1StBcvMo6b9Vu3q3+C2PG/gijx/DuzWRGQ+fOcMMH75rvKZDDDbxJBBGscaAKqqMAAU+v3s/NgooooAKKKKAGtJEjBHlRWboCwBP0oSSORd8UiuvqpyKoahoGmanf2upXkTtcWausJDkABhg5Hen6No1hoNgmmaZGyW6MzKrMWOScnk0AXGkiRgjyorN0BYAn6UJJHIu+KRXX1U5FUNQ0DTNTv7XUryJ2uLNXWEhyAAwwcjvT9G0aw0GwTTNMjZLdGZlVmLHJOTyaAL1FFFABRRRQAUUUUAFFFFABRRRQB534s8Ax2PiW1+I/h2x86/sCWmtA2FmBGCR2GBz711VpreleKPDdxqFiyzRPBIGR15VgpyCp962q4fxV4d1PRZrvxT4Oh3zTRML6wBwt0NuAR2XHXjrQBk/CzQNO8R/Ci20zUod0bTzFWHDIwc4IPbmpdF8dHT9T1T4d+JLp5b2ygdbe9ZCqXClSQM9BgcVD8ALPVoPCBuL/U/MhmlkMVkVw1qdxznvzV/44wQf8K8vpREiyPNCpkVQHwXAPPWgCP4KX9jb/Dm1M17AhSa4YgyAHAc9q5z4q/E7wh4j8I3OhaRdXM15JcRBU+zuAcOM84rpdN+CXw6S0tJ00udWMaSEC5cDdgHpn1rsrzTdOi0y4VNPthst3CnylyMKcdqAJ9MdH06zaN1ceRGMqcj7oqb4AWmnD49aoYNbkuZrqSFbqzOQsA6fQ5r5j8IftEyeCtHXw2/h43rW08v75pjlsseK+i/2TNC8ba343v8A4wX/AIcbTdK1co1sztzlOM4PPWvVyWjVrY6l7KLdpJu3RX3PXyKhVr5hS9lFu0k3borrV+R9f/H7SdM8FarfL4c0+3tTELco3lAsCwGea+eviNJJJ4qnLuTmOM4zwCVFe9eOzqPj2KZtWvsXExj3S7eydOPwrxr4i+FtaOq3WtxW3mWKoiiVTnOBjpX2XE2DxiwUYyTlZQvbXVKXM/y1PtuKcBjFgYxacklC9tdUp8z/ACu2cJXnnx+/5JZqv1T+deh4J7GvOfj7Pbn4Y6rALiLzcx/u943dfTrX5wfmR8a06JHllSOMZd2Cr9T0okjkibZKjI3owwam07/kIWv/AF2T/wBCFAH0H4E+BHjaws7TxOvi+bTNUVC6QMDIBkcDrjkV2XhPx1490nVdL8J/EDQNkt60gGpGQBWC9CR0FemWH/IPtP8ArhH/AOgiquvaBpXiXTn0vWLfzYJMZwdrD6EcigC959v5fnC4iMf9/eNv50/39a5HXfh7Z3vgh/BWhXkunQ7leKXcXZCDnr1q14O0HxRocc0XiPxT/bClVWH90E8sD+dAFvQ/+Tjfhx/28/8AoNc78Stc8U6P+0d48Twz4W/tlp2tlkHmhPL+Xj65rotD/wCTjfhx/wBvP/oNc78StD8U6x+0d48fwz4p/sZoGtmkPlB/M+Xj6Yr4TGfWP9aH9Utz/V9Oa9v4nW2p9FHl/sL3tva/+2keufDX9ovXvE2heKF+EfljSQ5Ef2xf3gcevaqPw6tvEVn8S/GkHivRv7K1MeR51p5gfy+OORXofw5+IPxo0z4zeEPCHin4h/21pesCUSw/ZhHgIvHIqhrv/JxnxG/7df8A0GjK8VmP9vvDZnGnz+yunDm25krau34fMWNweB/s5YvBuXx8tpW7X6BoX/Jxnw4/7ef/AEGjXP8Ak434j/8Abt/6DRoX/Jxnw4/7ef8A0GjXP+TjfiP/ANu3/oNdL/5K7/uX/wDbxP8A5EP/AHF/9tDQ/wDk434cf9vP/oNGuf8AJxvxH/7dv/QaND/5ON+HH/bz/wCg0a5/ycb8R/8At2/9Bof/ACV3/cv/AO3g/wDkQ/8AcX/202aKKByRX2R8+fPnxR8ca94N+MGi614b8Q7b+zuFSOP7MB9nDkAjcfvZBr6Y+IjmbxO87hd0ttBI+BgFigJP518a/H3xLqLfE1rS5ZJLbSZo5IECgHsSCe/SvrtvFdh8RPh74Y+IdvpH9n3GqRNDNHv3Z8oBQc/hX5h4g4Zqrh8Uo6e9FvTyaXfoz28BJ1MFVpc2zjK3lqnb70ZHTkVN9svMf8fk+P8Aroaior8+Mk2tj3T4S6140+GXgTVvGl54KXWvD+qoFFxPKGERHGdrZzzXnF38UvF99HNZ3F7G9jOWDWxiGzYf4cdOleh/CLTPFnxR8Dav4Jn8eRaToekx+YLR41PnfxYBPPUV4ncxC3uZrcNuEUjJn1wcZr6fPIQeWYFUl+75ZX0s+fmfNfvpypNaWS63NqWIxFFPklJJ+ivotra29et+h13wv8R+APhSdStvBXw7tbY6+BFfNMRLvzwdu4Hb1PSu41ddF+E2i6RpHg3QY7ZLqcTLOUDvFuYFvmIzzk14za/8fcH/AF1T+Yr2f4tard2cHh6xjdRb3LxGYFQSQCO9fG4ytWr16cKk3JN3alJtOy03fQ9/L8TL6niKukZJJJqKT1flbf8AA+l/E19ZXfhBbieZLhL6GI20bQD92QBu5xxXhGoabrmia1f6no+m/wBpLrChJV3bPIAGM+9e2+N/Eul6R8PX1a8vGa1ntovs0awHKEKMjj1rwC013x34ynsrjSLRtI01mbzJ2wxcA8cHkVrxKpyxcZ+7y8qT1ut3p8Utre7Z/Dy6Hr5fOlGh7O0ufmulHV7KPVW02be9mzrvCmiN4e0WHS2m80ozOWxjljnFeKfFJnPjS9UuxA24BPA4r3PVdXstB05r/UrgKkSjJPVj9PrXzt4r1weI9dudXWHyhMcBc54FfSeF+ExFTMKuNcfc5WubpzNp2XyRycY1aNHB08JB+8mnbySaMmiiiv3I/OBrSRIwR5UVm6AsAT9KEkjkXfFIrr6qciqGoaBpmqX9rqV5E7XFmrrCQ5AAYYOR3pulWWh+G7JdJsriKCKNmYJLOCwJOT1OaANOio4ri3nz9nuIpcddjhsflRLcW8GPtFxFFnpvcLn86AJKKhjvLOVgkN5BIx6KsgJP4VNQAUUYPpRg+lABRRg+lGCegoAKKMH0owfSgBrSRIwR5UVm6AsAT9KEkjkXfFIrr6qciqGoeH9M1S/tdSvIXa4s1dYiHIADDByO9SaPo1hoFgumaZG0dvGzMFZixyTk8mgC7RRgnoKMH0oAKKMH0owR1FABRRg+lGD6UAcZr+g6loGoyeLvCMW+R+b+wBwtyo7jsuBzx1rE+KWvad4k+FNxqWmzb42ngDKRhkYOMgjqOa9Ory74rfDfVNV066vfBj+XcXTxveWQ+7dbSCMdlxQB6Tp//IOtP+veP/0EUuoA/wBnXfB/1En/AKCa8+tvF/xUS3is/wDhWQTbGsXmfax8uBjd/WpP+EK+KEx3TfEsCOX78P2UcKeq5+nFAHnv7NPwS074l/EOy1K6g/tbSbK4lfWoM7Ps3J8vn+LJFfq14N8GeG9I0aPVfFEiWOmyW0kemW6JxO6qQOnTBxXy3+zP4F8MeCjrX9hWot5r0R+eS+fMI74PvXuviP4w+Gp4vD/w2vGa2vrHzPLdlOyTPPLdBX6fw5hFHLafsnZ1ZPmatdJJ7fd57s/U+HsPToZRTcZ8ntpNSldJrdJRb63Stu9XY8x+EnjfxNr2oa/4N8a2Qh1PRZmDS7xmaJ2Ozgei4qzrfiC68BeJdK0F9P8Atfh/WC4lmZv+PIj2PLbjXEeGnaX9pTxFNA5eBhF86HKH5fUcV6b8S9KtL3QxfSQNJcWsieURnjLDPFe5mNapOjVq0ElOk9G+qsm1807W7m+X4rE1cqqzjLmqYec4qUtXKMZdbLW8dH3eu582/tHaHqXw98S22sWHxGk0zTtZJe009LIybcYyC3ua+aPih4vtdXvb22uvBc0OuDy2a6juWkQYwQ20ccivvn41RWN7a6Rb3EcEzCIqysAzKCB+VeCt4H0bwdpmpXPg/wANJeX1/hHjlfcWzxnLdMZzX5dxDQp4bMalOkrLR29UmfBcS0KWGzOrToq0dHZeaTf4nzNElt4vtQ/kDWPEepAF8DyVs1j7E9DuArZ8H2Hg/wAWfEHQdFHgqTSoULC5VpWPnMo4Iz7iux/4VXObmPwV4T1E28rN5uv3vlY2EndGBn06cVW0SbxDbfHXSfDutarHqMWmbkguI4QgYFPUda8U8I+ikjWJFiQYWMBVHoB0p1B6n60UAFFFFAGNof8Aycb8OP8At5/9Bo1z/k434j/9u3/oNGh/8nG/Dj/t5/8AQaNc/wCTjfiP/wBu3/oNfGv/AJK7/uX/APbz6B/8iH/uL/7aGh/8nG/Dj/t5/wDQaNd/5OM+I/8A27f+g0aH/wAnG/Dj/t5/9Bo13/k4z4j/APbt/wCg0P8A5K7/ALl//bwf/Ih/7i/+2hoX/Jxnw4/7ef8A0GjXP+TjfiP/ANu3/oNYV/4rs/DPxt8Ba6slvcLbfaMqJQByvc9qLDxXZeJvjb4911pLe3W5+z7VMwI4Xse9aeyn/rV7W3u+wt8+cw+s0v7I+r39/wBpe3ly2N3Q/wDk434cf9vP/oNGuf8AJxvxH/7dv/Qawr/xZZeGvjb4C11Jbe5W2+0blEwxyvc9qLDxZZeJfjb49115be2W5+z7VMwxwvY96PYz/wBa/a2932Fvnzh9Zpf2R9Xv73tL28uWx21A6j61X/tDTh11G1/7/L/jUd1qdjHaXEsWo2u9InZf3q9QOO9fXHjHx/8AtAf8lS1b6p/Kvqv4CahoHjD9nzTdN0nU2k1TwmXN7arGSQJG+XmvjrULfxb8R/FlzOIJL2+uHf5wuFZUz36dBXqXwPuPiL8OtA1jxDpvjJPDFjdFUlDW6zvOVOPuHkYNfN8UZLUzvBKjQdpxkpK+i7O+j6N/M9DLsVTw05KsvdkmnbfumtV1SPp7Q9H0e783/hINXk0rbjy98JO/1qxq/hnTYbJ9Q8Pa0upQW/8Ax8krsMeemB3rzDw18bPEuorcPqlqvxGWIDDPGLAWf48bs10Fv8VPBF4rL440pvAigZhFvIbwXXrnb93HvX5ZjOFs4wUnOVNyiusbSXyWkvw/A9anLCVafJTcW+l7xl87tw/HVeZ1+keD/Fl/p41LSflt5ATlbjYWA9RmsKW1uoixmt5V2kgsyHGfrVvw7qHhjxq8kfwz8aDVGsSGuknb7N5Wfu8MRmut13/hYtzoc6agbS4sYwol+zlHYen3ea8Gq61Cp7Kto+zvFr5P/gGjwKdPmUZaLdWlF/NWsvvOb8HaH/wkfiOz0r7R5PmNu34zjHNel/GeMxXvhqIAv5Uqg4GcgEVxvwptrmPxzYM9tMqjdkshA6V7L4t0md72w8SW0aXD6WWP2d8AOD1OT6V5uKr+zxkHvZaLzZ7OU4JYjKqqSs5SV35Kz28tT2jxFqmmXPg5Qb2KeK9giFtAYh8hUDdXkmt+KdA8Lokeo3KQGQExoo6kdsDpXGeMfi1bRWCWvhq4L3LcM/aEjqAO9eU6rq2oa3ePf6lOZpn6k9Pyr9BwXB+J4orwxuYwdCklblu3N2/xXsui7RSXmGKz7DZLTeGwL559+i+7d2S/U1/GfjK/8WX5kkJjtYyRDCDwB6+9c7RRg+lfrmCwVDL6EcNho8sI6JI+CxGIq4uq61Z3kwoowfSiuoxIbyR4rK4mjOHjhdlPoQDivnaW40vV7HRtX17w/LrWs67LOJJReGFVWNsdAcdK+iryN5rK4ijXLSQuij1JBxXzwNO8JWVpo2h+PNQurK90KW4aW1jgdgxkJKnevpwaAOr0J9F8PeLfC0PgVp4NN18Si9SVmYuyDp83TBpPEE2g674r8Up4+llk0zw/5S2So5TY0g6cdcmk8OynxX4q8LXei3z6pDoBm+23LW5hCK33BtPWl8QQaDoXizxS/j6KWPTNf8prJo0L72jHXjpg0AYl3okvhPw7eeMLHwnP4fv7OWH7FO14ZhIjsATtJ9DXf+KPE+t6f4o8K6dZ3W2DUrSaW4Tbne4jyP1rgLvW5fFnh288H2PiyfX7+8lh+xQNZmERojAkbiPQV6rqHg1tU17w34gku/KbQ4SjQ7c+YSoB5oA8j8FfErxlqHirT7G/8TSXH2n7V9os3ttnk7Adnzd+lJ4H+Jvi/VfFGnWd14pe7W6+1efaG32iLYDtw3fpXrmv+BYNZ8SaVr8M0dqdNjmRo0iA8zeMZyPSuT8MfBbU/D+t6fqc3ilLm30xpmt4RbhSDJnOT360AY/wx8c63rniG1t9e8dSG5mllU6U9mV3AE4+f6VsfGnxhrfhnU9Es9N19tJt7xJTPKsPmnKjgYq/pvwx8QJ4vsPFOueK4r5dOaQxQparHw3YkVv+J/BCeJPEOla7Lcqi6ZHMhhZNwk3jGfwoA81u/Ffj27+EVh42sfFHkXUUxinPkg+eC+1T7Yqf4g+KPGHhC08M2Fx4yaGS+hklur1bbcWOMqNv6V1p+Fv/ABbn/hAv7VwPtHn/AGjZ/t7sY/StLXvAaa5rGiapLdqF0e3kg8pk3CTcu3P4UAeR6j8UPFcfhbwtfXPiz+zzqP2n7Td+QG3bD8ny+9dJ4Q8d+LNQn8ERahfs/wDazXIu90e0yhfunHatJ/gXp93Y6Jp2p6j9ottHedymzAkMhyPpg1uW/wAPr46n4d1bUNaWeXQfNHyw7RKrcAYHTAoAofErUvFQ8V+HPDPhrXf7LGqeb5svlh/ujI4Nc58R/E3izwYnh7Sn8b7WuVnN1fx24feV+6No/Kuy8f8AgHU/F2paZq+keIP7KutNWRVfy9+Q4waztN+EbWcegrea39rbRluAzSR584y5559M0AcZa+NvHuu6N4TgsfEv2W61Rbtp7nygd4jyV47dKTwb4x+IT6joFzq/igXltq63YaDyQuwxA4OfqK7jRvhKmlSaAz6t5qaI1wSuzHmiXPHtjNXZ/hhpialo1zo832S10hZwsGN28yg5OfqaAOR+Fmv+L/Fi3es3XjV51sfO8/Tza4Axnbh+/Sqnww8c61rniC0t9e8dSG5mllU6U9mV3AE4w/0rq/BXw18UeDphbxeMUm0xWkb7KLYAktkjLdTgmm6b8L/EMfi/T/FOueK471dOaQwwpaiPhuxI60Aei0UHPUijB9KADJ9TRRg+lGD6UAWdK8V3PhK+GtafZjUJrXlrVZdpIPc16PpHxB+F/wAY9LbQdUKR3E3+ugfMTIR2EnB/KvILTQ9OsNTvdXtonW6v9vnsXJDY6YHao9U8NaRq7RveWzK0WdrRMYzz7ivqcg4i/smPsaivFu+nyvp8tNVa7buevl2fYzK4ujBRnSl8UJLR33s+mne68j6P8L+GvAngi2kh0CS0gQjLs1yruce5Oa5vxp8ffh54X0+R21SO5umDCGALncwrwb/hBPD/APdu/wDwKf8AxqI/Djwizq76e7lTkbpCcV9JPjLA/DSUoxd7+6r3fVPmste6Z62I44x8MP8AV8tw9OkteraXolFIuaHquo+K7+/8cajcSb9WYbYGziILwMCtqmxxpEixRoFVRgADGKdX57jsXLHYiVeXX56LRK/XTqfIR57XqO8nq33b1b+bMnxNLqVnol5PoWkLfX0iFFiBCF8jGS3tXj/h7R9R0LxH8P8ATtahSLUVe7edNwZ13ZIBNe7A4INeGX2ga5ZftGWOs3lvL9gvS32aTJK8Jz9K5Cj3M9T9aKD1NJ05NAC0VAdQ08cHULUfWZf8aT+0NOPTUbX/AL/L/jQBnaH/AMnG/Dj/ALef/QaNc/5ON+I//bt/6DWFf+LLLw18bfAWupLb3K232jcomGOV7ntRYeLLLxL8bfHuuvLb2y3P2fapmGOF7HvXyPsZ/wCtftbe77C3z5z2frNL+yPq9/e9pe3ly2N3Q/8Ak434cf8Abz/6DRrv/JxnxH/7dv8A0GsK/wDFdl4Z+NvgLXVkt7hbb7RuUTADle57UWHiuz8TfG3x7rrSW9utz9nwplBHC9j3o9jP/Wr2tvd9hb584fWaX9kfV7+/7S9vLlsZ/wAA/gX8I4Pg43xq+NWoT3unXJ2xje4NmQ2OCDk5rK1Hwp+z38UviTovw0+DlrdWD6k5M+qGWTcAvOCp65HFddA4i/4J6pKVDCOcPg98SjivN/hV4F+Oms+MNM+PHw88ArLZldluqzqobau0mvladavWq4zH1sTKMoTqQheajBOKXIrPR9X201PZr04Qjh8LSoKUXGMpWjeTTeup7L4t8HfsQeANffwl4vS7j1qwVEmUSTO24jqCPXrR4S8HfsQeP9fTwl4QS7k1q/V0hUyTI24DqSfTrXCv8IP2h9V+NB+Lvir4QrqokbM1g10gD/Lgc0J8IP2h9K+NA+LvhX4QrpQjbMNgt0hCfLg81wezh7K39oz9p7O9/bx5fafy23tfrex1+1q8/N9Sjyc1rezfNy9+1/1KGmeGPgB8KviPrfwx+MMN5fHT3Bi1NZ5AWDfNjYvoOK2vjn8DPhJffCS1+MXwc1O5tdKt5VjkjMrt9r3OF7n5cVxPxV8C/HTRvGGp/Hj4h+AViswuy4Vp1YLuXaDXp8DiX9gKKUKFEl4r4HbM/SvQqV8RRqYPHUcTKTnOnCdpqUG5J865VdJ7PtroclCnCccRhatBRioylG8bSST01LnhTw5ovh3QrGx0iwihiWJXGVBbLDJ561AfAPhU+If+EoOnZv8ArnefL6Y+50rZ07/kG2f/AF7x/wDoIqxX6ufGmbq/hzRtb02bSL6zVba4x5iw/uycdORWf4c8AeFfCvnf2Rp3+vxv89jL09N2cV0VFAHIap8KPBGr6lNq9zp00dzcY8xredog2OnC4qbTfDHibwUsifCvxdNoC3YAvBODcibH3fv5xiuporDEYWhi4OnXgpRe6aTRrSrVKElOlJprsxPBHin4v6B4ktdU8UePoda06HPm2S2SRGTjj5hyK63xP8SNd8QtPbpKbaxmx+4HUfjXJ0V5UOGsopYlYqGHippWWmi1ve21/O1ztlm+OnRdCVV8r8/13t5bBXF+KfEGrad8QPCuiWdxss9R877THjO/aOK7SuM8d+BNV8U6rpOt6L4h/sq80nf5b+Xvzur3DzSHxt4j1jSPGvh7SbG58u1vYblp0xncVXK1ifDeT4ga9pI8Y6n4x820/wBI/wBC8gD7uQPm/Ct2T4f6rf32h6prfiL7ZeaTHOkknlbfO8wY6dsVS8IfDfxV4V/4l/8Awmvn6P8Avf8AQ/IA+/nv+NAGB8LPEHi/xYl3rd341aZbETGewNrtAxnbh+/SshfjD4pg8AG41MNbajcXfl2F4F3C4USYYEdFwPWu08HfDPxN4SY2aeMUm0pvN3WotgCd+erdeM1YPwqjb4eL4FbUlLLceet0Y8kfPuwP5UAcTrvj3xBb+N7zTr/xxLodjCtuYB9jMiylgNw3duas3Gr+IPEPxQvvC1t4qisUiELW6GxWXzgVBbLY4rpPGHwv8ReK5Psx8WxQaZ+6/wBG+yqW+TH8XXnFJP8AC/xHb+KbrxJ4f8YJYfbFiWWM2wckIAOCemcUAc/qnjLxJ4b8XeIL2O8ibStAa3jexSFU88yYGdw6YPNdl8VdcudH8ASeIbFYkuFMLqzxh9isRkDPtVG7+E0moeKr7Wb/AFvzdM1TyjeWHl481kHynd255rovHHhIeL/Cs3hmG7+xh9myTbu27Txx+FAEFj4x8Hp4Xg8WmS3itdqI8ohCurnA5HUc1oxeJ9K1GXU9P02733mnQebKu3GzcuVNcpc+DPDXhnwffSeM7p7z7QEF5cohAYr/AKshB0xx0rL+EejapLf+JNcub5r2x1eNYrS9aPYZFA2/d6jFAHOL8YfFUHgA3GphrfUbi68uwvQu4XCiTDAjouBWl4j+IPi2wj8WtZ3/AM2mLZG1G0fKZMbh+NdUfhXG3w8XwK2pKzJceet0Y+R8+7A9PSodV+En9p/25/xOdn9s/Zv4P9X5WPzzigDKt/iTrmqeMfDPhp1bTbu5ik/tK1K7gDtyjBu/rxS+FLrx/J448Q6XqfjAXVpoMZfy/IA83cpI57YrsNR8Ex3/AIl8P+IluljbQ4yjKE5myuOTTtM8G/2d4j8Ra/8Abt/9vRqnl7f9Vhcde9AHmXw38ea7r1+H1Tx1LLOftH/Eu+xkL8udv7zp2qBfjD4qg8Am41MNbajcXfl2F4F3C4USYYEdFwK7Lwf8L/EXhSQW3/CWxXGmfvf9H+yqG+fP8fXjNWj8K42+Hq+BW1JWZbjz1ujHkj592B/KgDldQ8f+LNK8Tazqkmp+dpWiLahrDYB5plABO7tgnNUfGPjTx7HrPiC+0jxH9jsdIa0K2vlBtwlxkZ/Guwm+EbXfia71S81rzdK1BYRd2GzHmGMDad3bkZql4n+DGpa5rOo3th4r+xWOptCZ7Xyd2RHjaM/hQB6Xbz/8S6G7nb/lgsrn/gOSa5XTPi54G1q+Ol6VqTzXZWQxxmIqHKAkgH8K6r7L/wAS77Bv/wCWHkbv+A4zXmHhv4Jahoer2V9c+KEubbT/AD/IgFuFI80HOW79aANn4XeNpfHE2qak9821X2LYGPAtsHHD/wAWayPjT4w1vwzqeiWema+2k294krTzLD5hyo44rtfA3hOPwX4fj0RZ1uGSR3aYJtLbmzg/Sq/ibwTH4k8QaTrkt0qLpkcyGFk3CTeuM/hQB5da+NvHuu6N4TgsfEv2W61Rbtp7nygd4jyV47dKTwb4x+IT6joFzq/igXltq63YaDyQuwxA4OfqK7fRvhKmlSaAz6t5qaI1wSuzHmiXPHtjNXrj4YaZHqWjXOkTfY7XSFuAsGN28yg5OfxoA5H4Wa/4v8WJd61d+NWnWw87z7A2u0DGduH79K5zwJ8TvF+s+J7K0m8UtfLMLo3dqLfAt9gOzLfhXoHg74Z+JvCTGzXxik2lN5u61FsATvz1brxmjwl8IU8HMr6XqqhpxML9jFk3G7O3B/hxntQBylp4v8e+I7bwnp1h4k+w3OsTXSz3HlBuEY7ePpVv4leIvGHghfD+j3HjRopLlZmur5bbcXI5UbR+Var/AAc1W2stDj0TxZ9ivNEkneO48ndu8w56e1bE/wAPNR1O80TUdf19b660lJ0kdoQBN5gwDjtigCf4T65qvifwDaarqt5595OZE87bjOCQDiuc8GXPjuTx/rema14w+1afoOHkj8gDzVYZ69sV2vgrwq3g7wynh6O989o2kZZtuMFiSOPbNcz4e+GfijRvEuoeILzxr9rXVVZLuLyAPMGCF57YzQB0vh3x/wCFfFf2r+xNR837Hky7lK9OuM9enan+GPG/hvxi1yvh+8e4+yHbKTGVAOccE9a5jR/hINI/sby9Y/5BX2nftTHn+bnr9M1qfDnwLqHgS0udPuNbS+tZHLwIIQhjycnJ70AdjRRRQAU0pGzK7RqWX7rEZI+hp1FABUGoHGn3ZHaCQ/8Ajpqeq+o/8g28/wCveT/0E0AcV8EPgh8J7b4UXnxn+M+qXN3pl3O6ogkdfsmJCOx+bNYep+GPgB8VfiPonwx+D0N5YnUHJl1Np5CVC/NjY3qOK7OdxF+wFLKVDCO8Z8HvifpXmHwq8C/HTWfGGmfHj4eeAVlsyuy3VZ1UNtXaTX5RTrYitUxmOrYqUXCdSELzUYJxS5FZ6N7vtpqfZV6cKccPhaVBSi4xlK0byab11PZfFvg79iDwBr7+EvF6XcetWCokyiSZ23EdQR69aPCXg79iDx/r6eEvCCXcmtX6ukKmSZG3AdST6da4V/hB+0PqvxoPxd8VfCFdVEjZmsGukAf5cDmhPhB+0PpXxoHxd8K/CFdKEbZhsFukIT5cHmvP9nD2Vv7Rn7T2d7+3jy+0/ltva/W9jr9rV5+b6lHk5rW9m+bl79r/AKmdp3hT9nv4W/EnWvhp8Y7W6v301wYNUEsm4hucBR0wOK1fj58C/hHP8HF+NXwV1Cey062O2Qb3JvCWxyScjFch8VfAvx00bxhqfx4+IfgFYrMLsuFadWC7l2g16RO4l/4J6vKFCiScvgdsyniu+pWr0auDx9HEylKc6cJ2mpQbknzqyul0fbXQ5aFOFSOIwtWgoxUZSjeNpJJ6ahBE8/8AwT0S3iGXlnCKPUmUAUzwPpv7Y/gP4W2fgvwj4LNpHboZoLzz0bCN82dp9qfBK8H/AAT0S4iOHinDqfQiUEUzwPqX7Y/jz4W2fjTwj40N3HcIYYLPyEXKL8uNx9q8+fN7HEc3suT61P8Ai81ubTltbTa976HVPk56P8Tm9jG3s97a3v8AgaPwO139qD4t6x4i0LWPiydAvPDxjEsZs0k3FvpR8cdd/ag+EmseHdC0f4snX7zxCZBFGLNI9pX60fA7Qv2oPhJrHiLXdY+Ex1+88QmMyyG8SPaV+lHxx0L9qD4t6x4d13R/hMdAvPDxkMUgvEk3FvrWP7r+1/8AmG+r2/6dcvNyf+B25/wNv3/9mf8AL32//b/833bGd44039sfx58LbzwX4u8Fm7juE86e889Fyi/NnaParUMM0P7AMVt5eZ47wR7PVxPjH51V8cal+2P4D+Ft5408XeNDaR26eTPZ+QjYRvlxuHtVqGaab9gGK58zE8l4JN/o5nzn862jzexocnsuT6zC3sua3Nre9/la2hlDk9pWv7Tm9jK/tN7aWt+JNYaH+0SbC1MXwY3RmCPY325fmXaMGuTm+IfxNt/Et/4Ql+F+NV0woLqH7WPkLfd5rvPhZ8Q/jLp3xZ8EeEvE3xA/tfSdahbfb/Zwm1UQbRmuU+JOh+KdY/aO8eP4Z8U/2M0BtmkPlB/M+Xjr0xX12HzXP/7SnlmIVLn9nzxa5rfElrfyv0PCxWCy/wCorGYVztzcr5rdr9DoU0X9ot0WRfgtlWAYf6cvQ0v9h/tG/wDRFf8AyeWkTWv2i0RY1+NOFUBR/oK9BS/25+0b/wBFq/8AJFa6P+Mu/wCnH/k4l/YPX2v/AJKH9h/tG/8ARFf/ACeWj+w/2jf+iK/+Ty0f25+0b/0Wr/yRWj+3P2jf+i1f+SK0f8Zd/wBQ/wD5OH/CD/09/wDJQ/sP9oz/AKIr/wCTy1xdz8RviXaeItR8KT/DDbqelbftcP2ofJuGRzXofw++I3xm0z40eEvCvi/4jDWNL1ozedGbdYwNq8c1xfxK0TxLr37RXj4+F/Fg0kR/Z/MYRiQS/LxXNhs1z/8AtGWWYlUuf2fOmua3xJa312v07DxmCy76isZhHP4uVqVu1+hQtviN8S7vxFp3hSD4YbtT1Xd9kh+1D59oyea7T+w/2jP+iK/+Ty1zXw10TxLoP7RXgE+KPFg1YSfaPLYxiMRfLzXafEH4jfGbU/jR4t8K+EPiMNH0vRTD5MYt1kB3LzzRic04g/tGOWYZUuf2fO2+a3xNaW8rdO4YPBZd9ReMxbn8XKlG3a/Uof2H+0b/ANEV/wDJ5aP7D/aN/wCiK/8Ak8tH9uftG/8ARav/ACRWj+3P2jf+i1f+SK10/wDGXf8AUP8A+Ti/4Qf+nv8A5KH9h/tG/wDRFf8AyeWkfRf2i0RpG+C2FUFj/py9BS/25+0b/wBFq/8AJFaR9a/aLdGjb405VgVP+gr0NH/GXf8ATj/ycP8AhB6e1/8AJTjYfiH8TbjxLYeEIvhfnVdTLi1h+1j5yv3ua7J9F/aLRGdvgt8qAkn7cvQVz3w20PxTo/7R3gN/E3in+2WnNy0Z8oJ5fy89Oua7H4jfEH40an8ZvF/hDwt8Q/7F0vRxEIofswkyHXnk1zYnNc//ALRhlmHVLn9nzyb5rfE1pbXt07jwmCy/6i8ZinP4uVctu1+p57D8Q/ibceJbDwhF8L86rqZcWsP2sfOV+9zXZ/2H+0Z/0RX/AMnlrnfhtofinR/2jvAb+JvFP9stObloz5QTy/l56dc12XxD+Inxp1D40+LfCfhT4h/2LpmimHyYvswkzuXJ5NGJzXiD+0YZZh1S5/Z88m+a3xNaW17dO48Jgsv+ovGYpztzcq5bdr9TNfw/+0RKpSX4IrIp6q16pB/ChPD/AO0TEoSL4Iqijoq3qgD8Kd/bn7Rv/Rav/JFaP7c/aN/6LV/5IrXT/wAZd/1D/wDk5P8Awg/9Pf8AyUP7D/aN/wCiK/8Ak8tH9h/tG/8ARFf/ACeWj+3P2jf+i1f+SK0f25+0b/0Wr/yRWj/jLv8AqH/8nD/hB/6e/wDkof2H+0b/ANEV/wDJ5aP7D/aN/wCiK/8Ak8tc5rnxJ/aP0fxVofhlPi207az5n7xbJcx7R6d6ND+JP7R+seKtc8Mv8W2gbRvL/eNZLmTcPTtXN9b4o+sfVL4fntzW/ebXtf7yuXIrc3723/bp0f8AYf7Rv/RFf/J5aP7D/aN/6Ir/AOTy1zmufEn9o/R/FWh+GU+LbTtrPmfvFslzHtHp3o0P4k/tH6x4q1zwy/xbaBtG8v8AeNZLmTcPTtR9b4o+sfVL4fntzW/ebXtf7w5citzfvbf9unR/2H+0b/0RX/yeWj+w/wBo3/oiv/k8tH9uftG/9Fq/8kVo/tz9o3/otX/kitdP/GXf9Q//AJOT/wAIP/T3/wAlD+w/2jf+iK/+Ty0f2H+0b/0RX/yeWj+3P2jf+i1f+SK0f25+0b/0Wr/yRWj/AIy7/qH/APJw/wCEH/p7/wCSh/Yf7Rn/AERX/wAnlrjJviH8TbfxLf8AhCX4X41XTCguoftY+Qt93mvQ/h58RPjTp/xp8JeE/FfxD/trTNaM3nRfZhHjauRyK434k6H4p1j9o7x4/hnxT/YzQG2aQ+UH8z5eOvTFc2GzXP8A+0ZZZiVS5/Z86a5rfElrfXv07FYvBZf9RWMwrnbm5XzW7X6HQpov7Rborr8FvlcAg/bl6GuNm+IfxNt/Et/4Ql+F+NV0woLqH7WPkLfd5r0L4c/EH40aZ8ZvCHhDxT8Q/wC2tL1gSiWH7MI8BF45Fcd8SdD8U6x+0d48fwz4p/sZoDbNIfKD+Z8vHXpijDZrn/8AaMssxCpc/s+eLXNb4ktb/PoLF4LL/qKxmFc7c3K+a3a/Q6FNF/aLdFkX4LZVgGH+nL0NL/Yf7Rv/AERX/wAnlpE1r9otEWNfjThVAUf6CvQUv9uftG/9Fq/8kVrp/wCMu/6cf+TiX9g9fa/+Sh/Yf7Rv/RFf/J5aP7D/AGjf+iK/+Ty0f25+0b/0Wr/yRWj+3P2jf+i1f+SK0f8AGXf9Q/8A5OH/AAg/9Pf/ACUP7D/aM/6Ir/5PLXF3PxG+Jdp4i1HwpP8ADDbqelbftcP2ofJuGRzXofw++I3xm0z40eEvCvi/4jDWNL1ozedGbdYwNq8c1xfxK0TxLr37RXj4+F/Fg0kR/Z/MYRiQS/LxXNhs1z/+0ZZZiVS5/Z86a5rfElrfXa/TsPGYLLvqKxmEc/i5WpW7X6FC2+I3xLu/EWneFIPhhu1PVd32SH7UPn2jJ5rtP7D/AGjP+iK/+Ty1zXw10TxLoP7RXgE+KPFg1YSfaPLYxiMRfLzXafEH4jfGbU/jR4t8K+EPiMNH0vRTD5MYt1kB3LzzRic04g/tGOWYZUuf2fO2+a3xNaW8rdO4YPBZd9ReMxbn8XKlG3a/Uof2H+0b/wBEV/8AJ5aP7D/aN/6Ir/5PLR/bn7Rv/Rav/JFaP7c/aN/6LV/5IrXT/wAZd/1D/wDk4v8AhB/6e/8Akof2H+0b/wBEV/8AJ5aR9F/aLRGkb4LYVQWP+nL0FL/bn7Rv/Rav/JFaR9a/aLdGjb405VgVP+gr0NH/ABl3/Tj/AMnD/hB6e1/8lONh+IfxNuPEth4Qi+F+dV1MuLWH7WPnK/e5rrL/AEP9okWF0ZfgxtjEEm9vty/Ku05NYnw20PxTo/7R3gN/E3in+2WnNy0Z8oJ5fy89Oua6v4p/EP4y6j8WfG/hLwz8QP7I0nRYV2W/2cPuV0O4ZrnxGa5//aUMsw6pc/s+eTfNb4mtPlbp3HhcFl/1F4zFOfxcq5bdr9TJmhmm/YBltvLxPJeNHs9HM+MfnVXwPpv7Y/gP4W2fgvwj4LNpHboZoLzz0bCN82dp9qtTTTQ/sAy3PmZnjvGk3+rifOfzqr4H1L9sfx58LbPxp4R8aG7juEMMFn5CLlF+XG4+1fIy5/Y1+f2XJ9Znf2vNbm0ta3zvfQ92fJ7Sjb2nN7KNvZ721vf8DR+B2u/tQfFvWPEWhax8WToF54eMYljNmkm4t9KPjjrv7UHwk1jw7oWj/Fk6/eeITIIoxZpHtK/Wj4HaF+1B8JNY8Ra7rHwmOv3niExmWQ3iR7Sv0o+OOhftQfFvWPDuu6P8JjoF54eMhikF4km4t9ax/df2v/zDfV7f9OuXm5P/AAO3P+Br+/8A7M/5e+3/AO3/AOb7tjO8cab+2P48+Ft54L8XeCzdx3CedPeeei5RfmztHtT54ng/4J6PbyjDxTlGHoRKQaZ441L9sfwH8Lbzxp4u8aG0jt08mez8hGwjfLjcPanzyvP/AME9HuJTl5Zy7H1JlJNbQ5vY0OX2XJ9ah/C5rc2t73+VraGUOTnrfxOb2Mr+03tpa34hAgl/4J6pEWCiScJk9syjmvN/hV46+OmjeMNM+A/w88fLFZhd9uywKwXcu4iux+APxw+E9z8GpPgx8aNKurPTLQ7kcRO32ols9h8uKytT8T/AD4VfEfRPid8Hpry+OnuRLpjQSAsG+XO9vQc16NOhiKNTGYGthZSc51JwvBSg3JLkfM9E91211OOvUhOOHxVKuoxUYxlaVpJJ66F9/i/+0PpXxoPwi8VfF5dKEbYmv2tUIT5cjihPi/8AtD6r8aB8IvCvxeXVRI2Ib9bVAH+XJ4rvPFfi39iX4g67L4w8WrfS6xfKj3EiwzKQ2OnHp0o8KeLf2Jfh9rsXjDwkt9FrFirvbyNDMxLY6c+vSvP9pD2XN/Z0/aez5bewjy+0/mvva/Tax1+yq8/L9djyc17+0fNy9u1/1PGPir46+Oms+MNT+A/xD8fLLZld9wzQKobau4CvTkUwf8E/lRPnMV2FXH8RE9cbpnif4AfFX4j638TvjDNeWJ1BwItMWCQlQvy53r6jmtv45/G74UQfCS1+C3wW026udOvZVLSGJ1+xkOD3HzZNd9WhiK1TB4GhhpRlCdOc7QUaalFPnfMrJ9F200OShUhCOIxVWupRcZRjeV5NN6aEfwm1zxNrHx++HK+IfDP9krBFKID5u/zR5fX2rufiH8O/jTp/xp8W+LPCnw8/trTNaMPky/aRHjauDwa820v4dfEm11fRvFtr8TPL1HS4s2cn2Ufugy8jHfiu5/tz9oz/AKLV/wCSK172KyrP/wC0o5nhnS5/Z8jUua3xN6W8rde552DxuX/UXg8Wp25uZctu1uof2H+0b/0RX/yeWj+w/wBo3/oiv/k8tH9uftG/9Fq/8kVo/tz9o3/otX/kitdH/GXf9Q//AJOL/hB/6e/+Sh/Yf7Rv/RFf/J5aP7D/AGjf+iK/+Ty0f25+0b/0Wr/yRWj+3P2jf+i1f+SK0f8AGXf9Q/8A5OH/AAg/9Pf/ACU5zXPht+0frHirQ/EyfCRoG0bzP3a3q5k3D17UaH8Nv2j9H8Va54mf4SNO2s+X+7a9XMe0eveuj/tz9o3/AKLV/wCSK0f25+0b/wBFq/8AJFa5vqnFH1j63bD89uW/7za97feVzZFbl/e2/wC3TnNc+G37R+seKtD8TJ8JGgbRvM/drermTcPXtRofw2/aP0fxVrniZ/hI07az5f7tr1cx7R6966P+3P2jf+i1f+SK0f25+0b/ANFq/wDJFaPqnFH1j63bD89uW/7za97feHNkVuX97b/t0P7D/aN/6Ir/AOTy0f2H+0b/ANEV/wDJ5aP7c/aN/wCi1f8AkitH9uftG/8ARav/ACRWun/jLv8AqH/8nJ/4Qf8Ap7/5KH9h/tG/9EV/8nlo/sP9o3/oiv8A5PLR/bn7Rv8A0Wr/AMkVo/tz9o3/AKLV/wCSK0f8Zd/1D/8Ak4f8IP8A09/8lND4efDv406h8afCXizxX8PP7F0zRTN50v2kSZ3LgcCuN+JOueKdH/aO8eJ4Z8Lf2y05tlkHmhPL+Xjr1zXRf25+0Z/0Wr/yRWuMm+HnxNuPEt/4vl+KGdV1Mobqb7IPnK/d4rmw2VZ//aMszxLpc/s+RJc1viT1vr369isXjcv+orB4VTtzcz5rdrdD0L4c/D740an8ZvCHi/xT8PP7F0vRxKZZvtIkyHXjgVx3xJ1zxTo/7R3jxPDPhb+2WnNssg80J5fy8deua6FNa/aLRFRfjT8qAAD7CvQVxs3w8+Jtx4lv/F8vxQzquplDdTfZB85X7vFGGyrP/wC0ZZniHS5/Z8kUua3xJ63+fUWLxuX/AFFYPCqdubmfNbtbodkmi/tFuiyL8FsqwDD/AE5ehpf7D/aN/wCiK/8Ak8tImtftFoixr8acKoCj/QV6Cl/tz9o3/otX/kitdP8Axl3/AE4/8nEv7B6+1/8AJQ/sP9o3/oiv/k8tH9h/tG/9EV/8nlo/tz9o3/otX/kitH9uftG/9Fq/8kVo/wCMu/6h/wDycP8AhB/6e/8Akpf+H3w5+M2p/Gjwl4q8X/DkaPpeimbzpDcLIDuXjiuL+JWt+JdB/aK8fDwv4TGrCT7P5iiQRiL5eK6X+3P2jP8AotX/AJIrXF3Pw5+Jd34i1HxXP8T92p6rt+1zfZR8+0YHFc2GyrP/AO0ZZniXS5/Z8iS5rfEnrfXa/XsPGY3LvqKweEU/i5m5W7W6F/4a634l179orwCPFHhMaSI/tHlqZBIJfl5rtPiD8OfjNpnxo8W+KvCHw5GsaXrRh8mQXCxgbV54rzy2+HPxLtPEWneK4Pift1PSt32Sb7KPk3DB4rtP7c/aM/6LV/5IrRicr4g/tGOZ4Z0uf2fI0+a3xN6W8rde4YPG5d9ReDxan8XMnG3a3UP7D/aN/wCiK/8Ak8tH9h/tG/8ARFf/ACeWj+3P2jf+i1f+SK0f25+0b/0Wr/yRWun/AIy7/qH/APJxf8IP/T3/AMlD+w/2jf8Aoiv/AJPLSPov7RaI0jfBbCqCx/05egpf7c/aN/6LV/5IrSPrX7Rbo0bfGnKsCp/0Feho/wCMu/6cf+Th/wAIPT2v/kpz3w21zxTrH7R3gNPE3hb+xmgNysY80P5ny89OmK7H4jfD740aZ8ZvF/i/wt8PP7a0vWBEYpvtIjwEXng157D8PPibb+JbDxfF8UMarphc2s32QfIW+9xXZPrX7RboyN8aflcEEfYV6GubE5Vn/wDaMMzw7pc/s+SSfNb4m9La9uvceExuX/UXg8Up/FzLlt2t1Oe+G2ueKdY/aO8Bp4m8Lf2M0BuVjHmh/M+Xnp0xXZfEP4d/GnT/AI0+LfFnhT4ef21pmtGHyZftIjxtXB4NeeQ/Dz4m2/iWw8XxfFDGq6YXNrN9kHyFvvcV2f8Abn7Rn/Rav/JFaMTlXEH9owzPDulz+z5JJ81vib0tr269x4TG5f8AUXg8Up25uZctu1uof2H+0b/0RX/yeWj+w/2jf+iK/wDk8tH9uftG/wDRav8AyRWj+3P2jf8AotX/AJIrXT/xl3/UP/5OT/wg/wDT3/yUP7D/AGjf+iK/+Ty0f2H+0b/0RX/yeWj+3P2jf+i1f+SK0f25+0b/ANFq/wDJFaP+Mu/6h/8AycP+EH/p7/5Kc5rnw2/aP1jxVofiZPhI0DaN5n7tb1cybh69qND+G37R+j+Ktc8TP8JGnbWfL/dtermPaPXvXR/25+0b/wBFq/8AJFaP7c/aN/6LV/5IrXN9U4o+sfW7Yfnty3/ebXvb7yubIrcv723/AG6c5rnw2/aP1jxVofiZPhI0DaN5n7tb1cybh69qND+G37R+j+Ktc8TP8JGnbWfL/dtermPaPXvXR/25+0b/ANFq/wDJFaP7c/aN/wCi1f8AkitH1Tij6x9bth+e3Lf95te9vvDmyK3L+9t/26H9h/tG/wDRFf8AyeWj+w/2jf8Aoiv/AJPLR/bn7Rv/AEWr/wAkVo/tz9o3/otX/kitdP8Axl3/AFD/APk5P/CD/wBPf/JQ/sP9o3/oiv8A5PLR/Yf7Rv8A0RX/AMnlo/tz9o3/AKLV/wCSK0f25+0b/wBFq/8AJFaP+Mu/6h//ACcP+EH/AKe/+Smh8PPh38adQ+NPhLxZ4r+Hn9i6Zopm86X7SJM7lwOBXDfFnXPE2j/H74jL4e8M/wBrLPFEJz5uzyh5fX3rqf7c/aM/6LV/5IrXDap8OviTdavrPi26+JnmajqkWbyT7KP3oVeBjtxXPhcqz/8AtKWZ4l0uf2fIkua3xJ638r9ew8Zjcv8AqKweEU/i5vet2t0OrdTP/wAE/mR/kMt2VbP8JM9eY/Crx18dNG8YaZ8B/h54+WKzC77dlgVgu5dxFdv8DPjd8KJ/hJdfBb406bdW2nWUrFZBE7fbCXJ7D5cGsTU/E/wA+FXxH0T4nfB6a8vjp7kS6Y0EgLBvlzvb0HNeDSo4ijUxmBr4WUpTnUnC8FKDlJLkfM9F1XbXU9GvUhOOHxVKuoxUYxlaVpJJ66F9/i/+0PpXxoPwi8VfF5dKEbYmv2tUIT5cjihPi/8AtD6r8aB8IvCvxeXVRI2Ib9bVAH+XJ4rvPFfi39iX4g67L4w8WrfS6xfKj3EiwzKQ2OnHp0o8KeLf2Jfh9rsXjDwkt9FrFirvbyNDMxLY6c+vSuD2kPZc39nT9p7Plt7CPL7T+a+9r9NrHX7Krz8v12PJzXv7R83L27X/AFPGPir46+Oms+MNT+A/xD8fLLZld9wzQKobau4CvSJ0EX/BPV4gwYRzlMjviU81yemeJ/gB8VfiPrfxO+MM15YnUHAi0xYJCVC/LnevqOa1fj98cPhPbfBqP4MfBfSrq80y7O53MTr9lIbPcfNmvQqUMRWqYPA0cNKLhOnOdoKME4p875lZN7LtpoclCrCEcRiqtdSi4yjG8ryab00O8/s/Tj1061/78r/hR/Z+nDpp1r/35X/CrFFfq58aV/7O03/oHWv/AH5X/Cj+ztN/6B1r/wB+V/wqxRQBX/s/Tj1061/78r/hSjT9PHI0+1H0hX/Cp6KAE6cCloooAKKKKACiiigAooooAKKKKACiiigAooooAKKKKACiiigAooooAKKKKACiiigAooooAKKKKACiiigAooooAKKKKACiiigAooooAKKKKACiiigAooooAKKKKACk68GlooAgOn6eeTp9qfrCv+FJ/Z+nDpp1r/35X/CrFFAFf+ztN/6B1r/35X/Cj+ztN/6B1r/35X/CrFFAFf8As/Tj1061/wC/K/4Uf2fpw6ada/8Aflf8KsUUAf/Z;" parent="1" vertex="1">
          <mxGeometry x="-732.1700000000001" y="879" width="480" height="480" as="geometry" />
        </mxCell>
        <mxCell id="HAlJYMWttNRf-Ymp2at4-6" value="" style="shape=image;verticalLabelPosition=bottom;labelBackgroundColor=default;verticalAlign=top;aspect=fixed;imageAspect=0;image=data:image/png,iVBORw0KGgoAAAANSUhEUgAAAXAAAAGACAYAAAC0izkmAAAACXBIWXMAAJnKAACZygHjkaQiAAAKT2lDQ1BQaG90b3Nob3AgSUNDIHByb2ZpbGUAAHjanVNnVFPpFj333vRCS4iAlEtvUhUIIFJCi4AUkSYqIQkQSoghodkVUcERRUUEG8igiAOOjoCMFVEsDIoK2AfkIaKOg6OIisr74Xuja9a89+bN/rXXPues852zzwfACAyWSDNRNYAMqUIeEeCDx8TG4eQuQIEKJHAAEAizZCFz/SMBAPh+PDwrIsAHvgABeNMLCADATZvAMByH/w/qQplcAYCEAcB0kThLCIAUAEB6jkKmAEBGAYCdmCZTAKAEAGDLY2LjAFAtAGAnf+bTAICd+Jl7AQBblCEVAaCRACATZYhEAGg7AKzPVopFAFgwABRmS8Q5ANgtADBJV2ZIALC3AMDOEAuyAAgMADBRiIUpAAR7AGDIIyN4AISZABRG8lc88SuuEOcqAAB4mbI8uSQ5RYFbCC1xB1dXLh4ozkkXKxQ2YQJhmkAuwnmZGTKBNA/g88wAAKCRFRHgg/P9eM4Ors7ONo62Dl8t6r8G/yJiYuP+5c+rcEAAAOF0ftH+LC+zGoA7BoBt/qIl7gRoXgugdfeLZrIPQLUAoOnaV/Nw+H48PEWhkLnZ2eXk5NhKxEJbYcpXff5nwl/AV/1s+X48/Pf14L7iJIEyXYFHBPjgwsz0TKUcz5IJhGLc5o9H/LcL//wd0yLESWK5WCoU41EScY5EmozzMqUiiUKSKcUl0v9k4t8s+wM+3zUAsGo+AXuRLahdYwP2SycQWHTA4vcAAPK7b8HUKAgDgGiD4c93/+8//UegJQCAZkmScQAAXkQkLlTKsz/HCAAARKCBKrBBG/TBGCzABhzBBdzBC/xgNoRCJMTCQhBCCmSAHHJgKayCQiiGzbAdKmAv1EAdNMBRaIaTcA4uwlW4Dj1wD/phCJ7BKLyBCQRByAgTYSHaiAFiilgjjggXmYX4IcFIBBKLJCDJiBRRIkuRNUgxUopUIFVIHfI9cgI5h1xGupE7yAAygvyGvEcxlIGyUT3UDLVDuag3GoRGogvQZHQxmo8WoJvQcrQaPYw2oefQq2gP2o8+Q8cwwOgYBzPEbDAuxsNCsTgsCZNjy7EirAyrxhqwVqwDu4n1Y8+xdwQSgUXACTYEd0IgYR5BSFhMWE7YSKggHCQ0EdoJNwkDhFHCJyKTqEu0JroR+cQYYjIxh1hILCPWEo8TLxB7iEPENyQSiUMyJ7mQAkmxpFTSEtJG0m5SI+ksqZs0SBojk8naZGuyBzmULCAryIXkneTD5DPkG+Qh8lsKnWJAcaT4U+IoUspqShnlEOU05QZlmDJBVaOaUt2ooVQRNY9aQq2htlKvUYeoEzR1mjnNgxZJS6WtopXTGmgXaPdpr+h0uhHdlR5Ol9BX0svpR+iX6AP0dwwNhhWDx4hnKBmbGAcYZxl3GK+YTKYZ04sZx1QwNzHrmOeZD5lvVVgqtip8FZHKCpVKlSaVGyovVKmqpqreqgtV81XLVI+pXlN9rkZVM1PjqQnUlqtVqp1Q61MbU2epO6iHqmeob1Q/pH5Z/YkGWcNMw09DpFGgsV/jvMYgC2MZs3gsIWsNq4Z1gTXEJrHN2Xx2KruY/R27iz2qqaE5QzNKM1ezUvOUZj8H45hx+Jx0TgnnKKeX836K3hTvKeIpG6Y0TLkxZVxrqpaXllirSKtRq0frvTau7aedpr1Fu1n7gQ5Bx0onXCdHZ4/OBZ3nU9lT3acKpxZNPTr1ri6qa6UbobtEd79up+6Ynr5egJ5Mb6feeb3n+hx9L/1U/W36p/VHDFgGswwkBtsMzhg8xTVxbzwdL8fb8VFDXcNAQ6VhlWGX4YSRudE8o9VGjUYPjGnGXOMk423GbcajJgYmISZLTepN7ppSTbmmKaY7TDtMx83MzaLN1pk1mz0x1zLnm+eb15vft2BaeFostqi2uGVJsuRaplnutrxuhVo5WaVYVVpds0atna0l1rutu6cRp7lOk06rntZnw7Dxtsm2qbcZsOXYBtuutm22fWFnYhdnt8Wuw+6TvZN9un2N/T0HDYfZDqsdWh1+c7RyFDpWOt6azpzuP33F9JbpL2dYzxDP2DPjthPLKcRpnVOb00dnF2e5c4PziIuJS4LLLpc+Lpsbxt3IveRKdPVxXeF60vWdm7Obwu2o26/uNu5p7ofcn8w0nymeWTNz0MPIQ+BR5dE/C5+VMGvfrH5PQ0+BZ7XnIy9jL5FXrdewt6V3qvdh7xc+9j5yn+M+4zw33jLeWV/MN8C3yLfLT8Nvnl+F30N/I/9k/3r/0QCngCUBZwOJgUGBWwL7+Hp8Ib+OPzrbZfay2e1BjKC5QRVBj4KtguXBrSFoyOyQrSH355jOkc5pDoVQfujW0Adh5mGLw34MJ4WHhVeGP45wiFga0TGXNXfR3ENz30T6RJZE3ptnMU85ry1KNSo+qi5qPNo3ujS6P8YuZlnM1VidWElsSxw5LiquNm5svt/87fOH4p3iC+N7F5gvyF1weaHOwvSFpxapLhIsOpZATIhOOJTwQRAqqBaMJfITdyWOCnnCHcJnIi/RNtGI2ENcKh5O8kgqTXqS7JG8NXkkxTOlLOW5hCepkLxMDUzdmzqeFpp2IG0yPTq9MYOSkZBxQqohTZO2Z+pn5mZ2y6xlhbL+xW6Lty8elQfJa7OQrAVZLQq2QqboVFoo1yoHsmdlV2a/zYnKOZarnivN7cyzytuQN5zvn//tEsIS4ZK2pYZLVy0dWOa9rGo5sjxxedsK4xUFK4ZWBqw8uIq2Km3VT6vtV5eufr0mek1rgV7ByoLBtQFr6wtVCuWFfevc1+1dT1gvWd+1YfqGnRs+FYmKrhTbF5cVf9go3HjlG4dvyr+Z3JS0qavEuWTPZtJm6ebeLZ5bDpaql+aXDm4N2dq0Dd9WtO319kXbL5fNKNu7g7ZDuaO/PLi8ZafJzs07P1SkVPRU+lQ27tLdtWHX+G7R7ht7vPY07NXbW7z3/T7JvttVAVVN1WbVZftJ+7P3P66Jqun4lvttXa1ObXHtxwPSA/0HIw6217nU1R3SPVRSj9Yr60cOxx++/p3vdy0NNg1VjZzG4iNwRHnk6fcJ3/ceDTradox7rOEH0x92HWcdL2pCmvKaRptTmvtbYlu6T8w+0dbq3nr8R9sfD5w0PFl5SvNUyWna6YLTk2fyz4ydlZ19fi753GDborZ752PO32oPb++6EHTh0kX/i+c7vDvOXPK4dPKy2+UTV7hXmq86X23qdOo8/pPTT8e7nLuarrlca7nuer21e2b36RueN87d9L158Rb/1tWeOT3dvfN6b/fF9/XfFt1+cif9zsu72Xcn7q28T7xf9EDtQdlD3YfVP1v+3Njv3H9qwHeg89HcR/cGhYPP/pH1jw9DBY+Zj8uGDYbrnjg+OTniP3L96fynQ89kzyaeF/6i/suuFxYvfvjV69fO0ZjRoZfyl5O/bXyl/erA6xmv28bCxh6+yXgzMV70VvvtwXfcdx3vo98PT+R8IH8o/2j5sfVT0Kf7kxmTk/8EA5jz/GMzLdsAAAAgY0hSTQAAeiUAAICDAAD5/wAAgOkAAHUwAADqYAAAOpgAABdvkl/FRgAAQ1hJREFUeNrsnW1sXcd5559LUTYvbVKkqNBUYlrxmxiZTiTLVN21Wxur1rWLJmCzRYGF2t3uS4QC7bbbNlgstvmQ9kO36Id2X4pdIHCBRbddY4HFwhWSAs469cJO7I2jl0iOaYWyJEemYtGsri59afNSEu2zH8i5nDt3Xs/Mef//AEG899yZc86cc/7nmWeeeaYWRREBAAAoHn1oAgAAgIADAACAgAMAAICAAwAABBwAAAAEHAAAAAQcAAAg4AAAACDgAAAAIOAAAAAg4AAAAAEHAAAAAQcAAAABBwAACDgAAAAIOAAAAAg4AAAACDgAAEDAAQAAQMABAABAwAEAAAIOAAAAAg4AAAACDgAAAAIOAAAQcAAAABBwAAAAEHAAAICAAwAAgIADAACAgAMAQLXpz8NBzB45Gg1P7up8bi1cJSKihbl5mpyeIn4btm9tP/bsM7UytafsfJ44PBv53FsrjSYNjY32/G36bajtL714rBbyWYnbHiMT412flxeXYpd3Latrj889/MWoyAL6+snnalnuP3MLfPbI0Uj2MKu+w/aryrYrenvKzseXdrtFK40mrTSaHZFV/Utie5qMTIz3/OPFV3xxir9TfS+Wl5UBFbbAVQ86tuu3iw9kmc8nlJjX68OZbU+L4cldPe3L2la2TbSyTeX56ycTch8LHRRUwGXouqsLc/Pa7SaKXj6O2Pm2Z5LXIynxrteHO8c1RIbzS3h7WuItE2GVaIu/cym/0mgqRZ99DzGvoIDzF111A7CHkm1XdenKVD5utzWv7Zl1NzwNn3gabhO+XXkRXV5c0rpyRibGO79nYuxSXiX6vLCPTIxDxMss4Atz80brzlWkbCxG2/K2loRu/zZ12Bz/8uJSp67WwlWp1Zpke4a+HjbnE8JtQg2KLbK+29MQb3YcrsfC7hXVZ+s6JOV0rhoQjswHMSenp2hyeir3AyNxH1TxIWPfhXjwZQ9IUdrT9nySpN1uleIhTnrsoGzHBQu85IxMjHd8usyS9LVoeR/x8uJS7Pp4q7UMJH0+bFBR1t558FmHFsn1/jHqX290/U9E1L/ekG43ISvPPqv+zuqFDAHPiXhm7TPzEViVKyFUfaxOWwu+CD5Il/Px7UWlHQeeRq+FiTgTUfF/Xrhl3/eIAifIsvK6OtjvIN4VEXD4yuK5ZFRWa9Ha03Q+wdwkjS2RNYl8ktuT6L2w6y0TXpk1rRPvON+repyhDRf+BSM7HtX34nbXc4GAQ8RT6T4XvT0RB+720uOFMq+iFGoGp0yEVS4gG9eQ6FIqqqjDB14y8fZ5yFweMNXU7LgPbJJx4MwSLFsc+PDkLmkESNbwopi0McFSM7QWrmqjaMQUDuz3shdCkYQ8FwIO6zueaPq2p6w+U/y2arvM1256MSAOPKxolh0msNNPP9Yl2Pz9rhJq2XPBwoT52aULOXwh5lrAxUZF0L99u8ms1rjtOTy5S/tbm8HQlUaT7jr0QKyXsup8eBGM408VfeCuIpvnOPAiGD6hjlEW3SLeD+yzTKh10U7i701jCRBwkKuHgwmnODVa3I9pu1hnHBFPkzR84knAXqT8yyNPosOLrW+KBbE+sU7RqND1FGUGCP9dli/jwgp4kqPVZcMmZjpEe4qWsCpfhmz73POvWFvMacS08wLbY7EV0CfOtxebr5A3eB/45PRUovWpeoW2PU9Ze8IH7oDtBQFq6ytue7JtYhy2T6ZB1+tpOh9fsjYM+BS5JmuU+dSZG4qI6K/+5I9r2hdtzn22oQcxkxwUZe1ZpMFMuFAKRui4abG+tGd6Jh0HnrcXro1Pfe75V4wvHtkMzNyIiuDy8BXd0PUVrT11ZJ4LhW+4IlvfIxPjdNehB7oEKWmfmmzQz6c9xfqWF5eMFjz/L/T+ywBLMtVut4w+cbZdXITCphdkE/ucpguFP052rHGf79D1Fa09c2+Bl2Uij5iKM8nuu07s4rSnTnht0tGG3H+Z4DNamlwozGc+OTGlbGsxg2PeLfDQg5gh6itaexbGhVKW3MFZ5MRIoz2HxkZrRBTZbkcu6G7XkHhPyO4TcVDNxi2TV/jxkBD3Qej6itaeuRXwMljf/A2Vhnjr8mfHaU/bfNy6m1wVhxty/0W9L1TtJn7PPpvuIZYuOM8TT4o0gFmE9sylgJd1FmYaS0qZFgyOU5+PFbLSaHrvv2yw9nTJk2JahKIrFn9TcPI6+aQIIl6k9sydgJc9Djy0O8UUJeLanq5RJyohYt8nvf+iwXf7bfy3ZWuL0GKLtBs5E3BZoH8Z/KZJ5AHn67aNA7dpT74+k0B3LMSA1zOtfOBZ3QdMlE33Ar9ik02deR90Cx0tkkT0SZHaM5cCDuJ195KKAz934rhSoE+deZn27T2grOvUmZdp9sjRTM8nryJu+4Ji4YM2s1jzOpXepceRZX1Fa08ZuYoDB/5t59OeNmXPnjtd032f9P6LRhJx4GzALcQ09SRgwhdqbdbQ9RWtPXNvgWNBh7Bi5xOHffbc6dq+vQcinXCrRDzE/vPUyxH983G67nwcuKm8GAdu1WY5jJoInQs8rdziRUhNABdKCdwnSddnEui8nk/Sx+O78IXoGjHFgbvspwr5wLPoRUDALRBnMAK7NrOJA7dtz5Bx2FnvP5Q1try41JXsPw6mXChx48B9jimL5zqP9RWtPXMp4HCdhG27rOOwyxAHzudH57+Lc3y66B5dxI8uDjzvMwdZ+tdQg46h6ytae+ZawJEP3O1GC5kPPIkY7Kz3HxqX/OYydNO/VfnCdT5wVT7wvC7oEOL66uoL0WPnI6EWMJEn/g0OF4q/teDSnvx6gEysZo8cjURXBrM8F+bme9YcFLdPP/1Yz/c2OcnzYv2I5+Z6PrIXGrsmtmts2rqSqpIPnAlp/3qjqz7eAHDVDVk5vj3hAweJYIqbdn1g2G/FJdJ0vl/T9jjukLz0wGTt4eve4WOMq5APPAkRZ1a4aEyoeie8MIvfi8sCsrrgA/e8uC7LICUZ1J83sVa1i8pSC7Eepc+qPLb7zrP7hD8Hnweb+bNZjLfNGpsmH7j4Es1Tl1+WRzukMPLJpkxGBC/U4m/EZ0dMYgUXSoJv6KRzbecNWdfbtpvtktLV1Ka67eyFWgbx5s/XV3zq9eGOpViVfOBJibdN3ar1W8XveUte5bKBBR7D4oQPnHq6gS4vK9cXoarracpFbSPuRVuRJ+65x3UT2eQDf+LwbNcamfxxFCFqInQkCr/AsSi+fD6TlUazJ78Jc2Xp2q1o8fS5zAeeRirWoqOKm44T1aOy9HxEME4vLG8vzhD3YLvd0uZCMcWB63zivGWfF1QryId4lk3iKraDa7sUcTJUXx6ESOc6AG5tNzk9lVjOCBAPlgvFRfR5S1GWG0UciMvjGo5Jv5RDCW6RZ7HmMg48yVSsZXCr6IRZ9PUVxS1V1hV52KDl3plDsfKBLy8uKX3ieWyvtF4kTHRlrhWbcuy3fD0Q8BiUNR940iJe9N6J7EVU9lm5cfKBi3/zz0beIlFEAU3qeornyH+Wnb+sXWwFHwIOglKF/NllgrlObP2xYj5wU24UUSR5y5IXKJWw6axPVXnZ9zIxTDvUV3Uert9DwB1AKlk70ZY9DLIudJHaUuxp2SyYXHQhjxMHzn9m7WCKRBEFVWdt2liiqt/w34uzdFsLV9GbroIFDhE3C51tHLhtFIpvTonQ5XUWapHFmwn25PRUkHzgYh28aLYWrnbaUSamfCoE/rcyVOVNMLcOnme4UIBB9FQPnu7BV9XB/KumGOikyk9OT0kFokwD2XHzgZuuOy+WfDuKIsruDfH3KqGWlZflwxHFHeJdMQFHPnB7t4lo6bjUZ2pbNvkhq/JlRPSBu+YDN62RKXtpDo2NWmV6ZHWKgqsr71IGz3IFBBxva3u3iUvbiRaSKLCy7XkqXxVxt8kHLvOB69wqLgKqs/LjCDBEu2ICjnzgbg+HjRtFtMxV+SHyur1M8AIt3uM2+cD5OPAkBdKlXog0BHzrZlXkr8Z0ev3Do4vY8MkkmOV22WzFl148Vqvy9Z49crTr2petPV4/+VwNT3WBBdyEKQl+1UAceLVADxXkWsBV+cAxnd6u7Wys9bjZ9bIuD7ieSQPtAHJqgSNuNJx4mzIL2opuFuXH79xTe+LwLL304jFc4E2Gxka1ceEAAp4r9wCsskTFoEZEUV63A/PL+onDs1HcZ8un9xMqPFD04cc9n9D1hVosOe0xilzmAwfyG2xhbr5rNZY42eh8p6tnXb5q2K6RKRMhJkSqpcXirCHZWriaWoBB6Jhy2WSzOO0DCxzi7YwsLlzWdj5ZCn0zHGZdvqyY4sBlFrtqDUidu9JmDUlxHcpQ8eNpGkK+7ZOn80MceEGsb3bj2MaC68RANXlEl2gpL+WrBu8DtxEO0xqQJrF3KS9OzJJZr75iNzy5i945/mbQ+nzaJ29ijnzgBetOsynLKmvVRiB1q8NkXR6o3QiyMSJRSFzWgAyxhqRMFHlhdx3XkgljyPp822d4cleXKzPrcTsksyqI+4RZYzZx4CqBPHXmZdq394CyHNueZXlg30Pl7wEboVXVrfpsXYekXJzIMun5bNYdrD7f9vE4niTIfE1M24G4kYlx+Ehjth3P2XOnay7f5618FZGtielzH6z3j1kvZuDy2xD3p65c6PpU52d7znlY0q4wceA2yZ0g3htCuG/vgUgnkDqxzLo86EaVakJ1H4hrRKrWgBT/thHyLuEQ6patzBPHQtWJYoj6XFbn0a1iFPd44EKpMLaDl74CmXV50C3YuuvOh5OKC/TGFWtXQRf/7l9vxHZ3zD3/Sk+d/esNmnv+FWWuex1JLZbNH0+WfnDkAy8oZV3FHXSjywfOxJ09P6pFjVVrX8ZdE9MG1+gycWBedi5x19hUvUx81wxNe83PXAo44sDRdkCPGAfOW+T8QJupy2+zrqVSKCSLJduIus1kGH5gXjaQyvbJW+C2uc7FcYM4bSBum376sc7zV/kwQsSBh+tOg/Ih5kLhBWN4cpc0AkSH75qYsheCbBCQbXOJ1lCdT5y6ZOcRYs1Q2bJ0lRZw0yANIGn76CJyZo8cjWQr3sjWM+S3H3v2Gfiuc4btdG6d9T399GPKtS5d18TsCC3ZL3Qch5A++9Brhuap51uYMELQa5nJei2zR45GJjeLagaaWBZkz8LcPC3MzUvFWycksmiJnhWBuPUteWFik8V0gsjvW+d+cBE734VCdAaPeN42hqKsfVwyc1bCAo/bNaq6NZbEw4CXaT4RfeCyXpgqlI+9BJgYiaLjsyamqhfI799moM/Uq2QumbiDhqHXDEUuFINIZdVAeV7GLYTvW3fzQ7zz29NS5QM3DfrxboEQYibeh2z/Oh+4KfRPVp/uhZTVGBCyEQbsFiVNUZZxsxVdVbcPA6L5R1zcgl8j02YQM8neLdu/LiolxCCmy6Bo1dZQRRSKROiKLN4u7clHtSCuvFjoZhiKLpQkRDz0/rM+Hwh4TBCFkp/2xENRHMQXLu9y4C3WpCbJhd5/1udTVHIXhYJufbpii4egWPDXi78HVBYri2AJdZ1D7z/r84EFDoyEGByVTeKxEXGbQWFdfvG0ePTBR7xCGF9947XK+D5t5gKIvbGQghd6/1mfD8/nHv5i132o8+/Ltr1+8rnqrYlZFdHO4+CoTX7xNBkbWCUioqFBfedwZfVjIiJqrA1W9v5SRaHwvduk3GKh95/1+UjF0SINgUnkSy/gZfe78laFr3iLVofMYvG5ybMexPz0zjX60bVBGhtY7Qi0jsba4GaZgUoaB3zUhiqRVRKiF3r/WZ+PLWxWJstEmMaM1NwLuG3UhGghunah0i4vRrSE3n9oSyUPESgrqx93RNxW8G2EvspkbSCF3n9a56NLQ8DP0FRZ7JURcFWgv26GGPtel9yp7OX5nA6+llSueiwOglxV8RbTyKq672x7aH9x6P3z9U0//VgnJ7goiGmLN79Pcfq96BrNir683qQ24qJruCqUt7FSbB/evLmyxgZWO/5w1d9psG/vgYj/lycR51/gMutPlUMlz/vX3YdpRKDI0hDo0uCOTIx3jNBK+sBlXXhxJWjVdpQPK8SIA+8WbiKi0Vtu7bwwGmuDne+zXHUoqfzZWe5fFYnCcm+z+zPp8EE+5py5T0zHHyetb6kscNH/is9un0WLwdZSQSytWrxHb7mV7hv+qGfbfcMf0egtt1IerHHVfcBPOy/a/ienp2j66cdocnqKhsZGOwKapnHBLGnbfWZp+ORuSTVst9/ebrekD4CLSNvG4IqUOW6bt7pFt87W//kKX8yi+57U/sX7PSuBXJib71jh/HwKvlf8zvE3M/WBIw684vjEgbMQvk/vXLP6PfutS9gfL6Q63/fB/Y9HRESnzrzs9WJg1reMxtpg1zHs23sgytKVkkT+7Kz3bzOwn7goWuReYb0LJt5ZvUBzJeCmyAtba7Kq5cWbzfWGj9Plbd64Tp9O4Lcy0RQFNA3S3p/Lc5JU/uys95/1ogmq3CviMalyt1RKwGUXyOUCVrn8+J17aiYRT1K8N8L4tsUos2Ex+1rLScFPKJK9NNgEouZi+ofvmz/bVxCLkr87lAWuewmZwigr70IZGhutEVGE7fEftqQsmOaN6zQ20C3KZrZ1ytbrt+qv/eZU+qHBNWJj7fzfDYPXxuSj1/ngt9xCfUS02nNcQ4PMDXQ90+dDlz+bCZHYI4ubl4cvJ5s5qRKwIufv1kXR5CF/UO4FXNdN2xQ4lDdYBrb45AM35S3Z2omdy8RmhiVvJZvcH+z4bPOnNG9cp7HVjzvHsnWeG8I9NrBKzRvXM+1J6PJn81akuKC1yppWLfTRI9hcXS4LNRQxRFV33Da5Wyoh4D5vMd83YBnLpxkHviGE150scFZGVd9GHhQ7VwxzceheLD+6NtBlrX9655rReh+95VY637q+cZybgs2Or3njOjVvbKPRW27tiHgW6PJn8/ACw+fu0FnZukE7Wb38/mUTeoo8v0DWFi65WypvgbfbLarXh62/r3p51xWOdKP+bkJuw3WjVe06NWHLnSEXed4Sb6wNWvvg7xv+qEuw2fGz2PDGWjbPg7iKksoCt31BiwLFhFr8nrfkVS6bUL3BPJH3489cwG0EShbvjPJy+Nljsu6xqgudNc0bG9Zu3LImn7prfcy/L87EJFrtCHtW2MTuM2uYt4pF8eXzmbBZv2IahpVG07gfHaZIFJf8295i55i/WxXNZZsLpjIWuEqgTp15mfbtPaAsx7ZXuXzmosv971LG9zdMXE2MDaxyPnqzb6ZeH6Z2u0XnW9uI6HrPPtj37LdZwnzaKj+sjbjqPpuQ1a9akd5m0FSWf1u2Mo/qvPjysogY15eE7uUjDmLChaLg7LnTNdm0ZdsJFFUr79Lls8kvbhLQ5o1ekWMCLPve1nfMyvL1i3/buHbE3OImd8+pMy/X+Mk8ogtF3H9WoZCiH9ZGQHirXCVuKpEWxdGmbIjBS50A25ZjLxLb/N2mXC6mXDCVEnAbgdKJXdXLq6wq1/zqvjdi94xJ6rF40145p3njOj00EZHoUx8aXKPvL9a0Lpd6fZjWNnuGqpdTvT5MWcexu0QN8QsEx+n2i7+1sYLjCDWff5sXXpPo8gss8CLNi7Bt/m4+l4vuBZRlEqtcWeC+05GrXl7VtZZZ20nkF7eZrbgRerfNuW5eQG1cJjzqKfvXjVY40cZAZ1NwbzG3SR4mIdlGoqTVtY+bv1uVf1tWj0qoZfsTc3jH7WnGdSfBhQKCdrmLkH2QuUnML4VBqftG93JhLhXbF0leZ4rqRJL378p8wqrfmoRVtUq8zh1jM5Veln+blREjpFQr4TChNg3Ki64Pk+hmnWsGAl5hQuUXtyFUGCFvZdvUKYq3THDFenRx6EXCFIkiCqPNorwuQiv7XmYdm4wGU/5tWQSIqidpa6CYXB+mXC5xM3hCwIGzeLPPslhf1XYXa5n/36WMTGx9QvNc6yuCdW2DanFdnU/Yx6ds69ZxuZ+YYPoMwPv0WnQvJdvUA5WOQpk9cjSSWYT8DSe7AL7bjz37TC3k8ajqS/uBTqPrF9pvn/f6iuJG4ccyxOvMxkbi+pRZ3SZxd72/+Dj1UNkTZcIrC/2zMYZk5yObSp/FosaZr8gze+RoZBIX2YywENvFffsej6w+ANJwpfCoBu9kv2P3MPtnKu9SxtZKZpbr9NOPdYRRFEr+b9l28XdiT5Nt55doU1nM/PGYXkY29VXChZLFqja6MKzQ9WX5cGedID8OTxyejfUyzHN2uzRF3Pb6hvAp+5axSbyls7J1uVvEwXub3oHN8bgm9Cq9gOve9jJsulu67XHENnR9aT3MWSfIjyPeN5cWlfm4RdhvGmuD9MTh2SiuiH9lZiYiIvqjEyfwEggs0jbYJN5yzd1CRMp0ACaXh+l4ZAm9IOCWgsOHGtlamXFzf6iOp2jJ6i3zj1sJrK+lq6vjpReP1fh83kODfcqMh0ODfV2JpXyO649OnKh9ZWYm+srMTJRXEa9KD0OWPCtE7pa47g5dMq+s3Ce5EHDX7Hk+VoGYyU1mNbscj019ecM3Pzmzjh998JFIjMN2/awT8Y0IkkFjkqvGmvBbD74yMxPdd9c6nX8HwVlpYpN4S/Zd3IlnLikHdMeTtXjnQsBdV1FP4i0f6njyENifRn71rQUXBjvJouJ81uVY3JrMo3ehDA32cTm740/XZ+J99wMjdP6dD6CqGYi4Skj57S75W2S/txVb0/HkQbxz60JJ2j0T0vURur6k8c1PTrSRZ3srpepgx4XBPnenXFVv327YHXOP6Fwo9otJ2In37qem6L43X4Oi5kTQbXOwuFjTvscTor7SCLg4+JDklG8boXU5njwKd+j84irk1vHWZ5vtuqNgrhObPOEhXChMvK98c57ufmAECpoSunzcOB5Y4JWkqPnFs3KhPPn07bT7qQ3XGRNxAIpA5hN50vQbLy8udf2TDUy4Tuc11Zc3VDMU8zhzcWtl+j6tO8eHg/sfj1y+BwAWOEfc/NWubhbb/NdZ5dMOKdAh84tnRZoulK++uoP+kOa7PhM1oQ4AAm5DnPzVzDdtiv+Ok/867XzaaVnZRWL0lls3FjnmVoVPwoXSbreIGkRffXXrhb10+VJh2kmXvsE0o/HcieO0d+YQZVl+/M49tbsOPdD57q/+5I/F8+v8PTy5i+aef6Xz2WZA8/WTz0HAs8BmMJNPjxqnfOjjAcm5UpKKQmE9lvblVqlegibxNBkbaZVfaTRp7vlXjD1ecY5F1uF7EHDNBYqTvzp0/us082kXDZZjeysskGJ91oURpulCEd1ORRRv37w3WZZnvSAdtqsPQcAzFm/22SV/dej812nl0y4qWy4NdZigzWfbiTxbE4dUDHpP5GEiXjTx1mUAdElmlVX5obFRmpyYUv5enO0MCzxnAh4if3XI/Ndp5dNOiicOz9JLLx6Lvd3WpUFEdL51nT69s4+zzLsjRkzbbaPRdeIt5kIBxUJMDat7SeRhBRwIOCg8W4sFX+9aOLjX3aHfvn3c1i0yqHHnhMuFYjsTtagCyVu4Q2OjJPr9Rcs4jfIuUV/iAgogZwKetR8v6frSwGSlhLBieKFkCar45dVsP49bulBsFjj2daHs23sgqteHqYhuFN01jnOP8ve7Kq1ryPImH3jXuNOmgMMHnhMB981fHTr/dRnyaSdJFulMXdLJxhVv8XNRRHyl0eyxXl0ye4rlxcguMa+2WLdveZuFG0BBXSiW+at9t4c+HuDJE4dno7jpZH1ylYfIEZM2zHrVibZMOJnLiJVnQrrSaEp9zqJLZHlxKUh5m2Rw7DcYxCyYgJu6/DaWhm/5pOsLjSmfSZ7yneisfLakmk26sHHu/youqSYim4jUvtyi8Tv3KMvwkVSq8vX6sDLiKm55tgCD6dmRLUgMEc+BgKeRv9qlfJbHA7Jx1RQ9Dpy3wnWzSJcuX+qZOdm+3KJ2u0XvHH/T2Atpt1udSTfMalaVH79zT+dY2N+y8iuNprUPHIOYBbTAffNXh8h/nWR9IB8UeeCyXh82ijdjc/p6l8FRrw9vCanly4I3VlTlVc8JX56PAzfBD2KCnAi4b/7q0Pmv08qnDUDIZ2iI3Nx3vAC32xvuFV1YIM/Q2Kiy/Pide7osZt6KXl5coqXLl7rKq8IMTcB9kiML3Cd/9b69B4Lnvy5DPm1QDfbOHOoIo87y5e9rZi0zd0rI8kuXLyldibLyLmvQVi1lhQ19eT9A3/zVofNfFymfNig/otWqc+Px28bv3NPJY59E+aGxUVrvH6P1/rGOOMvKM2HXrSZfpHz7aVOLouzz1pvyVyddPun6AEgKfuEJZuEyoRQXAuYHGFWulFDlRRdH/3pDWp6Iarwb5dizz3SV49PJEnVnQUQ62Zy4UHzFMbS4QqxBUTh15uVC3av/5N/+O2otXO2EBQ6NjfYkh1OBQcycCjgAoBrIwgiRDxwCDgAoALIwROQDh4ADAAoCH0aIfOB+5GIQc/bI0Ui2wg1blknsPuVl+7Fnn6lV8fzino9te8n4vd/5Lfqz//jn9MUv/AI99/W/Tf0ePfoHn40e/vRGN//kj5r0zB/8wNv3/J8+/0h02/htRET04dKH9K+/8Zp3nZ97+ItRkQVpdMfHXWtkthauRrwbRbUmJhtonX76sS6h97nnYIFbipvsYVd1n/K0ffbI0ch0g5Tt/HzOx6a9eH7913615/P4ztGe73V87S//2qpu/nfito/vPhPJBL3v7f01m33J6nyg8VYkE/Q3x+6X1smX1+1H+pBvipssMkRnzbLtqt/4lpch+sRlSxiqxJsX+qrEjOfGhZL1qjxxttuOnpfx/JJur5hEu0frtO8nfoqIiM5+7ztM+HpE8Wt/+dfKF8HqxaVoZsf7dOL9HTTwM1fo9MUWHbhnmE7+aMtvu/HdmR4RV/E35/8uuuveW+idCzfo90fvomvL67RzpJ8+XPqw85try+v0AL3VI+JeDzgnbqLQmb63/Y1L+fX+MaPw8z5x3n2i8oHzdfL3XRVSP+c9naxy28LcvFf2P9/yIcTI9/ySbJ8456fbX5rive+Bz2x9+73v0JVmOxJFnAm5TMRndrxPt43fRjP0Pr3BCbYPd917Cx24Z5iIWkTXtgQ7bZiLq7VwVTsxRnSFsd/7lpe9UHghF33iNj5wvk7f+x4CHgCbBRTYRYq7ak6c8qa8xVU9P9X5hGovawU/cYoWz79OdOQ3iIho8dn/StHyOtG9+5RiLft+Q1g/pGvL6x3hvrZ8s+s3O0e20+mLLTpoaStfW75Jpy+26NryzY5wX6x1W6D3RI2NbYHG50S/MBNcXghVQivrRbF7yqf8yMR4l3tNfAnI8qfYronJLw5RlYVXMhdwl1wItiIi3jA2F1RVXvyNqkuXxfmFaB/X83M5nzjt5cru0XrExPutvnVaWbxBD3/vO0REdHJxlYYG++j+C2fpD37naLR7tE5Xmu0uyZWJ+lt963T/8sb/THwHL+zoFuR736edI9u7vju4//FOPhz+byKiR5Y/Qa/R39Mjy5/oiPfpawvdO945SfdEZneEWLfJrcGEVLVyj0xobRZaiFte/D3vDlHdXzZrYlbJ950bAReXVErqzWmTNN4Vm5slrfNLAtn5+ZxPEg/XlWa79kDjrYhG+mlobB/R2z+gf/TPvkRn3/whnTv1PRq6+7O0s/EW0fnXyda3vLL6Mb01uN5Zxm3wwg56dOZh+v4bZ4mI6KEH99GrJ04SPbyqFVf+75XVj+kR+sRGnQNEp68tSOu8Z9RuXU+diIs+ad6tIF4vXQ/NtLygb3lt0qtGrxFmsyZm1US8lHHg7E3NLIEQFrDMqiwjoc8vjfZiA4K7R+v0QGOA/ve/2nChPDIyQM3ROlGDnFwTn5zeX3t37kz0yen9tcXo21F9YLAjtERE33/jLNUHBimiVaW4ikLL10kXzirrdEEl4vygnu0LN4kenurZFJ9TXoh9DR5Y4DkQ3xA3U5IDGeLyTmmfXxoibnt+Nufj015OIn7+dbq2vE5v9W3EVt+//GHnuzg89A/fiU69SLT/Czfou/9rvSOw7bVV+slf7qfTF4m+1Xwx+qAR0S/e9zM1m3TCh7a9Gy0Q0a/s7qe/eLvVVeeX7h6ma8vrtHpxKbrQfJ8++/BWj4EPJ3RJWxzKIhVfwiHuYWZR84OZshe+7ZqYbHuVFh7PXMCL1uWRJauv8vmlUd/hp56MiIhe/OYLRJJokheW++nJkfWOJb73vg0rbpQT7xeW++mzkrp14YQsbPD0xRb95C8PE9GNzmPDBiSJiG4fq9HfnP+76GuSYxNhYYPXltfpS3fzqVs3xJsNbN47uoN+cPKtnugZmxjwuHHRKjcI78Lg64m7GENHvIVeA3OryNydNmtiVi0CJTcWeFH9Vi5Z1Mpyfj7nEmcQ8zd/97eiL/3L39iyih/c1yVqh596Mnp37gy9sDy4JeLnX++IJBPvsYFV2j1aj8RBTJkonoq+Hd0/OEKnLy5v1nOzJ4xQjEq5faxGdzy2O3rvlStSEZ+4cDZaGezrjkBZ7hZaMSrl3tEd9OiDj0SvvuE2Q9M3Llp2jdm1011/24ABdlyquG6VD1w1iMnOF1EoIFExcrVaXW5CVRc3rpWkO784Ih6nvQ4/9WSXeBNt+IqZiB9+6slo0yqnsYHVLhHnrfOxgS1f9WbUilIQD/3TPdEv7Pw5op1EQ802nYq+TTtHtvcINuODRkS3j21Ud9e9t3SJOLPsJy6cjWozB2kvEV1ptmniwlm6J2r0CDbjQvN9und0I+rlyZF1ZxH3iYtWCbXqeqvuBdU9bIrrFtfI5Mur0smy80UUSkYUpdHjugFsz09Wvyl+W7Vd5ps2vRhCDzb61vfiN1+ofe/kSfr1X/vViBPvjpCd3QwXJCJqrA12RJxnbGC1s+1Ks027R+tW+77SbHd9ZiIuE/MPGhHdde8tPd8zy/6rP/WwtE4m4jIxv9B8n54cYS6V92O1n41FKt4TosWuWymH90uvNJpdKWJ5q1kVuSKr19bgQDKrnAi4KG5F6frYxjXHPb/hyV3a39oMHq40msQSA7m+JHXnF6dbHjcOXPRPv3riZFQfGKT22oZV/UtP/hStDPbR0OAabawQuCXYRERDm9tWVt32uxkzLt3Gi/jtYzX6oBHRteWb9EEjil0nL+L3ju6gC8336WJtjC403499j5osUl4sdUKtQnRn8J9t9i1ziejmGbD6VOJdxTUz+wjkrufAhI5/oIYnd3X+8Q+dbruvC0OVqCrL9np05uHaQw/uqz0683Dt0ZkNy/ZH1wakvx0a7Ouy0GVWsPiSOP7fL9X+9tr/oZPf+S6dir7dY2mrYNtkPvA//M7JWnTiFJ38zndp4sLZHktbBdvm6gN3ve6m37C1LXnhFD+71CtLUMW7fcQ1Mm3WxFzvH6OFuXnpOp2wwBMk1EzFNIgT0xzi/MQHQbRudNv59JumY7A5v7gzMWMS8bHSm26U6KEH9xER1Y6ffoeIiAY2RZz3dRNRZyIOE2/2exF+EPPg/sejbft7f8O7R1T+8E99cL/0+4P7H4++MNT7Pe8eUfnD17bdmqiR4brSjbhdleEw7gtb9IGLwm9a2LjMczRyKeBFm6lom5chzvmxbWLIVNxMg+12i/bOHHJqX9P5uV4v1/YSqD304L4uEefEOyIi+tT2Jg3t6NsU7A2xXtt2K/345q008NH1TrkNcV+lH98cpYP7H490a0leW75J9w/20aKFeJvcJrxYDw2+R/Qx9Qi2zP8dsocou0ZM6NgL3pQS1jadLIsImXv+lZ57RXyxq+K6ZbnmO9/PzdPdU7vo7fmrNDByx8ZLbploYOQOWlvGTMzUKWqDJ9VjsI2bZpnhTJZyUvtPq77jp9+hQwf2dX0mooh3jTTWzPUwK5y2kdSFwlnhtR2X7otox/tdYs2EWiXYm9Z3TVFvba61Fn1mR7dYM6FWCfam9V2TWPRWk3l0ESg2cdU2qWh1Ih9n/6Z84Ov9YzQ8uYsG3ttGu+/4iK68t40GRu6g3Xd8RG8vF1tTCingRWrwOCLEn1ucyQ5iWdeshL77T7o+g3hHOteHycWg2nbowF01w6IQNSKKdly6r/PFDkNPwaY3QUTRXIt72+jdI1LhtsEUF22Kq9b1JtmqOHwWQjGroO/+dfnA+9cbm/ffNhqe3EVX3mvS2vJ7NDzzGeqfm+/SkYUKrGBfyqn0eRFvnxcUezhUIVguAho6bjutOHCdm0MQtihkfUREP3x/B/tt5CncQeq0FW/eIjZdJ1VcNV+HLBWtKgshs6J99m+TD/zKe9tobfk9ai18RGvLV6l/vUHzJ5pGqx8CngBF7uq4ilLWL6fQ+8/Ly9ZFmC3q8hJpHuaWCVGnS/6TOKgWSOBT0aqMhxB5btj+bfKBry2/1xHyTm9r+T0a5YR7pdGkyempUq+HmQsBL1IUSlzxjvOSso2bVk18GBobpfblViL7T/J8QHrGkWy7LhWt6t6TZRWMu39RD/i8KENjo7R0+RINTT5A61ffpLXlLZdLvU40MjGVSuI0CDhHkfNlJ93DUJXlb1BTe4Xef9Zx4HnnZ//9/4xu27ObiIg+vHSFvvX7/zh1K5C5MVTiq4sM4l0g/ArvuvtMdIX47J8JMjV67/fJ6SlaunyJ1pbfo37qXReTvUwg4ClbsmKGsyKIeFIr8oix07LMbC69Fd/9J12fDiE6pGebzGVhu2I9F0/Of9c1VV90hZiO4cLU5yOZoN87/w3njIK6fZnK81a0LH2CbBBRtkiw7QtX5guPu3/RoFMNRG5Y3cPCPnd1ft9ut6gKIJmVJTIhirMij43VzHcDmTWiE0zVakP1+rD3/kV4q8xUn28ook6omFi7iDZtDB7WmHgffurJzgLIZ9/8IS/sNfZbXWX86vVXfv5f0MrFd2nonk/Sh5eubF2bi+/ShanP94h4yLbQWdHMQJIZRqbkUKYBQVUooM/+xeeMF2pe7G9yrhP2N6ufiTdWpQepI8ZNnztxXPv70EvFhY4DT5I4liwTbzY5iGUzZBb4Zo6VaNMa19bFr17/dU6wM3+oLfKB62ZgMgHWuVDY/XHXoQd6JgP57F+WD1y0pvnP3N+1lUYz4rdVwZWCKBRHK1wUT1cXkat7iU7orfChsdHODS8T3dD5u13qitNeSfLqiZPEL2UmTtOXCLkWfvV6Jtx9i1e6fvPxxO7URV2VD1y8Lqp83GJZ2aQx9p2sft/9iz5wCXwPKVIIfS3pyB0IONn7VH2XdApd3mWSgG/cdL0+bJ17RCaYIeO2416vJCZVOLhOiGgjERazwi//+MfS34yNjUr94DLE1ev7Fq/QB29/o+s3t9Pn6eOJ3U7HaTvT0sYC17lBTEuUidkFxTLiNRXjwOPsX8yFcu7E8S6RVri1Sh8umGsXis5Pa8p37ZsvO275yemp4KKk2le73aIhGrVe+TuutWvrNolzvZJoLx/u/NSn6KEH99HXv/ktIiL6wlM/a215d9pYWL3+g7e/IVlp/hs0OHHUWriTeq5kE8Jc7hHeGldZ/SH2rwiLdRHtSol5btPJ2oiJ7gZMo3wcN5FL/mwior0zh2j8zj20dPlSV7pMll5TPAfmQ2y3W50HyGf/ocU/T/AulFdPnHQSb6KN1etXVj+mT07vrxERxV1p/uD+x63E27XHoYuSGpkYV+bSEUPzmHC7iHfc/bP9sPu0Xh/u/GOJ2djn7UN30/ahu2tskHPvzKHa3plDne2wwFNEloGMX9lDlaEsL+VDCaFY1taPLH4/fuce71F44zToBNrLhbiDmKJQf+GpnxV/FgkCr7XqFn/uaET/9yQN/9K/off+xx92rTR/x698lVYuvkuvN3ZHH145T//gwdt66rJ1l8Q5X5n7rOsaScIIVaIsukd04u2zf5MPnEWm3Fx5m7YP3S11+yCMMCPxll30pLazi+xbvw7f/NlMmG394KH3n8T1ytDijjbcGhuDme21VRrbbBcWUsjCCV/85gvER6voYGGDKxffpTt+5atb5735HRvYvG33ffT/3jhvDE8MSah2F2PEZWIeYv8SH3hPGCEv0DdX3qabQu+yKuKdGwH3yXftUz7Udh0uM01HJsa7xE/M+iYeD4sE0G2ffvqxnu9tcpLr3EtJtlfSHH7qyY5749GZh+nVEyeJiDri/eI3X+jyYes4vf1gdO/gD2iJi0BZEX2UQlTKbbvvo889/MXo9ZPP1dJ6rlQLC7cWrtL00491wgBlKWVVlrhqm82CDrp84C+9eKzrt7NHjkb8OQzRqPEFwMaLZo8cpWPPPlNqn3guBFxm+fnmu866fFzrk/1WdEHIogBst8e1hNK8XoFFOuIn6PCx3n/6p/+Zvvzl3+6IOHN3iL8z8ciX/iz6+dvPEh38CRpqnqLT2w/SxxO7ewS7Y6VfOU+37d5IT1t/6KdTEXGbzHy6+4IXY9sFHWz3b5OPXGbgyAwh8XuZGw8CnoKIixfD1nLNQ/mQIi57sHysXtt9uwxEJtlePvzm7/5WJ+SMuUMOP/VkR5y//OXf7ljZzJ3y/TfOdixzV8Q1NpmIy8T8wyvnqf7QTytFPhSmfNy6npbKLWKzoAMR9fT4dKsB2eQj1z07vFCbJgpBwFMWclsR8M2XHSLftgsuuV5M1pNuO7N+khDvNNvLlf/yH/68K26YCTU/8/LVEyc77hNmgbtY3zy6leZ5Eb9t93304ZXz1Ld4hT68cj7Zh9oyHzdz8ckWZhBdc2wb+15cxEHsDdrcd7p85CrjQzXeIn6PFXlSgp9JWEbizFyUdRVdLV1dFjiXnkNBr1fHNfHQg/s2V/a5jYi2ZmPyA5k2oX4ir/3F79Ue+dKfReOn/xstHfjnvZa2YvIOE+80fOBx7lE+Xl+8d2ULOciEPo546twwvJEhRjyJIbL8avYQ8Bxgk+86i/K2xMl3LttPXOs2brm4XVDf9goFW45NBgsjbK+t0vb+T9D6OkkHLl89cZJ+MHdWtUJOtP3QL/Z8z7tHVK4Sm+iNtIwH2XgGW7zB1CtTrcxje/1tjk+WzEom7lUllwLuku86q/LMEjVRtnznsnMO2V5Jind//4fU3z/YJeKiqPOzMbf3f0K7n77FKzQ02EdLFuKdtNtEtGZ1+bh1Qmt6AatcjrK0sab92dwP9fqwMkmWzpJP6yUJAbfs/usExSdftm95G0u2zPnOQ7dXXPjc4YcO3FWTiboo2rxAb+//BN1c//seYdfkJK9dX3gtoh3dYs2EWiXYm8KSqPtElo/b1oBIo6dnykcuCvLdU7s6zxFbDzOuSwYCnpHVp8p37Zsv26d8mbDNdy4m0s9De9lMMT904K7a8dPaxYR7LG7Zi0AUcSKKri+8ZvtApeL35q1Q3oDgr3FWyeD4cvwgpkpwB0buoCvvEb09/0MCBRRwXzHIunzVyKK9eAt56Vpvt/y5r/9tl4CaVrHPevV6GSxXiu20e5uUsDaD5WJctdibdC3PH4uND3xqZiOS6grdQUSktb5NcesQ8AweeFO+6/bllle+bN/yNq6IIlnh4rWR9VriXq80fOCcWAcRaE0dqVrXcdPLmlLCygRdF1cdKi5blYpWZP5Ek9aW1Uu22Yg5BDznAuObL9u3vM0DVOZ857btBbJFlcTNJ67atbzsvtJZy7vv+IiGZz6jjDtnqOLWIeApEjfftW++7CTzbauml5ch33nS+clBfGRJp8Tr6RtXHSIu28bVYYo7V8Wt61I7QMADMTk9RcuLS7R0+VKPO0UXstZutzr5gbMq7/uyMlmofHrWLMqHvl4gPmK+cBuXikkcfeOqfcu7+qlVcee2cesQ8BTdIiYLTpXvOs3yLpQl37nP9QLxCbG+I2+Nx4mt5n/vU942Fa3sftP1HKvossvFICZR/HzXWZd3FW/2OY1856G2p91eIBmXiszqdbWCQ5X3jRLB+EpOBDxERECeWZibp0nDb5LKdx4qX3qVrlfRyVOOlRC89OIx3G8a+tAEySOzFsqS7xwAUGELvGoiXsZ85wAACHjlrPEy5jsHAFRMwGePHI1kURA2az76bFetlxf3eGT1lS3fOVujkL0AWDiiGHXCny+z+s+dON4J3RTLL12+1FWej1qxKW+7/7PnTnddo3v2fCbyaY+Ll34IHy3IjL48CQIvhqrvQm4X9+17PLL6TIxMjHf+qQQoi/K2LMzN09LlS9Rut7r+sThx/ne68qO33Nr1z7V83P0DAAs8AFmsLK9Llxq6Pp4y5Dtn5XQTdNgMV11e6Xa7RaO33NqzffSWW6lpWZ6IyyzJ/a3bPwCwwBPGZs3HuOXjrDgTqr6hsVFrC1kmommWlwmnS0J+8Td8eWZ5M8YGVmlsYLVLxEXXimr//PmYZocCAAs8QWwG2thD6hJdEXrh3lBTd6ue73xsYJUaa4PG71QwfzmfGmH8zj094g8ABDwwcdaMNIms7jdMdFUrzrgcj019ccW7COVt8pswN4btGqSiiDdvbOtcD7E82//S5UtUrw93BJt3p/jsHwAIuIEs14yU+bF9jkdWX9nznfvSvHF9U6Svd8S6+287eIGGWAMIeEkJnbUsZH1FyHce2uJnPvDmjevKv3Xlx+/c07XGIkMVnggABDwgaS76ayO0LsfjKtxlyHdu41NXofLJbwxcDnIDmIM9wq0qv3T5UseFIotIEcsDAAEH1lQ137kvKgscLhQAciTgaa4ZaeMicDkem/rKmO+cWcFxeh68T14Hs8abN7Zpy9u4UKqY6B9AwFMhqzUjdTP74hyPqr4y5jtnddlauWLcNl/eZhBTV97GheIStw4ABDyGm0H10Gex5mOc41HVV8b82cynzgu60lKXWPh8edtBTFX5rpdTY8udQg31/gGAgCdMVms++hxPFdg7c6grukM3MMgs4ZVGU+qT73aXdA9i8i4UXfk4+wcAAh6YvKz5mFR9ZYG9xFSRHipEnzxfns245Gdebv193VhetLBl1rZqTAAACHhA8Wafs1rzMYn6yoQubauMIRrdyBZ4uSW1lrePT+iFn0hb3nf/AEDAPcnTmo9J1FcmyubTRz5vUGRykY0wb2tGJnE8AABQSgucF828rPmINSQBABBwD2s8D2s+Yg1JAEBeydyFYlr5JW1OnXm5hphhAAAs8ADwLgzeAradCagqH/p4AAAAAk75WPMxyfoAAKC0Au6Ss0OWnzr08mBZLjcGAAAq+opwkCrLlp8qHad86OMBAAAIuMHCTrN80vUBAEBcMnehZL1mpMjB/Y9HcY8HljkAoFIC7kIaaz76HA8AAFRWwPOw5mOI4wEAgEoIeJZrRoY+HgAAqJSAZ7lmZOjjAQCASgl43tZ8TGINSQAASIJaFEVoBQAAKCB9aAIAAICAAwAAgIADAACAgAMAAAQcAAAABBwAAAAEHAAAIOAAAAAg4AAAACDgAAAAIOAAAAABBwAAAAEHAAAAAQcAAAg4AACAIpCLNTFnjxyNhid3dT63Fq4SEdHC3DxNTk8Rvy1P2489+0ytiucX93xs2wsAUBALfPbI0Uj2sKu+y9N28dircH4+52PTXgCAglngKiHI+3bR0qzS+SXdXgCAAljgOnRrUi7MzXutWelbPoQY+Z5fku0T5/x0+4N4A1BiC5yHXxletvI8LxZs+8jEuLEu3/Kq31T9/FTnE6q9AAA5FfCFuXmj9eYqIjYWYZzyy4tLHVFqLVy1siqTPL/Q7WNzfi7nE6e9AAAFEvDJ6amgQpUmJj9wGc/P53xs2gsAYA/iwFO2hKt2fmVvLwAqbYGLjEyM5/6hX15copVGE+dneT4+7QUAyLGAD0/uKlTXmvl0bQfoyn5+adcHANgiFy6Uog5u2R53mc7P51wwiAlAySzwopKkGDFr1cXVIlq4svBBl/p05xenVwHxBqCkAl4UF0NcN4Dt+cnqN8Vvq7bLfNOmF0NoNwfcJgAkS+YuFFHcihK1YCvKcc/PZLHaiONKo0nDk7tiWb+68+O32Z4PQggBKKGAF5mkRIkJLh+5wYSYF2PTdpcXgu35+ZwzRByAsJRmJmYa8DML0zw/UXxFH7Ru+9zzr3S+Nx2DzfnFnYkJACihgBdtpiI7Ptu4ZpfzY9vEuOm4mQbb7RbtnTnk1L6m83O9Xq7tBQAokIAXLU46aWzjptniCSZLOan9Z1UfACBHAl4kEedFKM5EHtfehaysa1ZC3/0nXR8AID65G8TMq6Xmc1xxhIuVWV5c6knXyrtaxO2h959GfQCAggp4a+FqYV0orqKU9csJcd4AlAtEoaQg3nFeULb5s1UzLYfGRql9uZXI/pM8HwBAgQS8yPmykxJvU1k+osPUXqH3jzhwACDgXZYs/2AXId2qi0Xp2sMQY6dXGs2esrZ11evD3vsPfT4AgBIJeFGQCVGcFXlsrGY+DrzdbhE19IIpE/lQ+xeZfvox6/QAEG4AIOCVQoybPnfiuPb3OvEOsX8AAARc64ookhUuiqcJnxj34cldRCfchJc/1qGxUf/9e1yvOO0FACiQgNv6VFX5rl0ty1DlXWY6+uTPrteHtW3TbrdoiEa15xMyf3fc6xV3ZigAIMcCrpoObpvv2jdfdtzyk9NTwUXJ5LbwfQn57l93zbJoLwCqTm7Tydrmu86yvC2++bPZcfIzL13EO4383fCZA1BBC1zWZWfisdJodoRBtj1P5UMJYZyyuoHMpPafVHsBAApmgcvyWafxud1uBalPx8LcPC3MzVtZzaFdIiuNZiL7T7K9AAAFs8B98l37lA+1fx0uM01HJsa7xG7u+VdocnqqRwDZ8SzMzdPemUPK7SuNJk0//VjP9zY5yXX5wJNsLwBAgSxwlZj45rtOKl+2b+/C5mUmCiD/2TS9XSWerm6MobFRqVsm7vUCAJTUAueFwTXfdajyoepQibirgOpE3FWgbfftMhBpaiuf9gIAFETAxa66mPva1YL3Lc++YwODqjriTkpxyfViirXWbV+Ym6ehsdHg4h33emESDwAltsDLSpyZi7IUsa69Ahf3h67nAACAgMfGJt91nsvHyXeu6hXEwcftk8X1AgAUXMBd8l3nsTxP2fOdh24vAIA9uZyJqYqAEKnXh6W+1bTKx7FkizJj0cX1E7K9AAAFEvB2u2Uc4NJtz7p8WZBZzjIRR3sBAAF36p77WHdZl68aaC8A0qMwUSiqfNe2A2NJlK/Xh4O6IvJmhftY0nHbCwBQIAH3zXeddXkTZct3nnR7AQAKaoHnTcRCiFCZ850nnZ8cAFAAATfNesx7+bgvK9P++PSsWZTPU3sBAHrpK8JB+kY1ZF2eaCOckP2T1SvbnqfyabcXAKAkAp5nYbYV7yJ/BgDkk8xdKO12SxmdwAusSmyzLG+b3zqrfOehyqfdXgCAggi4SWDPnjtdO7j/8Sjv5VWoBhKLnu88qfYCANiTuQvl7LnTtSKXdxFy00o4ugWLfcuHqiOt9gIAFMgC1yHrtrt0x7MsX7V85yHaGwBQIgEPIQBZl68aaC8AkqcvLw87+ycTAVO3PevyPoxMjHf+8djmE8mifJbtBQDIsQWustxsRSHr8jaUKd95Gu0FAMixgPMP+769B6KilXfF1jpm+crF36dVPi/tBQCQU4siPH9Jsm/vgciUAEqVgnWl0ewMCGZRfunyJVjSAOSYPjRBtiDfOQAgLliVPicUNd85AAACXlrKnu8cAFBxAZ89cjTiEyix3BxsuriYXCnU9mPPPlMLeTyq+nRWrq+VnmZ5AEC+yNwHPnvkaCQTQ9V3IbeL+/Y9Hll9RFthezZT1fNYHgAAC1xL3Ix5Ptt1aVND12cSWAxkAgAKZ4Hr0InKwty8UXR02+OIbej6bC3nrMoDAGCBO2OTsImJqWltR7686jdxj8emvirkOwcAVFTAbVdtdxFZ3W+Y6LYWrkqtZpfjsanPJLBFz3cOAMiOzF0ok9NTNDk9JU2olDQyP7bP8cjqq0q+cwBABQU8bUJHX4SoT7V0ma0LI6nyAIB8k7kLZXhyV5flOjIxnliIm41F7XI8IXsMyHcOAIAFnkOqnO8cAFBiC9wUbx0S0ZKWDey5HI9NfbaWbpnynQMAKiLgtlEfoaeRq1Ztj3s8ulXgq5bvHACQDpnnAz+4//FocnpKad3q/Mx8GF+c8gtz83TqzMu1UMcjqw8AAJIitz5wmwFCncsidEhi2iGOAABgIjczMWXZ/1YazY5wyraHLJ90fQAAUEoLXJzBmPbn0McDAACVsMAnp6diZxpkERW+5UMfDwAAVMICV0WTsMUTVOiiPrI4HgAAqJwFLgqnTVbBJOuwrcu1PgAAKJ2Ai5EkNqlkTSK6vLjUWaRAVYcqgiXu8SD3NgAgbTCVHoCC8sTh2UJvByWwwE3wLgzeAh4aG6X25Vbi5ZOuDwAASiXgvDsijp/Zt3zS9QEQ+jkp4nZQUgG3XZ2nXh+WLsgbeoFeLPgLAMgjmfvA2+2W15vct3zS9QEAQGkF3Kab6GMB+5ZPuj4A4nLqzMuF3g786S/KgcrSyboMHMrKq1Zrz6I+AAAonIDX68Nai7bdbtEQqeO5fcsnXR8AAFTCAg+9aIOvyIauDwAASifgplmTSZdPuj4AAEiCQszE9I36CB01gigUAAAEHEIKAACxydyF0m63lNEbvECrxNqnvCx/d+j6AACgtAJuEuiz507XDu5/PEq6fNL1AQBAaDJ3oZw9d7qWZfmk6wMAgNIKuA0qV4ety0JVPvTxAABAmhRmJqavQIYWWAg2AAAWOGdNi6LIPpvcGr7lk64PAAAqYYGrLFtb0fQtn3R9AABQKgHnxXDf3gNR2uWTrg8AAJKgFkXQJwAAKCJY1BgAACDgAAAAIOAAAAAg4AAAAAEHAAAAAQcAAAABBwAACDgAAAAIOAAAAAg4AAAACDgAAEDAAQAAQMABAABAwAEAAAIOAAAAAg4AAAACDgAAAAIOAAAQcAAAABBwAAAAEHAAAICAAwAAgIADAAAIzv8fAK7PNFl0N/v5AAAAAElFTkSuQmCC;" parent="1" vertex="1">
          <mxGeometry x="-206.17000000000002" y="873" width="525.17" height="548" as="geometry" />
        </mxCell>
        <mxCell id="5tc1MSK5OGCI_BetjgN5-1" value="GameObject" style="rounded=0;whiteSpace=wrap;html=1;" parent="1" vertex="1">
          <mxGeometry x="834" y="184" width="120" height="60" as="geometry" />
        </mxCell>
        <mxCell id="5tc1MSK5OGCI_BetjgN5-2" value="&amp;lt;&amp;lt;Component&amp;gt;&amp;gt;" style="rounded=0;whiteSpace=wrap;html=1;" parent="1" vertex="1">
          <mxGeometry x="1044" y="184" width="120" height="60" as="geometry" />
        </mxCell>
        <mxCell id="5tc1MSK5OGCI_BetjgN5-4" style="edgeStyle=orthogonalEdgeStyle;rounded=0;orthogonalLoop=1;jettySize=auto;html=1;entryX=0.5;entryY=1;entryDx=0;entryDy=0;exitX=0;exitY=0.5;exitDx=0;exitDy=0;" parent="1" source="5tc1MSK5OGCI_BetjgN5-3" target="5tc1MSK5OGCI_BetjgN5-1" edge="1">
          <mxGeometry relative="1" as="geometry" />
        </mxCell>
        <mxCell id="5tc1MSK5OGCI_BetjgN5-3" value="Transform : Component" style="rounded=0;whiteSpace=wrap;html=1;" parent="1" vertex="1">
          <mxGeometry x="937.5" y="286" width="175" height="60" as="geometry" />
        </mxCell>
        <mxCell id="5tc1MSK5OGCI_BetjgN5-6" style="edgeStyle=orthogonalEdgeStyle;rounded=0;orthogonalLoop=1;jettySize=auto;html=1;entryX=0.5;entryY=1;entryDx=0;entryDy=0;exitX=0;exitY=0.5;exitDx=0;exitDy=0;" parent="1" source="5tc1MSK5OGCI_BetjgN5-5" target="5tc1MSK5OGCI_BetjgN5-1" edge="1">
          <mxGeometry relative="1" as="geometry" />
        </mxCell>
        <mxCell id="5tc1MSK5OGCI_BetjgN5-5" value="Sprite : Component" style="rounded=0;whiteSpace=wrap;html=1;" parent="1" vertex="1">
          <mxGeometry x="937.5" y="366" width="175" height="60" as="geometry" />
        </mxCell>
        <mxCell id="5tc1MSK5OGCI_BetjgN5-7" value="GameObject" style="swimlane;fontStyle=0;childLayout=stackLayout;horizontal=1;startSize=24;fillColor=none;horizontalStack=0;resizeParent=1;resizeParentMax=0;resizeLast=0;collapsible=1;marginBottom=0;whiteSpace=wrap;html=1;" parent="1" vertex="1">
          <mxGeometry x="486" y="118" width="241" height="76" as="geometry" />
        </mxCell>
        <mxCell id="5tc1MSK5OGCI_BetjgN5-8" value="+ Components: Component[]" style="text;strokeColor=none;fillColor=none;align=left;verticalAlign=top;spacingLeft=4;spacingRight=4;overflow=hidden;rotatable=0;points=[[0,0.5],[1,0.5]];portConstraint=eastwest;whiteSpace=wrap;html=1;" parent="5tc1MSK5OGCI_BetjgN5-7" vertex="1">
          <mxGeometry y="24" width="241" height="26" as="geometry" />
        </mxCell>
        <mxCell id="5tc1MSK5OGCI_BetjgN5-15" value="+ Transform: Transform" style="text;strokeColor=none;fillColor=none;align=left;verticalAlign=top;spacingLeft=4;spacingRight=4;overflow=hidden;rotatable=0;points=[[0,0.5],[1,0.5]];portConstraint=eastwest;whiteSpace=wrap;html=1;" parent="5tc1MSK5OGCI_BetjgN5-7" vertex="1">
          <mxGeometry y="50" width="241" height="26" as="geometry" />
        </mxCell>
        <mxCell id="5tc1MSK5OGCI_BetjgN5-18" style="edgeStyle=orthogonalEdgeStyle;rounded=0;orthogonalLoop=1;jettySize=auto;html=1;entryX=0.5;entryY=1;entryDx=0;entryDy=0;exitX=0;exitY=0.5;exitDx=0;exitDy=0;" parent="1" source="5tc1MSK5OGCI_BetjgN5-16" target="5tc1MSK5OGCI_BetjgN5-1" edge="1">
          <mxGeometry relative="1" as="geometry" />
        </mxCell>
        <mxCell id="5tc1MSK5OGCI_BetjgN5-16" value="PhysicBody : Component" style="rounded=0;whiteSpace=wrap;html=1;" parent="1" vertex="1">
          <mxGeometry x="937.5" y="451" width="175" height="60" as="geometry" />
        </mxCell>
        <mxCell id="5tc1MSK5OGCI_BetjgN5-19" style="edgeStyle=orthogonalEdgeStyle;rounded=0;orthogonalLoop=1;jettySize=auto;html=1;entryX=0.5;entryY=1;entryDx=0;entryDy=0;exitX=0;exitY=0.5;exitDx=0;exitDy=0;" parent="1" source="5tc1MSK5OGCI_BetjgN5-17" target="5tc1MSK5OGCI_BetjgN5-1" edge="1">
          <mxGeometry relative="1" as="geometry" />
        </mxCell>
        <mxCell id="5tc1MSK5OGCI_BetjgN5-17" value="BoxCollider : Component" style="rounded=0;whiteSpace=wrap;html=1;" parent="1" vertex="1">
          <mxGeometry x="937.5" y="531" width="175" height="60" as="geometry" />
        </mxCell>
        <mxCell id="5tc1MSK5OGCI_BetjgN5-20" value="Scene" style="rounded=0;whiteSpace=wrap;html=1;" parent="1" vertex="1">
          <mxGeometry x="834" y="-22" width="120" height="60" as="geometry" />
        </mxCell>
        <mxCell id="5tc1MSK5OGCI_BetjgN5-21" value="Scene" style="swimlane;fontStyle=0;childLayout=stackLayout;horizontal=1;startSize=24;fillColor=none;horizontalStack=0;resizeParent=1;resizeParentMax=0;resizeLast=0;collapsible=1;marginBottom=0;whiteSpace=wrap;html=1;" parent="1" vertex="1">
          <mxGeometry x="486" y="-45" width="241" height="50" as="geometry" />
        </mxCell>
        <mxCell id="5tc1MSK5OGCI_BetjgN5-22" value="+ GameObjects: GameObject[]" style="text;strokeColor=none;fillColor=none;align=left;verticalAlign=top;spacingLeft=4;spacingRight=4;overflow=hidden;rotatable=0;points=[[0,0.5],[1,0.5]];portConstraint=eastwest;whiteSpace=wrap;html=1;" parent="5tc1MSK5OGCI_BetjgN5-21" vertex="1">
          <mxGeometry y="24" width="241" height="26" as="geometry" />
        </mxCell>
        <mxCell id="5tc1MSK5OGCI_BetjgN5-24" value="Game" style="rounded=0;whiteSpace=wrap;html=1;" parent="1" vertex="1">
          <mxGeometry x="834" y="-188" width="120" height="60" as="geometry" />
        </mxCell>
        <mxCell id="5tc1MSK5OGCI_BetjgN5-25" value="BuildSettings" style="swimlane;fontStyle=0;childLayout=stackLayout;horizontal=1;startSize=24;fillColor=none;horizontalStack=0;resizeParent=1;resizeParentMax=0;resizeLast=0;collapsible=1;marginBottom=0;whiteSpace=wrap;html=1;" parent="1" vertex="1">
          <mxGeometry x="488" y="-206" width="241" height="50" as="geometry" />
        </mxCell>
        <mxCell id="5tc1MSK5OGCI_BetjgN5-26" value="Scenes: Scene[]" style="text;strokeColor=none;fillColor=none;align=left;verticalAlign=top;spacingLeft=4;spacingRight=4;overflow=hidden;rotatable=0;points=[[0,0.5],[1,0.5]];portConstraint=eastwest;whiteSpace=wrap;html=1;" parent="5tc1MSK5OGCI_BetjgN5-25" vertex="1">
          <mxGeometry y="24" width="241" height="26" as="geometry" />
        </mxCell>
        <mxCell id="ijVzpD9jWSv3GB6Ar08l-1" value="JA_BIGE_Renderer" style="swimlane;fontStyle=0;childLayout=stackLayout;horizontal=1;startSize=24;fillColor=none;horizontalStack=0;resizeParent=1;resizeParentMax=0;resizeLast=0;collapsible=1;marginBottom=0;whiteSpace=wrap;html=1;" parent="1" vertex="1">
          <mxGeometry x="-139" y="-236" width="241" height="50" as="geometry" />
        </mxCell>
        <mxCell id="ijVzpD9jWSv3GB6Ar08l-2" value="renderer: SDL_Renderer*" style="text;strokeColor=none;fillColor=none;align=left;verticalAlign=top;spacingLeft=4;spacingRight=4;overflow=hidden;rotatable=0;points=[[0,0.5],[1,0.5]];portConstraint=eastwest;whiteSpace=wrap;html=1;" parent="ijVzpD9jWSv3GB6Ar08l-1" vertex="1">
          <mxGeometry y="24" width="241" height="26" as="geometry" />
        </mxCell>
        <mxCell id="ijVzpD9jWSv3GB6Ar08l-3" value="JA_BIGEWindow" style="swimlane;fontStyle=0;childLayout=stackLayout;horizontal=1;startSize=24;fillColor=none;horizontalStack=0;resizeParent=1;resizeParentMax=0;resizeLast=0;collapsible=1;marginBottom=0;whiteSpace=wrap;html=1;" parent="1" vertex="1">
          <mxGeometry x="-139" y="-93" width="241" height="50" as="geometry" />
        </mxCell>
        <mxCell id="ijVzpD9jWSv3GB6Ar08l-4" value="window: SDL_Window*" style="text;strokeColor=none;fillColor=none;align=left;verticalAlign=top;spacingLeft=4;spacingRight=4;overflow=hidden;rotatable=0;points=[[0,0.5],[1,0.5]];portConstraint=eastwest;whiteSpace=wrap;html=1;" parent="ijVzpD9jWSv3GB6Ar08l-3" vertex="1">
          <mxGeometry y="24" width="241" height="26" as="geometry" />
        </mxCell>
      </root>
    </mxGraphModel>
  </diagram>
</mxfile>
